<svg width="16" height="20" xmlns="http://www.w3.org/2000/svg"><path d="M4.513.017c-.052.01-.105.019-.15.05a.407.407 0 00-.1.562l.862 1.287c-1.333.707-2.327 1.88-2.65 3.287h11.05c-.323-1.407-1.317-2.58-2.65-3.287L11.738.63a.407.407 0 00-.1-.562.41.41 0 00-.563.112l-.95 1.4A6.189 6.189 0 008 1.204c-.75 0-1.466.134-2.125.375l-.95-1.4a.402.402 0 00-.412-.162zM5.8 3.204a.6.6 0 110 1.2.6.6 0 010-1.2zm4.4 0a.6.6 0 11.002 1.198.6.6 0 01-.002-1.198zm-9 2.8A1.2 1.2 0 000 7.202v5.599a1.2 1.2 0 001.2 1.2c.14 0 .275-.03.4-.076V6.078a1.173 1.173 0 00-.4-.075zm1.2 0V14.8c0 .66.54 1.2 1.2 1.2h8.8c.66 0 1.2-.54 1.2-1.2V6.003H2.4zm12.4 0c-.14 0-.275.029-.4.074v7.848c.125.044.26.075.4.075a1.2 1.2 0 001.2-1.2V7.204a1.2 1.2 0 00-1.2-1.2zM4 16.8v1.6a1.6 1.6 0 003.2 0v-1.6H4zm4.8 0v1.6a1.6 1.6 0 003.2 0v-1.6H8.8z" fill="#031268"/></svg>