<svg xmlns="http://www.w3.org/2000/svg" viewBox="0 0 32 32"><path d="M28.1 25.2c-.2.6-.8 1.5-1.6 2.1-.5.4-1 .7-1.8.9-.8.2-1.8.3-3 .3H10.3c-1.2 0-2.2-.1-3-.3-.8-.2-1.3-.5-1.8-.9-.8-.6-1.4-1.5-1.6-2.1-.5-1.3-.5-2.7-.5-3.6V10.3c0-.9 0-2.3.5-3.6.2-.6.8-1.5 1.6-2.1.5-.3 1-.6 1.8-.9.8-.2 1.8-.3 3-.3h11.3c1.2 0 2.2.1 3 .3.9.3 1.4.6 1.9 1 .8.6 1.4 1.5 1.6 2.1.5 1.3.5 2.7.5 3.6v11.3c0 .9 0 2.3-.5 3.5zm-10.3-7.3c-.4-.4-1-.7-1.8-.7s-1.4.3-1.8.7c-.2.2-.3.4-.3.7-.1.6 0 1.1 0 1.9.1.8.2 1.8.4 2.8.1.7.2 1.1.3 1.4.1.5.7.9 1.5.9s1.3-.4 1.5-.9c.1-.3.2-.7.3-1.4.2-1 .3-2.1.4-2.8.1-.8.1-1.3 0-1.9-.2-.3-.3-.5-.5-.7zm-3.9-3.6c0 1.1.9 2.1 2.1 2.1 1.1 0 2.1-.9 2.1-2.1 0-1.1-.9-2.1-2.1-2.1-1.1.1-2.1 1-2.1 2.1zM16 6.2c-4.8 0-8.8 3.9-8.8 8.7 0 3.9 2.4 7.2 5.9 8.5.1 0 .2 0 .2-.1 0-.3-.1-.6-.1-.9 0-.1-.1-.2-.2-.2-2.7-1.2-4.7-4-4.6-7.2 0-4.2 3.5-7.6 7.7-7.6 4.3 0 7.8 3.4 7.8 7.7 0 3.2-1.9 5.9-4.6 7.1-.1 0-.2.1-.2.2 0 .3-.1.6-.1.9 0 .1.1.2.2.1 3.4-1.2 5.9-4.5 5.9-8.4-.2-4.8-4.2-8.8-9.1-8.8zm-.2 4.1c2.7-.1 5 2.1 5 4.8 0 1.4-.6 2.6-1.5 3.5-.1.1-.1.2-.1.3v1c0 .1.1.2.2.1 1.6-1.1 2.6-2.9 2.6-4.9 0-3.3-2.8-6.1-6.2-5.9-3.1.1-5.7 2.7-5.7 5.8 0 2.1 1 3.9 2.6 5 .1.1.2 0 .2-.1v-1c0-.1 0-.2-.1-.3-1-.9-1.6-2.2-1.5-3.6 0-2.6 2-4.6 4.5-4.7z" fill="#031268"/></svg>