<?xml version="1.0" encoding="utf-8"?>
<!-- Generator: Adobe Illustrator 22.1.0, SVG Export Plug-In . SVG Version: 6.00 Build 0)  -->
<svg version="1.1" id="Layer_1" xmlns="http://www.w3.org/2000/svg" xmlns:xlink="http://www.w3.org/1999/xlink" x="0px" y="0px"
	 viewBox="0 0 230 430" style="enable-background:new 0 0 230 430;" xml:space="preserve">
<style type="text/css">
	.st0{fill:#F7D054;}
	.st1{fill:#FDE89A;}
	.st2{fill:#031268;}
	.st3{fill:#92D3C2;}
	.st4{fill:#C2FDE9;}
	.st5{fill:#A29CD8;}
	.st6{fill:#CDCAE8;}
	.st7{fill:#68CCEA;}
	.st8{fill:#B3EFFF;}
	.st9{fill:#FFFFFF;}
	.st10{fill:#FDC0BD;stroke:#031268;stroke-width:12.2745;stroke-linecap:round;stroke-linejoin:round;stroke-miterlimit:10;}
	.st11{fill:none;}
</style>
<g>
	<g>
		<polygon class="st5" points="52.4,389.3 45,377 127.3,158.5 110.1,158.5 173.9,23.5 202.1,48.1 160.4,161 180.1,153.6 
			209.5,180.6 76.9,401.6 		"/>
		<polygon class="st6" points="85.7,36.8 171,26 122.5,155.4 178.8,152.4 41.6,381.9 73.9,214.7 20.5,220.1 		"/>
	</g>
	<path class="st2" d="M214.4,176.6c0-0.1,0-0.2,0-0.3c0-0.2,0-0.4-0.1-0.6c0-0.2-0.1-0.3-0.1-0.5c0-0.1-0.1-0.2-0.1-0.3v0
		c0,0,0,0,0-0.1c0-0.1,0-0.1-0.1-0.2c0-0.1-0.1-0.3-0.2-0.4c0,0,0-0.1,0-0.1c-0.1-0.2-0.2-0.3-0.2-0.5c0,0,0-0.1-0.1-0.1
		c-0.1-0.1-0.2-0.3-0.3-0.4c-0.1-0.2-0.3-0.3-0.5-0.5c-0.2-0.2-0.3-0.3-0.5-0.5l-0.1-0.1l-0.1,0l-29.2-24.3l-0.1-0.1
		c-0.1-0.1-0.2-0.2-0.4-0.3c-0.2-0.1-0.3-0.2-0.5-0.3c-0.2-0.1-0.3-0.2-0.5-0.2c-0.2-0.1-0.3-0.1-0.5-0.2c-0.1,0-0.3-0.1-0.4-0.1
		c-0.1,0-0.3-0.1-0.4-0.1c0,0-0.1,0-0.2,0c-0.1,0-0.3,0-0.4-0.1c0,0,0,0,0,0c-0.1,0-0.3,0-0.4,0c0,0,0,0,0,0c-0.3,0-0.6,0-0.9,0
		c-0.4,0-0.9,0.1-1.3,0.3c0.4-0.1,0.8-0.2,1.3-0.3c0.1,0,0.2,0,0.3,0l-7.5,0.4l35.2-94c0.2-0.5,0.3-0.9,0.3-1.4c0,0,0,0,0,0
		c1.1-2.5,0.4-5.5-1.9-7.3l-29.5-22.6c-0.4-0.3-0.8-0.5-1.2-0.7c0,0,0,0-0.1,0c-1.1-0.6-2.4-0.8-3.6-0.7L85,30.7
		c-2.3,0.3-4.2,1.8-5,4L14.7,218.1c-0.7,2-0.3,4.2,1,5.8c1.3,1.7,3.4,2.5,5.4,2.3l45.2-4.6L35.5,380.8c-0.5,2.4,0.5,4.7,2.4,6.1
		c0.2,0.2,0.4,0.4,0.6,0.7c1.7,1.6,20,16.6,28.1,23.2c0,0,0.1,0.1,0.1,0.1c0.3,0.4,0.8,0.7,1.2,0.9c1,0.6,2.1,0.9,3.1,0.9
		c2.1,0,4.1-1.1,5.3-3l137-229.2c0.1-0.1,0.1-0.2,0.2-0.3c0.1-0.1,0.1-0.2,0.2-0.4c0.1-0.1,0.1-0.2,0.2-0.4c0.1-0.1,0.1-0.3,0.2-0.4
		c0-0.1,0-0.1,0-0.2c0-0.1,0.1-0.2,0.1-0.3c0.1-0.2,0.1-0.3,0.1-0.5c0,0,0,0,0,0c0-0.2,0-0.3,0.1-0.5c0,0,0,0,0-0.1
		c0-0.2,0-0.3,0-0.5C214.4,176.8,214.4,176.7,214.4,176.6z M169.1,116.8l-18.4-18.3c-0.1-0.1-0.2-0.2-0.2-0.2l10.1-26.9l18.5,18.8
		L169.1,116.8z M164.3,129.4l-6.7,18l-26.1,1.4l14.2-38L164.3,129.4z M173.9,35.8L193.7,51l-9.9,26.4l-18.5-18.8L173.9,35.8z
		 M80,215.9c0.4-1.9-0.2-3.9-1.5-5.3c-1.2-1.3-2.8-2-4.5-2c-0.2,0-0.4,0-0.6,0L29.5,213L90.2,42.4l71.5-9l-45,119.9
		c-0.7,1.9-0.4,4.1,0.8,5.8c1.2,1.7,3.2,2.6,5.3,2.5l30.1-1.6l13.4-0.7l1.4-0.1l-3.6,6l-12.5,20.9L54.2,348.8L80,215.9z M69.5,397.2
		l-20-16.5l15.8-26.4l18.4,18.4c0.1,0.1,0.2,0.2,0.2,0.2L69.5,397.2z M90.4,362.1l-18.7-18.7l15.6-26l18.7,18.7L90.4,362.1z
		 M112.4,325.3l-18.1-18.1c-0.2-0.2-0.4-0.4-0.7-0.6l13.8-23l18.7,18.7L112.4,325.3z M132.7,291.5L114,272.8l12.8-21.4l18.7,18.7
		L132.7,291.5z M151.9,259.2l-18.7-18.7l11.9-19.9l18.7,18.7L151.9,259.2z M170.3,228.5l-17.8-17.8c-0.3-0.3-0.6-0.5-0.9-0.7
		l13.8-23l18.7,18.7L170.3,228.5z M190.5,194.7l-18.4-18.4c-0.1-0.1-0.2-0.2-0.3-0.2l8.6-14.3l19.9,16.6L190.5,194.7z"/>
	<path class="st2" d="M176.9,146.6c0.4-0.1,0.8-0.2,1.3-0.3C177.7,146.3,177.3,146.4,176.9,146.6z M178.8,146.3c-0.1,0-0.2,0-0.4,0
		c-0.1,0-0.2,0-0.3,0c0.3,0,0.6,0,0.9,0C179,146.3,178.9,146.3,178.8,146.3z"/>
	<path class="st2" d="M178.2,146.3c-0.4,0-0.9,0.1-1.3,0.3C177.3,146.4,177.7,146.3,178.2,146.3z"/>
	<path class="st2" d="M179,146.3c-0.3,0-0.6,0-0.9,0c0.1,0,0.2,0,0.3,0c0.1,0,0.2,0,0.4,0C178.9,146.3,179,146.3,179,146.3z"/>
	<path class="st2" d="M178.2,146.3c-0.4,0-0.9,0.1-1.3,0.3C177.3,146.4,177.7,146.3,178.2,146.3z"/>
	<path class="st2" d="M179,146.3c-0.3,0-0.6,0-0.9,0c0.1,0,0.2,0,0.3,0c0.1,0,0.2,0,0.4,0C178.9,146.3,179,146.3,179,146.3z"/>
</g>
</svg>
