<svg version="1.1" id="Layer_1" xmlns="http://www.w3.org/2000/svg" x="0" y="0" viewBox="0 0 230 430" xml:space="preserve"><style>.st2{fill:#031268}</style><path fill="#a29cd8" d="M52.4 389.3L45 377l82.3-218.5h-17.2l63.8-135 28.2 24.6L160.4 161l19.7-7.4 29.4 27-132.6 221z"/><path fill="#cdcae8" d="M85.7 36.8L171 26l-48.5 129.4 56.3-3L41.6 381.9l32.3-167.2-53.4 5.4z"/><path class="st2" d="M214.4 176.6v-.3c0-.2 0-.4-.1-.6 0-.2-.1-.3-.1-.5 0-.1-.1-.2-.1-.3v-.1c0-.1 0-.1-.1-.2 0-.1-.1-.3-.2-.4v-.1c-.1-.2-.2-.3-.2-.5 0 0 0-.1-.1-.1-.1-.1-.2-.3-.3-.4-.1-.2-.3-.3-.5-.5l-.5-.5-.1-.1h-.1l-29.2-24.3-.1-.1c-.1-.1-.2-.2-.4-.3-.2-.1-.3-.2-.5-.3-.2-.1-.3-.2-.5-.2-.2-.1-.3-.1-.5-.2-.1 0-.3-.1-.4-.1-.1 0-.3-.1-.4-.1h-.2c-.1 0-.3 0-.4-.1h-1.3c-.4 0-.9.1-1.3.3.4-.1.8-.2 1.3-.3h.3l-7.5.4 35.2-94c.2-.5.3-.9.3-1.4 1.1-2.5.4-5.5-1.9-7.3L175 21.4c-.4-.3-.8-.5-1.2-.7h-.1c-1.1-.6-2.4-.8-3.6-.7L85 30.7c-2.3.3-4.2 1.8-5 4L14.7 218.1c-.7 2-.3 4.2 1 5.8 1.3 1.7 3.4 2.5 5.4 2.3l45.2-4.6-30.8 159.2c-.5 2.4.5 4.7 2.4 6.1.2.2.4.4.6.7 1.7 1.6 20 16.6 28.1 23.2l.1.1c.3.4.8.7 1.2.9 1 .6 2.1.9 3.1.9 2.1 0 4.1-1.1 5.3-3l137-229.2c.1-.1.1-.2.2-.3.1-.1.1-.2.2-.4.1-.1.1-.2.2-.4.1-.1.1-.3.2-.4v-.2c0-.1.1-.2.1-.3.1-.2.1-.3.1-.5s0-.3.1-.5v-.1-.5-.3zm-45.3-59.8l-18.4-18.3-.2-.2 10.1-26.9 18.5 18.8-10 26.6zm-4.8 12.6l-6.7 18-26.1 1.4 14.2-38 18.6 18.6zm9.6-93.6L193.7 51l-9.9 26.4-18.5-18.8 8.6-22.8zM80 215.9c.4-1.9-.2-3.9-1.5-5.3-1.2-1.3-2.8-2-4.5-2h-.6L29.5 213 90.2 42.4l71.5-9-45 119.9c-.7 1.9-.4 4.1.8 5.8 1.2 1.7 3.2 2.6 5.3 2.5l30.1-1.6 13.4-.7 1.4-.1-3.6 6-12.5 20.9-97.4 162.7L80 215.9zM69.5 397.2l-20-16.5 15.8-26.4 18.4 18.4.2.2-14.4 24.3zm20.9-35.1l-18.7-18.7 15.6-26 18.7 18.7-15.6 26zm22-36.8l-18.1-18.1c-.2-.2-.4-.4-.7-.6l13.8-23 18.7 18.7-13.7 23zm20.3-33.8L114 272.8l12.8-21.4 18.7 18.7-12.8 21.4zm19.2-32.3l-18.7-18.7 11.9-19.9 18.7 18.7-11.9 19.9zm18.4-30.7l-17.8-17.8c-.3-.3-.6-.5-.9-.7l13.8-23 18.7 18.7-13.8 22.8zm20.2-33.8l-18.4-18.4c-.1-.1-.2-.2-.3-.2l8.6-14.3 19.9 16.6-9.8 16.3z"/><path class="st2" d="M176.9 146.6c.4-.1.8-.2 1.3-.3-.5 0-.9.1-1.3.3zm1.9-.3h-.7.7z"/><path class="st2" d="M178.2 146.3c-.4 0-.9.1-1.3.3.4-.2.8-.3 1.3-.3zM179 146.3h-.9H179z"/><path class="st2" d="M178.2 146.3c-.4 0-.9.1-1.3.3.4-.2.8-.3 1.3-.3zM179 146.3h-.9H179z"/></svg>