<svg version="1.1" id="Layer_1" xmlns="http://www.w3.org/2000/svg" x="0" y="0" viewBox="0 0 550 420" xml:space="preserve"><style>.st2{fill:#031268}.st8{fill:#b3efff}</style><path d="M492.3 49.8l29.2 34.7c6.3 6.9 9.8 13.4 9.8 22.7v252c0 8.4-6.8 15.1-15.1 15.1h-424c-15.3 0-32.5-5.8-43.7-16.3L26 339.5l130.1-19.6L492.3 49.8z" fill="#68ccea"/><path class="st8" d="M496.9 60.8v266.4c0 8.4-6.8 15.1-15.1 15.1H139.4c-8.4 0-15.1-6.8-15.1-15.1V60.8c0-8.4 6.8-15.1 15.1-15.1h342.3c8.4 0 15.2 6.8 15.2 15.1z"/><path class="st2" d="M130.4 327.3v-11.1h-12.3v11.1c0 3.2.7 6.3 2 9h19.3c-4.9 0-9-4.1-9-9z"/><path d="M467.3 86.1v185.2c0 5.8-5.7 10.5-12.7 10.5h-288c-7 0-12.7-4.7-12.7-10.5V86.1c0-5.8 5.7-10.5 12.7-10.5h288c7 0 12.7 4.7 12.7 10.5z" fill="#fff"/><path class="st2" d="M454.6 287.9h-288c-10.4 0-18.9-7.5-18.9-16.7V86.1c0-9.2 8.5-16.7 18.9-16.7h288c10.4 0 18.9 7.5 18.9 16.7v185.2c0 9.2-8.5 16.6-18.9 16.6zm-288-206.2c-3.9 0-6.6 2.3-6.6 4.4v185.2c0 2.1 2.7 4.4 6.6 4.4h288c3.9 0 6.6-2.3 6.6-4.4V86.1c0-2.1-2.7-4.4-6.6-4.4h-288z"/><path class="st8" d="M18.7 310v17.2c0 8.4 6.8 15.1 15.1 15.1h447.9c8.4 0 15.1-6.8 15.1-15.1V310H18.7z"/><path class="st2" d="M526.1 80.5L497.9 47c-.7-.9-1.5-1.7-2.4-2.4-3.7-3.2-8.5-5.1-13.8-5.1H139.4c-11.7 0-21.3 9.5-21.3 21.3v243.1H18.7c-3.4 0-6.1 2.7-6.1 6.1v17.2c0 8.4 4.8 15.6 11.9 19.1l19.8 16.3c11.8 11 30.1 17.8 47.8 17.8h424c11.7 0 21.3-9.5 21.3-21.3v-252c0-9.9-3.4-17.9-11.3-26.6zM130.4 60.8c0-5 4-9 9-9h342.3c5 0 9 4 9 9v243.1H130.4V60.8zM33.9 336.3c-5 0-9-4-9-9v-11.1h186.8c3.9 6.8 11.2 11 19.1 11h54c8 0 15.2-4.3 19.1-11h186.8v11.1c0 5-4 9-9 9H33.9zm58.2 31.9c-14.5 0-30-5.7-39.6-14.6-.1-.1-.2-.2-.3-.2l-5.8-4.8h49.2l22.2 19.6H92.1zm44.3 0c-.2-.2-.3-.4-.5-.5l-21.7-19.1h53.9l22.3 19.6h-54zm72.5 0c-.2-.2-.3-.4-.5-.5l-21.7-19.1h45.6l22.3 19.6h-45.7zm64.1 0c-.2-.2-.3-.4-.5-.5l-21.7-19.1h53.5l22.3 19.6H273zm72.1 0c-.2-.2-.3-.4-.5-.5l-21.7-19.1h49l22.2 19.6h-49zm67.5 0c-.2-.2-.3-.4-.5-.5l-21.7-19.1h44.1l22.2 19.6h-44.1zm62.7 0c-.2-.2-.3-.4-.5-.5l-21.7-19.1h28.6c4.3 0 8.3-1.3 11.7-3.5l21.6 23.2h-39.7zm49.8-9c0 .6 0 1.1-.1 1.6l-23.6-25.3c1.1-2.5 1.7-5.3 1.7-8.2v-32.9l22 24.9.1.1v39.8zm0-58.4l-22.1-25v-41.7l22 24.9.1.1v41.7zm0-60.2l-22.1-25v-38.8l22 24.9.1.1v38.8zm0-57.3l-22.1-25V122l22 24.9.1.1v36.3zm0-54.8l-21.7-24.6c-.1-.1-.2-.3-.4-.4V72.1l13.8 16.4.2.2c5.9 6.4 8.2 11.6 8.2 18.5v21.3z"/><path class="st2" d="M496.9 45.9c-.4-.5-.9-.9-1.4-1.2.9.7 1.7 1.5 2.4 2.4l-1-1.2zM358.5 132.7h-162c-3.4 0-6.1-2.7-6.1-6.1s2.7-6.1 6.1-6.1h162c3.4 0 6.1 2.7 6.1 6.1s-2.7 6.1-6.1 6.1zM397.7 186.7H196.4c-3.4 0-6.1-2.7-6.1-6.1s2.7-6.1 6.1-6.1h201.3c3.4 0 6.1 2.7 6.1 6.1s-2.7 6.1-6.1 6.1zM329 240.8H196.4c-3.4 0-6.1-2.7-6.1-6.1s2.7-6.1 6.1-6.1H329c3.4 0 6.1 2.7 6.1 6.1s-2.7 6.1-6.1 6.1z"/></svg>