<?xml version="1.0" encoding="utf-8"?>
<!-- Generator: Adobe Illustrator 22.1.0, SVG Export Plug-In . SVG Version: 6.00 Build 0)  -->
<svg version="1.1" id="Layer_1" xmlns="http://www.w3.org/2000/svg" xmlns:xlink="http://www.w3.org/1999/xlink" x="0px" y="0px"
	 viewBox="0 0 550 420" style="enable-background:new 0 0 550 420;" xml:space="preserve">
<style type="text/css">
	.st0{fill:#F7D054;}
	.st1{fill:#FDE89A;}
	.st2{fill:#031268;}
	.st3{fill:#92D3C2;}
	.st4{fill:#C2FDE9;}
	.st5{fill:#A29CD8;}
	.st6{fill:#CDCAE8;}
	.st7{fill:#68CCEA;}
	.st8{fill:#B3EFFF;}
	.st9{fill:#FFFFFF;}
	.st10{fill:#FDC0BD;stroke:#031268;stroke-width:12.2745;stroke-linecap:round;stroke-linejoin:round;stroke-miterlimit:10;}
	.st11{fill:none;}
</style>
<g>
	<g>
		<path class="st7" d="M492.3,49.8l29.2,34.7c6.3,6.9,9.8,13.4,9.8,22.7v252c0,8.4-6.8,15.1-15.1,15.1h-424
			c-15.3,0-32.5-5.8-43.7-16.3l-22.5-18.5l130.1-19.6L492.3,49.8z"/>
		<path class="st8" d="M496.9,60.8v266.4c0,8.4-6.8,15.1-15.1,15.1H139.4c-8.4,0-15.1-6.8-15.1-15.1V60.8c0-8.4,6.8-15.1,15.1-15.1
			h342.3C490.1,45.7,496.9,52.5,496.9,60.8z"/>
	</g>
	<path class="st2" d="M130.4,327.3v-11.1h-12.3v11.1c0,3.2,0.7,6.3,2,9h19.3C134.5,336.3,130.4,332.2,130.4,327.3z"/>
	<path class="st9" d="M467.3,86.1v185.2c0,5.8-5.7,10.5-12.7,10.5h-288c-7,0-12.7-4.7-12.7-10.5V86.1c0-5.8,5.7-10.5,12.7-10.5h288
		C461.6,75.6,467.3,80.3,467.3,86.1z"/>
	<path class="st2" d="M454.6,287.9h-288c-10.4,0-18.9-7.5-18.9-16.7V86.1c0-9.2,8.5-16.7,18.9-16.7h288c10.4,0,18.9,7.5,18.9,16.7
		v185.2C473.5,280.5,465,287.9,454.6,287.9z M166.6,81.7c-3.9,0-6.6,2.3-6.6,4.4v185.2c0,2.1,2.7,4.4,6.6,4.4h288
		c3.9,0,6.6-2.3,6.6-4.4V86.1c0-2.1-2.7-4.4-6.6-4.4H166.6z"/>
	<path class="st8" d="M18.7,310v17.2c0,8.4,6.8,15.1,15.1,15.1h447.9c8.4,0,15.1-6.8,15.1-15.1V310H18.7z"/>
	<g>
		<path class="st2" d="M526.1,80.5L497.9,47c-0.7-0.9-1.5-1.7-2.4-2.4c-3.7-3.2-8.5-5.1-13.8-5.1H139.4c-11.7,0-21.3,9.5-21.3,21.3
			v243.1H18.7c-3.4,0-6.1,2.7-6.1,6.1v17.2c0,8.4,4.8,15.6,11.9,19.1l19.8,16.3c11.8,11,30.1,17.8,47.8,17.8h424
			c11.7,0,21.3-9.5,21.3-21.3v-252C537.4,97.2,534,89.2,526.1,80.5z M130.4,60.8c0-5,4-9,9-9h342.3c5,0,9,4,9,9v243.1H130.4V60.8z
			 M33.9,336.3c-5,0-9-4-9-9v-11.1h186.8c3.9,6.8,11.2,11,19.1,11h54c8,0,15.2-4.3,19.1-11h186.8v11.1c0,5-4,9-9,9H33.9z
			 M92.1,368.2c-14.5,0-30-5.7-39.6-14.6c-0.1-0.1-0.2-0.2-0.3-0.2l-5.8-4.8h49.2l22.2,19.6H92.1z M136.4,368.2
			c-0.2-0.2-0.3-0.4-0.5-0.5l-21.7-19.1h53.9l22.3,19.6H136.4z M208.9,368.2c-0.2-0.2-0.3-0.4-0.5-0.5l-21.7-19.1h45.6l22.3,19.6
			H208.9z M273,368.2c-0.2-0.2-0.3-0.4-0.5-0.5l-21.7-19.1h53.5l22.3,19.6H273z M345.1,368.2c-0.2-0.2-0.3-0.4-0.5-0.5l-21.7-19.1
			h49l22.2,19.6H345.1z M412.6,368.2c-0.2-0.2-0.3-0.4-0.5-0.5l-21.7-19.1h44.1l22.2,19.6H412.6z M475.3,368.2
			c-0.2-0.2-0.3-0.4-0.5-0.5l-21.7-19.1h28.6c4.3,0,8.3-1.3,11.7-3.5l21.6,23.2H475.3z M525.1,359.2c0,0.6,0,1.1-0.1,1.6l-23.6-25.3
			c1.1-2.5,1.7-5.3,1.7-8.2v-32.9l22,24.9c0,0,0.1,0.1,0.1,0.1V359.2z M525.1,300.8l-22.1-25v-41.7l22,24.9c0,0,0.1,0.1,0.1,0.1
			V300.8z M525.1,240.6L503,215.6v-38.8l22,24.9c0,0,0.1,0.1,0.1,0.1V240.6z M525.1,183.3L503,158.3V122l22,24.9
			c0,0,0.1,0.1,0.1,0.1V183.3z M525.1,128.5l-21.7-24.6c-0.1-0.1-0.2-0.3-0.4-0.4V72.1l13.8,16.4c0.1,0.1,0.1,0.1,0.2,0.2
			c5.9,6.4,8.2,11.6,8.2,18.5V128.5z"/>
		<path class="st2" d="M496.9,45.9c-0.4-0.5-0.9-0.9-1.4-1.2c0.9,0.7,1.7,1.5,2.4,2.4L496.9,45.9z"/>
	</g>
	<path class="st2" d="M358.5,132.7h-162c-3.4,0-6.1-2.7-6.1-6.1s2.7-6.1,6.1-6.1h162c3.4,0,6.1,2.7,6.1,6.1S361.9,132.7,358.5,132.7
		z"/>
	<path class="st2" d="M397.7,186.7H196.4c-3.4,0-6.1-2.7-6.1-6.1s2.7-6.1,6.1-6.1h201.3c3.4,0,6.1,2.7,6.1,6.1
		S401.1,186.7,397.7,186.7z"/>
	<path class="st2" d="M329,240.8H196.4c-3.4,0-6.1-2.7-6.1-6.1s2.7-6.1,6.1-6.1H329c3.4,0,6.1,2.7,6.1,6.1S332.4,240.8,329,240.8z"
		/>
</g>
</svg>
