<svg version="1.1" id="Layer_1" xmlns="http://www.w3.org/2000/svg" x="0" y="0" viewBox="0 0 450 350" xml:space="preserve"><style>.st2{fill:#031268}.st7{fill:#68ccea}.st9{fill:#fff}</style><path class="st7" d="M370.5 87.8v186.9c0 7.2-5.9 13.1-13.1 13.1H118l252.5-200z"/><path class="st7" d="M402.4 75.3v230.9c0 7.2-5.9 13.1-13.1 13.1H92.6c-1.4 0-2.7-.2-4-.6-.6-.2-1.1-.4-1.7-.7l-2.9-3.2-22.9-25 49.1 2.5 5.6-4.4h241.5c7.2 0 13.1-5.9 13.1-13.1V47.5l27 18.1.4-.3c2.8 2.5 4.6 6 4.6 10z"/><path class="st7" d="M370.5 87v187.8c0 7.2-5.9 13.1-13.1 13.1H115.8L370.4 87h.1z"/><path d="M370.5 47.5l-2.6-1.7 2.5 41.2V87.9l.1 1.2v185.7c0 7.2-5.9 13.1-13.1 13.1H60.7c-7.2 0-13.1-5.9-13.1-13.1V43.9c0-7.2 5.9-13.1 13.1-13.1h296.6c7.2 0 13.1 5.9 13.1 13.1v3.6z" fill="#b3efff"/><path class="st2" d="M401.9 60.7c-.2-.2-.5-.4-.8-.5l-28.6-28.4c-.2-.2-.5-.5-.8-.7-3.5-4-8.7-6.5-14.4-6.5H60.7c-10.6 0-19.3 8.6-19.3 19.2v230.9c0 5.8 2.6 11.1 6.7 14.6.1.2.3.4.5.6l30.9 30.5c.3.3.7.6 1 .8 3.4 2.7 7.6 4.2 12 4.2h296.6c10.6 0 19.3-8.6 19.3-19.2V75.3c.1-5.6-2.3-10.9-6.5-14.6zm-348.2 214V43.9c0-3.9 3.1-7 7-7h296.6c3.9 0 7 3.1 7 7v230.9c0 3.8-3.1 7-7 7H60.7c-3.8-.1-7-3.2-7-7.1zm38.9 38.4c-1.9 0-3.6-.7-4.9-2-.1-.2-.3-.3-.5-.4L70.3 294h23.2c.2.2.3.4.5.5l20.4 18.6H92.6zm40.1 0l-21-19.1h30.7l20.8 19.1h-30.5zm48.6 0l-.6-.6-20.2-18.5h30.8l20.9 19.1h-30.9zm49.1 0l-.6-.6-20.2-18.5h35.8l20.9 19.1h-35.9zm54 0c-.2-.2-.3-.4-.5-.6L263.6 294h40.9l20.8 19.1h-40.9zm104.9 0h-46c-.2-.2-.3-.4-.5-.6L322.6 294h34.8c3.2 0 6.3-.8 9-2.2l23.1 21.3h-.2zm7-10.5l-21.4-19.8c1.2-2.5 1.8-5.2 1.8-8.1v-24.9l19.2 17.7c.1.1.3.2.4.4v34.7zm0-51.3l-19.6-18.1v-30l19.2 17.7c.1.1.3.2.4.4v30zm0-46.7l-19.6-18.1v-32.4l19.2 17.7c.1.1.3.2.4.4v32.4zm0-49.1l-19.6-18.1V105l19.2 17.7c.1.1.3.2.4.4v32.4zm0-49l-19.6-18.1V53.1l17.6 17.5c.2.2.5.4.7.6.9 1.2 1.3 2.6 1.3 4.1v31.2z"/><path class="st7" d="M88.7 318.6l-.5.6L87 318c.5.2 1.1.5 1.7.6zM87 318c-1.4-.6-2.6-1.5-3.7-2.6l.7-.6 3 3.2z"/><path class="st2" d="M113.1 72.1v174.4c0 3.4-2.8 6.1-6.1 6.1-3.4 0-6.1-2.8-6.1-6.1V72.1c0-3.4 2.7-6.1 6.1-6.1 3.3 0 6.1 2.7 6.1 6.1z"/><path class="st9" d="M124.2 123.1c0 9.5-7.8 17.3-17.3 17.3s-17.3-7.8-17.3-17.3 7.8-17.3 17.3-17.3c9.5.1 17.3 7.8 17.3 17.3z"/><path class="st2" d="M106.9 93.6c-16.3 0-29.5 13.2-29.5 29.5s13.2 29.5 29.5 29.5 29.5-13.2 29.5-29.5c.1-16.2-13.2-29.5-29.5-29.5zm0 46.8c-9.5 0-17.3-7.8-17.3-17.3s7.8-17.3 17.3-17.3 17.3 7.7 17.3 17.3c0 9.6-7.8 17.3-17.3 17.3zM309.7 252.7c-3.4 0-6.1-2.7-6.1-6.1V72.1c0-3.4 2.7-6.1 6.1-6.1s6.1 2.7 6.1 6.1v174.4c0 3.4-2.7 6.2-6.1 6.2z"/><path class="st9" d="M326.9 123.1c0 9.5-7.8 17.3-17.3 17.3s-17.3-7.8-17.3-17.3 7.8-17.3 17.3-17.3c9.6.1 17.3 7.8 17.3 17.3z"/><path class="st2" d="M309.7 93.6c-16.3 0-29.5 13.2-29.5 29.5s13.2 29.5 29.5 29.5 29.5-13.2 29.5-29.5c0-16.2-13.2-29.5-29.5-29.5zm0 46.8c-9.5 0-17.3-7.8-17.3-17.3s7.8-17.3 17.3-17.3 17.3 7.7 17.3 17.3c-.1 9.6-7.8 17.3-17.3 17.3z"/><g><path class="st2" d="M215.2 72.1v174.4c0 3.4-2.8 6.1-6.1 6.1-3.4 0-6.1-2.8-6.1-6.1V72.1c0-3.4 2.8-6.1 6.1-6.1s6.1 2.7 6.1 6.1z"/></g><circle class="st9" cx="209" cy="195.5" r="23.4"/><path class="st2" d="M209 225c-16.3 0-29.5-13.3-29.5-29.5S192.8 166 209 166s29.5 13.3 29.5 29.5S225.3 225 209 225zm0-46.8c-9.5 0-17.3 7.7-17.3 17.3 0 9.5 7.7 17.3 17.3 17.3s17.3-7.7 17.3-17.3c0-9.5-7.7-17.3-17.3-17.3z"/></svg>