<?xml version="1.0" encoding="utf-8"?>
<!-- Generator: Adobe Illustrator 22.1.0, SVG Export Plug-In . SVG Version: 6.00 Build 0)  -->
<svg version="1.1" id="Layer_1" xmlns="http://www.w3.org/2000/svg" xmlns:xlink="http://www.w3.org/1999/xlink" x="0px" y="0px"
	 viewBox="0 0 450 350" style="enable-background:new 0 0 450 350;" xml:space="preserve">
<style type="text/css">
	.st0{fill:#F7D054;}
	.st1{fill:#FDE89A;}
	.st2{fill:#031268;}
	.st3{fill:#92D3C2;}
	.st4{fill:#C2FDE9;}
	.st5{fill:#A29CD8;}
	.st6{fill:#CDCAE8;}
	.st7{fill:#68CCEA;}
	.st8{fill:#B3EFFF;}
	.st9{fill:#FFFFFF;}
	.st10{fill:#FDC0BD;stroke:#031268;stroke-width:12.2745;stroke-linecap:round;stroke-linejoin:round;stroke-miterlimit:10;}
	.st11{fill:none;}
</style>
<g>
	<g>
		<path class="st7" d="M370.5,87.8v186.9c0,7.2-5.9,13.1-13.1,13.1H118L370.5,87.8L370.5,87.8z"/>
		<path class="st7" d="M402.4,75.3v230.9c0,7.2-5.9,13.1-13.1,13.1H92.6c-1.4,0-2.7-0.2-4-0.6c-0.6-0.2-1.1-0.4-1.7-0.7l-2.9-3.2
			l-22.9-25l49.1,2.5l5.6-4.4h241.5c7.2,0,13.1-5.9,13.1-13.1V47.5l27,18.1l0.4-0.3C400.6,67.8,402.4,71.3,402.4,75.3z"/>
		<path class="st7" d="M370.5,87v187.8c0,7.2-5.9,13.1-13.1,13.1H115.8L370.4,87L370.5,87z"/>
		<path class="st8" d="M370.5,47.5l-2.6-1.7l2.5,41.2l0,0.2l0,0.7l0.1,1.2v185.7c0,7.2-5.9,13.1-13.1,13.1H60.7
			c-7.2,0-13.1-5.9-13.1-13.1V43.9c0-7.2,5.9-13.1,13.1-13.1h296.6c7.2,0,13.1,5.9,13.1,13.1V47.5z"/>
	</g>
	<g>
		<path class="st2" d="M401.9,60.7c-0.2-0.2-0.5-0.4-0.8-0.5l-28.6-28.4c-0.2-0.2-0.5-0.5-0.8-0.7c-3.5-4-8.7-6.5-14.4-6.5H60.7
			c-10.6,0-19.3,8.6-19.3,19.2v230.9c0,5.8,2.6,11.1,6.7,14.6c0.1,0.2,0.3,0.4,0.5,0.6l30.9,30.5c0.3,0.3,0.7,0.6,1,0.8
			c3.4,2.7,7.6,4.2,12,4.2h296.6c10.6,0,19.3-8.6,19.3-19.2V75.3C408.5,69.7,406.1,64.4,401.9,60.7z M53.7,274.7V43.9
			c0-3.9,3.1-7,7-7h296.6c3.9,0,7,3.1,7,7v230.9c0,3.8-3.1,7-7,7H60.7C56.9,281.7,53.7,278.6,53.7,274.7z M92.6,313.1
			c-1.9,0-3.6-0.7-4.9-2c-0.1-0.2-0.3-0.3-0.5-0.4l0,0L70.3,294h23.2c0.2,0.2,0.3,0.4,0.5,0.5l20.4,18.6H92.6z M132.7,313.1
			l-21-19.1h30.7l20.8,19.1H132.7z M181.3,313.1c-0.2-0.2-0.4-0.4-0.6-0.6L160.5,294h30.8l20.9,19.1H181.3z M230.4,313.1
			c-0.2-0.2-0.4-0.4-0.6-0.6L209.6,294h35.8l20.9,19.1H230.4z M284.4,313.1c-0.2-0.2-0.3-0.4-0.5-0.6L263.6,294h40.9l20.8,19.1
			H284.4z M389.3,313.1h-46c-0.2-0.2-0.3-0.4-0.5-0.6L322.6,294h34.8c3.2,0,6.3-0.8,9-2.2l23.1,21.3
			C389.4,313.1,389.3,313.1,389.3,313.1z M396.3,302.6l-21.4-19.8c1.2-2.5,1.8-5.2,1.8-8.1v-24.9l19.2,17.7c0.1,0.1,0.3,0.2,0.4,0.4
			V302.6z M396.3,251.3l-19.6-18.1v-30l19.2,17.7c0.1,0.1,0.3,0.2,0.4,0.4V251.3z M396.3,204.6l-19.6-18.1v-32.4l19.2,17.7
			c0.1,0.1,0.3,0.2,0.4,0.4V204.6z M396.3,155.5l-19.6-18.1V105l19.2,17.7c0.1,0.1,0.3,0.2,0.4,0.4V155.5z M396.3,106.5l-19.6-18.1
			V53.1l17.6,17.5c0.2,0.2,0.5,0.4,0.7,0.6c0.9,1.2,1.3,2.6,1.3,4.1V106.5z"/>
	</g>
	<path class="st7" d="M88.7,318.6l-0.5,0.6L87,318C87.5,318.2,88.1,318.5,88.7,318.6z"/>
	<path class="st7" d="M87,318c-1.4-0.6-2.6-1.5-3.7-2.6l0.7-0.6L87,318z"/>
	<g>
		<path class="st2" d="M113.1,72.1v174.4c0,3.4-2.8,6.1-6.1,6.1c-3.4,0-6.1-2.8-6.1-6.1V72.1c0-3.4,2.7-6.1,6.1-6.1
			C110.3,66,113.1,68.7,113.1,72.1z"/>
	</g>
	<path class="st9" d="M124.2,123.1c0,9.5-7.8,17.3-17.3,17.3c-9.5,0-17.3-7.8-17.3-17.3c0-9.5,7.8-17.3,17.3-17.3
		C116.4,105.9,124.2,113.6,124.2,123.1z"/>
	<path class="st2" d="M106.9,93.6c-16.3,0-29.5,13.2-29.5,29.5c0,16.3,13.2,29.5,29.5,29.5c16.3,0,29.5-13.2,29.5-29.5
		C136.5,106.9,123.2,93.6,106.9,93.6z M106.9,140.4c-9.5,0-17.3-7.8-17.3-17.3c0-9.5,7.8-17.3,17.3-17.3c9.5,0,17.3,7.7,17.3,17.3
		C124.2,132.7,116.4,140.4,106.9,140.4z"/>
	<g>
		<path class="st2" d="M309.7,252.7c-3.4,0-6.1-2.7-6.1-6.1V72.1c0-3.4,2.7-6.1,6.1-6.1s6.1,2.7,6.1,6.1v174.4
			C315.8,249.9,313.1,252.7,309.7,252.7z"/>
	</g>
	<path class="st9" d="M326.9,123.1c0,9.5-7.8,17.3-17.3,17.3c-9.5,0-17.3-7.8-17.3-17.3c0-9.5,7.8-17.3,17.3-17.3
		C319.2,105.9,326.9,113.6,326.9,123.1z"/>
	<path class="st2" d="M309.7,93.6c-16.3,0-29.5,13.2-29.5,29.5c0,16.3,13.2,29.5,29.5,29.5c16.3,0,29.5-13.2,29.5-29.5
		C339.2,106.9,326,93.6,309.7,93.6z M309.7,140.4c-9.5,0-17.3-7.8-17.3-17.3c0-9.5,7.8-17.3,17.3-17.3c9.5,0,17.3,7.7,17.3,17.3
		C326.9,132.7,319.2,140.4,309.7,140.4z"/>
	<g>
		<path class="st2" d="M215.2,72.1v174.4c0,3.4-2.8,6.1-6.1,6.1c-3.4,0-6.1-2.8-6.1-6.1V72.1c0-3.4,2.8-6.1,6.1-6.1
			C212.4,66,215.2,68.7,215.2,72.1z"/>
	</g>
	<circle class="st9" cx="209" cy="195.5" r="23.4"/>
	<path class="st2" d="M209,225c-16.3,0-29.5-13.3-29.5-29.5s13.3-29.5,29.5-29.5s29.5,13.3,29.5,29.5S225.3,225,209,225z M209,178.2
		c-9.5,0-17.3,7.7-17.3,17.3c0,9.5,7.7,17.3,17.3,17.3s17.3-7.7,17.3-17.3C226.3,186,218.6,178.2,209,178.2z"/>
</g>
</svg>
