<svg version="1.1" id="Layer_1" xmlns="http://www.w3.org/2000/svg" x="0" y="0" viewBox="0 0 370 350" xml:space="preserve"><style>.st2{fill:#031268}</style><path d="M349.3 96.6c-7.2-20.1-21-35.8-38.9-44.2-12.2-5.8-25.9-8.8-39.6-8.8-30.4 0-58.6 14.6-71.7 37.3l-2 3.3-1.7-2.9C182.3 58.6 154.1 44 123.7 44c-13.7 0-27.4 3-39.6 8.8C66.3 61.2 52.5 76.9 45.3 97c-8.4 23.4-7.1 50.7 3.5 73 24.4 51.6 140 153.1 144.9 157.4.9.8 2.2 1.1 3.4 1.1h.7c1.2-.1 2.3-.8 3.2-1.6 6.8-5.9 120.5-106.1 144.7-157.3 10.6-22.4 12-49.6 3.6-73z" fill="#92d3c2"/><path d="M324.7 74.5c-7.2-20.1-21-35.8-38.9-44.2-12.2-5.8-25.9-8.8-39.6-8.8-30.4 0-58.6 14.6-71.7 37.3l-2 3.3-1.7-2.9c-13.1-22.7-41.3-37.3-71.7-37.3-13.7 0-27.4 3-39.6 8.8C41.8 39.1 28 54.8 20.7 74.9c-8.4 23.4-7.1 50.7 3.5 73 24.4 51.6 140 153.1 144.9 157.4.9.8 2.2 1.1 3.4 1.1h.7c1.2-.1 2.3-.8 3.2-1.6 6.8-5.9 120.5-106.1 144.7-157.3 10.7-22.4 12-49.6 3.6-73z" fill="#c2fde9"/><path class="st2" d="M355.1 94.5c-7-19.6-19.9-35.3-36.6-44.9-7.9-10.8-18.1-19.3-30-24.9-13-6.1-27.6-9.4-42.2-9.4-30.2 0-58.4 13.6-73.7 35.2-15.3-21.3-43.4-34.8-73.4-34.8C84.6 15.7 70 19 57 25.1c-19.3 9.1-34.3 26-42 47.7-8.9 24.9-7.5 53.9 3.7 77.7C42.9 201.8 152.6 299 165 309.9c.2.2.4.3.6.5 12 11.1 20.9 19 24 21.6 1.9 1.7 4.6 2.7 7.5 2.7.5 0 1 0 1.4-.1 2.4-.2 4.8-1.4 6.7-3.2C218 320.1 327 223.6 351.3 172.2c11.3-23.8 12.7-52.8 3.8-77.7zM172.5 300.1c-6.8-6-34.4-30.5-64.2-60.1-32.8-32.6-56.6-59.8-70-79.9-3.6-5.5-6.5-10.4-8.6-14.8-9.9-20.9-11.1-46.5-3.3-68.3 6.7-18.6 19.3-33 35.7-40.7 11.4-5.4 24.1-8.2 37-8.2 15.9 0 31 4.2 43.4 11.6 8.9 5.3 16.4 12.3 21.7 20.5.5.7.9 1.5 1.3 2.2l1.7 2.9c.5.9 1.3 1.7 2.2 2.2.9.5 2 .8 3 .8s2-.2 2.9-.7c1-.5 1.8-1.3 2.4-2.3l2-3.4c.8-1.5 1.8-2.9 2.8-4.3 13-18.3 37.4-29.9 63.6-29.9 12.8 0 25.6 2.8 37 8.2 2.1 1 4.2 2.1 6.2 3.4 5.7 3.5 10.8 7.8 15.3 12.9 1.9 2.2 3.7 4.5 5.4 6.9 3.6 5.3 6.6 11.2 8.8 17.5 7.8 21.9 6.6 47.4-3.3 68.3-11.3 23.8-43.1 59.2-73.9 90.1l-1.4 1.4c-32.9 33.1-64.4 60.8-67.7 63.7zm24.6 22.1c-2.5-2.2-8-7.1-15.4-13.8 4.6-4 15.6-13.8 29.7-27L226 296c-15.8 14.6-27.2 24.7-28.9 26.2zm37.8-34.6L220.3 273c7.9-7.4 16.4-15.7 25.1-24.3l14.6 14.6c-8.7 8.7-17.3 16.9-25.1 24.3zm33.8-33L254.1 240c7.3-7.4 14.7-15.1 21.7-22.7l14.7 14.7c-7.1 7.6-14.5 15.2-21.8 22.6zm30.1-31.7l-14.7-14.7c7.7-8.6 14.9-17.1 21.3-25.3l14.7 14.7c-6.3 8.1-13.6 16.7-21.3 25.3zm41.4-56c-2.9 6.2-7.3 13.3-12.7 20.8L312.8 173c5.9-8.2 10.7-16 14-22.9.7-1.4 1.3-2.8 1.9-4.3l14.4 14.4c-.9 2.3-1.8 4.6-2.9 6.7zm6.6-20.2l-13.5-13.5-.3-.3c4.7-17.9 4.5-37.3-.7-55 4.7 6.1 8.5 13.1 11.2 20.8 5.4 15.1 6.5 32.1 3.3 48z"/><path class="st2" d="M241.7 235l-1.4 1.4c.2-.3.4-.6.7-.8.2-.3.5-.5.7-.6z"/></svg>