<?xml version="1.0" encoding="utf-8"?>
<!-- Generator: Adobe Illustrator 22.1.0, SVG Export Plug-In . SVG Version: 6.00 Build 0)  -->
<svg version="1.1" id="Layer_1" xmlns="http://www.w3.org/2000/svg" xmlns:xlink="http://www.w3.org/1999/xlink" x="0px" y="0px"
	 viewBox="0 0 370 350" style="enable-background:new 0 0 370 350;" xml:space="preserve">
<style type="text/css">
	.st0{fill:#F7D054;}
	.st1{fill:#FDE89A;}
	.st2{fill:#031268;}
	.st3{fill:#92D3C2;}
	.st4{fill:#C2FDE9;}
	.st5{fill:#A29CD8;}
	.st6{fill:#CDCAE8;}
	.st7{fill:#68CCEA;}
	.st8{fill:#B3EFFF;}
	.st9{fill:#FFFFFF;}
	.st10{fill:#FDC0BD;stroke:#031268;stroke-width:12.2745;stroke-linecap:round;stroke-linejoin:round;stroke-miterlimit:10;}
	.st11{fill:none;}
</style>
<g>
	<g>
		<path class="st3" d="M349.3,96.6c-7.2-20.1-21-35.8-38.9-44.2c-12.2-5.8-25.9-8.8-39.6-8.8c-30.4,0-58.6,14.6-71.7,37.3l-2,3.3
			l-1.7-2.9C182.3,58.6,154.1,44,123.7,44c-13.7,0-27.4,3-39.6,8.8C66.3,61.2,52.5,76.9,45.3,97c-8.4,23.4-7.1,50.7,3.5,73
			c24.4,51.6,140,153.1,144.9,157.4c0.9,0.8,2.2,1.1,3.4,1.1c0.2,0,0.5,0,0.7,0c1.2-0.1,2.3-0.8,3.2-1.6
			c6.8-5.9,120.5-106.1,144.7-157.3C356.3,147.2,357.7,120,349.3,96.6z"/>
		<path class="st4" d="M324.7,74.5c-7.2-20.1-21-35.8-38.9-44.2c-12.2-5.8-25.9-8.8-39.6-8.8c-30.4,0-58.6,14.6-71.7,37.3l-2,3.3
			l-1.7-2.9c-13.1-22.7-41.3-37.3-71.7-37.3c-13.7,0-27.4,3-39.6,8.8C41.8,39.1,28,54.8,20.7,74.9c-8.4,23.4-7.1,50.7,3.5,73
			c24.4,51.6,140,153.1,144.9,157.4c0.9,0.8,2.2,1.1,3.4,1.1c0.2,0,0.5,0,0.7,0c1.2-0.1,2.3-0.8,3.2-1.6
			c6.8-5.9,120.5-106.1,144.7-157.3C331.8,125.1,333.1,97.9,324.7,74.5z"/>
	</g>
	<path class="st2" d="M355.1,94.5c-7-19.6-19.9-35.3-36.6-44.9c-7.9-10.8-18.1-19.3-30-24.9c-13-6.1-27.6-9.4-42.2-9.4
		c-30.2,0-58.4,13.6-73.7,35.2c-15.3-21.3-43.4-34.8-73.4-34.8C84.6,15.7,70,19,57,25.1c-19.3,9.1-34.3,26-42,47.7
		c-8.9,24.9-7.5,53.9,3.7,77.7C42.9,201.8,152.6,299,165,309.9c0.2,0.2,0.4,0.3,0.6,0.5c12,11.1,20.9,19,24,21.6
		c1.9,1.7,4.6,2.7,7.5,2.7c0.5,0,1,0,1.4-0.1c2.4-0.2,4.8-1.4,6.7-3.2C218,320.1,327,223.6,351.3,172.2
		C362.6,148.4,364,119.4,355.1,94.5z M172.5,300.1c-6.8-6-34.4-30.5-64.2-60.1c-32.8-32.6-56.6-59.8-70-79.9
		c-3.6-5.5-6.5-10.4-8.6-14.8c-9.9-20.9-11.1-46.5-3.3-68.3c6.7-18.6,19.3-33,35.7-40.7c11.4-5.4,24.1-8.2,37-8.2
		c15.9,0,31,4.2,43.4,11.6c8.9,5.3,16.4,12.3,21.7,20.5c0.5,0.7,0.9,1.5,1.3,2.2l1.7,2.9c0.5,0.9,1.3,1.7,2.2,2.2
		c0.9,0.5,2,0.8,3,0.8c1,0,2-0.2,2.9-0.7c1-0.5,1.8-1.3,2.4-2.3l2-3.4c0.8-1.5,1.8-2.9,2.8-4.3c13-18.3,37.4-29.9,63.6-29.9
		c12.8,0,25.6,2.8,37,8.2c2.1,1,4.2,2.1,6.2,3.4c5.7,3.5,10.8,7.8,15.3,12.9c1.9,2.2,3.7,4.5,5.4,6.9c3.6,5.3,6.6,11.2,8.8,17.5
		c7.8,21.9,6.6,47.4-3.3,68.3c-11.3,23.8-43.1,59.2-73.9,90.1c-0.5,0.5-1,1-1.4,1.4C207.3,269.5,175.8,297.2,172.5,300.1
		L172.5,300.1z M197.1,322.2c-2.5-2.2-8-7.1-15.4-13.8c4.6-4,15.6-13.8,29.7-27l14.6,14.6C210.2,310.6,198.8,320.7,197.1,322.2z
		 M234.9,287.6L220.3,273c7.9-7.4,16.4-15.7,25.1-24.3l14.6,14.6C251.3,272,242.7,280.2,234.9,287.6z M268.7,254.6L254.1,240
		c7.3-7.4,14.7-15.1,21.7-22.7l14.7,14.7C283.4,239.6,276,247.2,268.7,254.6z M298.8,222.9l-14.7-14.7c7.7-8.6,14.9-17.1,21.3-25.3
		l14.7,14.7C313.8,205.7,306.5,214.3,298.8,222.9z M340.2,166.9c-2.9,6.2-7.3,13.3-12.7,20.8L312.8,173c5.9-8.2,10.7-16,14-22.9
		c0.7-1.4,1.3-2.8,1.9-4.3l14.4,14.4C342.2,162.5,341.3,164.8,340.2,166.9z M346.8,146.7l-13.5-13.5c-0.1-0.1-0.2-0.2-0.3-0.3
		c4.7-17.9,4.5-37.3-0.7-55c4.7,6.1,8.5,13.1,11.2,20.8C348.9,113.8,350,130.8,346.8,146.7z"/>
	<path class="st2" d="M241.7,235c-0.5,0.5-1,1-1.4,1.4c0.2-0.3,0.4-0.6,0.7-0.8C241.2,235.3,241.5,235.1,241.7,235z"/>
</g>
</svg>
