<?xml version="1.0" encoding="utf-8"?>
<!-- Generator: Adobe Illustrator 22.1.0, SVG Export Plug-In . SVG Version: 6.00 Build 0)  -->
<svg version="1.1" id="Layer_1" xmlns="http://www.w3.org/2000/svg" xmlns:xlink="http://www.w3.org/1999/xlink" x="0px" y="0px"
	 viewBox="0 0 1670 560" style="enable-background:new 0 0 1670 560;" xml:space="preserve">
<style type="text/css">
	.st0{fill:#FBA28C;}
	.st1{fill:#FCEACF;}
	.st2{fill:#031268;}
	.st3{fill:#FFFFFF;}
</style>
<g>
	<g>
		<g>
			<g>
				<path class="st0" d="M582.9,93.2v360.3c0,13.2-10.7,23.9-23.9,23.9H92.7c-9.1,0-18-3.2-25-9.1l-46.2-38.7
					c-1.1-1-1.3-2.7-0.3-3.8c1-1.1,2.7-1.3,3.8-0.3l0.4,0.4L533.9,29.1c-0.9-1.1-0.7-2.8,0.4-3.7c1.1-1,2.8-0.8,3.8,0.3l36.1,42.9
					c0,0,0,0,0,0C579.8,75.6,582.9,84.3,582.9,93.2z"/>
			</g>
			<g>
				<path class="st1" d="M544.2,41.7v373.1c0,13.2-10.7,23.9-23.9,23.9H234.7c-11.2,19.5-25.8,36.9-43.5,51.6
					c-14.3,11.9-30.6,22-48.5,30.2c-30.4,13.9-54.5,17.2-55.5,17.3c-0.1,0-0.2,0-0.4,0c-1,0-1.9-0.5-2.4-1.4c-0.5-1-0.4-2.2,0.3-3
					c14.4-16.5,23.3-34.6,26.5-53.8c2.3-13.4,1.7-27.2-1.6-40.8H40.9C27.7,438.7,17,428,17,414.8V41.7c0-13.2,10.7-23.9,23.9-23.9
					h479.4C533.5,17.8,544.2,28.5,544.2,41.7z"/>
			</g>
		</g>
		<g>
			<g>
				<path class="st2" d="M582,64.5C581.9,64.5,581.9,64.5,582,64.5l-35.5-42.3c-5.2-6.7-13.3-11-22.4-11H35.8
					c-15.6,0-28.4,12.7-28.4,28.3v380c0,9.5,4.7,17.9,11.8,23l41.3,34.5c7.8,6.6,17.8,10.2,28,10.2h14.6
					C99.7,505.1,91,522,77.5,537.6c-1.8,2.1-2.2,5.1-0.8,7.6c1.2,2.2,3.5,3.6,5.9,3.6c0.3,0,0.6,0,0.9-0.1c1.1-0.1,26.2-3.6,57.7-18
					c18.5-8.5,35.4-19,50.2-31.3c4.7-3.9,9.2-8,13.4-12.2h358.5c15.6,0,28.3-12.7,28.3-28.3V92C591.7,82,588.3,72.3,582,64.5z
					 M552.4,50.3l19.2,22.8c4.3,5.3,6.7,12.1,6.7,18.9v30.2l-25.1-28.4c-0.2-0.3-0.5-0.5-0.8-0.7V50.3z M552.4,113.3l25.9,29.3v47.2
					l-25.6-29.1c-0.1-0.1-0.1-0.2-0.2-0.2V113.3z M88.5,473.8c-7.1,0-13.9-2.5-19.3-7l-22.5-18.8h56.1c1.8,8.6,2.5,17.3,2.1,25.9
					H88.5z M183,488.9c-13.9,11.5-29.7,21.4-47,29.4c-14.3,6.6-27.3,10.7-37,13.3c9.3-14,15.3-28.9,17.9-44.5
					c2.6-15.6,1.9-31.6-2.2-47.5c-0.4-1.4-1.1-2.6-2.2-3.5l-0.2-0.2c-1.2-1-2.7-1.6-4.3-1.6H35.8c-3.1,0-5.9-0.9-8.3-2.5
					c-0.2-0.1-0.3-0.2-0.5-0.3c-3.7-2.7-6.1-7.1-6.1-12v-380c0-8.2,6.7-14.8,14.9-14.8H524c4.2,0,8.1,1.8,10.8,4.7
					c0.4,0.4,0.8,0.9,1.1,1.4c1.8,2.5,2.9,5.5,2.9,8.8v380c0,4.9-2.4,9.3-6.2,12c0,0,0,0,0,0s0,0,0,0s0,0,0,0c-0.5,0.4-1,0.7-1.5,1
					c0,0,0,0,0,0c-2.1,1.2-4.6,1.8-7.1,1.8H231.8c-2,0-3.8,0.9-5.1,2.3l-0.6,0.7c-0.3,0.3-0.5,0.7-0.8,1.1
					C214.5,457.6,200.2,474.6,183,488.9z M217.2,473.8c6.8-8.1,12.9-16.8,18.2-25.9h9.4l29.3,25.9H217.2z M294.6,473.8
					c-0.1-0.1-0.2-0.2-0.4-0.4l-28.9-25.5h50.8l29.3,25.9H294.6z M365.8,473.8l-29.3-25.9h53.3l29.3,25.9H365.8z M439.5,473.8
					c-0.1-0.1-0.2-0.2-0.4-0.4l-28.9-25.5h52.4l29.3,25.9H439.5z M563.4,473.8h-51.3c-0.2-0.3-0.5-0.6-0.9-0.9l-28.3-25h41
					c3.7,0,7.3-0.7,10.5-2l31.4,27.7C565.1,473.7,564.3,473.8,563.4,473.8z M578.2,458.9c0,2.2-0.5,4.4-1.4,6.3l-31.1-27.4
					c4.1-4.9,6.6-11.3,6.6-18.2v-29.3l25.9,29.3V458.9z M578.2,399.1l-25.6-29.1c-0.1-0.1-0.1-0.2-0.2-0.2v-50.5l25.9,29.3V399.1z
					 M578.2,328.3l-25.1-28.4c-0.2-0.3-0.5-0.5-0.8-0.7v-49.3l25.9,29.3V328.3z M578.2,258.6l-25.6-29.1c-0.1-0.1-0.1-0.2-0.2-0.2
					v-48.5l25.9,29.3V258.6z"/>
				<path class="st2" d="M535.9,30.7l-1.1-1.3c0,0,0,0,0-0.1C535.2,29.8,535.6,30.3,535.9,30.7z"/>
			</g>
			<g>
				<g>
					<path class="st0" d="M188,269.8c0,14.6-11.9,26.4-26.4,26.4c-14.6,0-26.4-11.9-26.4-26.4c0-14.6,11.9-26.4,26.4-26.4
						C176.1,243.3,188,255.2,188,269.8z"/>
				</g>
				<g>
					<path class="st0" d="M424.2,269.8c0,14.6-11.9,26.4-26.4,26.4c-14.6,0-26.4-11.9-26.4-26.4c0-14.6,11.9-26.4,26.4-26.4
						C412.3,243.3,424.2,255.2,424.2,269.8z"/>
				</g>
				<path class="st2" d="M279.7,281.4c-21.7,0-39.4-17.7-39.4-39.4c0-3.7,3-6.7,6.7-6.7c3.7,0,6.7,3,6.7,6.7
					c0,14.3,11.6,25.9,25.9,25.9c14.3,0,25.9-11.6,25.9-25.9c0-3.7,3-6.7,6.7-6.7c3.7,0,6.7,3,6.7,6.7
					C319.1,263.7,301.4,281.4,279.7,281.4z"/>
				<g>
					<path class="st2" d="M220,191c0,15.9-13,28.9-28.9,28.9c-15.9,0-28.9-13-28.9-28.9c0-15.9,13-28.9,28.9-28.9
						C207,162.1,220,175.1,220,191z"/>
				</g>
				<ellipse class="st3" cx="197.2" cy="186.1" rx="6.2" ry="7.4"/>
				<g>
					<path class="st2" d="M397.1,191c0,15.9-13,28.9-28.9,28.9c-15.9,0-28.9-13-28.9-28.9c0-15.9,13-28.9,28.9-28.9
						C384.2,162.1,397.1,175.1,397.1,191z"/>
				</g>
				<ellipse class="st3" cx="374.4" cy="186.1" rx="6.2" ry="7.4"/>
			</g>
		</g>
	</g>
	<g>
		<path class="st2" d="M703.3,283.6c-13.2,0-34.7-5.2-47.7-16.3c-8.8-7.4-12.7-17.1-14.9-32c0,0-0.3-2.5-0.3-3.6
			c0-3.3,1.9-5.2,5-6.6c11-4.1,22.3-5.8,24.8-6.1c3.6,0,4.7,2.5,5.2,4.4c3.9,13.8,5,26.7,23.1,26.7c12.9,0,21.5-7.4,21.5-14.6
			c0-22.3-66.4-26.4-66.4-72.7c0-29.2,26.2-65,54.8-65c19,0,66.4,15.7,66.4,41.1c0,8.5-5.5,22.9-8.5,28.1c-1.9,3.9-3.3,4.7-6.6,5
			c-4.1,0.6-20.9,0.6-25.3,0.6c-3.9,0-5.2-1.4-5.2-3.6s3.9-16.3,3.9-24.5c0-10.7-5.8-14.3-11.8-14.3c-14.3,0-25.6,19.6-25.6,30.3
			c0,28.4,65.6,27.8,65.6,70.8C761.1,259,732.2,283.6,703.3,283.6z"/>
		<path class="st2" d="M892.5,196.5c0,24.5-14.9,85.7-59.2,85.7c-12.4,0-35.8-6.9-48.5-20.4c-7.7-8.3-11.6-20.9-11.6-36.4
			c0-31.4,18.5-84.9,56.5-84.9c14.3,0,40.2,10.7,52.1,22.6c7.2,7.4,10.5,20.7,10.7,32V196.5z M852.3,193.2
			c0-12.4-3.9-20.7-11.3-20.7c-15.2,0-28.1,36.1-28.1,58.1c0,11,3.6,19,11.6,19C841.3,249.7,852.3,214.1,852.3,193.2z"/>
		<path class="st2" d="M983.2,122.1c-8,0-16.3,7.7-16.3,16.3c0,2.2,1.4,3.3,4.1,3.3c5,0,10.5,0,13.8,0.3c3.6,0.3,4.7,3.3,4.7,6.3
			c-0.3,6.3-1.1,17.4-2.2,24c-0.6,2.8-3.3,5-6.3,5c-3.9,0-11-0.3-17.6-0.3c-2.8,0-5.2,1.9-5.8,4.4c-5.8,30-12.7,68.6-17.4,95.9
			c-0.6,2.5-3,4.7-5.8,4.7c-5.5,0-23.7-5-28.1-7.2c-1.9-1.1-3.9-2.5-3.9-6.1c0-5,14.3-86.5,14.3-87.9c0-3-0.6-4.7-2.8-4.7h-3.9
			c-3.3,0-5.2-1.9-5.2-4.7c0-2.8,0-16,0.6-22c0-3,2.2-6.1,6.3-6.1h6.1c3.3,0,5.5-2.5,6.1-5.5c5.5-27.8,17.1-52.9,51.5-52.9
			c8.3,0,18.5,2.2,26.4,6.1c2.2,1.4,3.3,3,3.3,5.2c0,2.8-6.1,23.4-6.6,25.1c-0.6,1.9-2.5,2.8-4.4,2.8
			C992.5,124,987.3,122.1,983.2,122.1z"/>
		<path class="st2" d="M1073,177.2h-20.1c-3.3,0-5,2.2-5.8,5c-4.4,20.7-7.7,37.7-7.7,44.9c0,11.6,4.4,17.9,14.6,22.9
			c1.7,0.8,3,2.2,3,4.7c0,0.8-0.3,1.7-0.6,2.2c-3,6.3-8.3,15.7-13.8,22c-1.7,1.7-3.9,2.8-6.3,2.8c-1.4,0-3-0.6-3-0.6
			c-22.6-7.2-35-26.4-35-47.4c0-17.9,7.7-52.3,7.7-53.7c0-1.9-1.1-3.3-3-3.3h-2.8c-2.8,0-5-2.2-5.2-5.2v-11.3c0-4.1,0-8,0.3-11
			c0.3-2.8,2.2-5.5,5.8-5.8l9.6-0.8c3.3-0.3,4.4-2.5,5.2-5.2c4.7-17.4,9.6-32.8,12.4-39.7c0.8-2.5,3-3.9,5.5-3.9c7.7,0,22,5,28.9,8
			c2.2,0.8,3.6,2.5,3.6,4.7c0,4.7-8.5,27.5-8.5,31.4c0,1.9,1.1,3.6,3.3,3.9c5.5,0,11.6,0,15.2,0.3c3.6,0.3,5,3.3,5,6.3v2.2
			c0,6.9-0.8,16.3-1.7,21.8C1079.1,175.3,1076.3,177.2,1073,177.2z"/>
		<path class="st2" d="M1182.4,283.6c-13.2,0-34.7-5.2-47.7-16.3c-8.8-7.4-12.7-17.1-14.9-32c0,0-0.3-2.5-0.3-3.6
			c0-3.3,1.9-5.2,5-6.6c11-4.1,22.3-5.8,24.8-6.1c3.6,0,4.7,2.5,5.2,4.4c3.9,13.8,5,26.7,23.1,26.7c12.9,0,21.5-7.4,21.5-14.6
			c0-22.3-66.4-26.4-66.4-72.7c0-29.2,26.2-65,54.8-65c19,0,66.4,15.7,66.4,41.1c0,8.5-5.5,22.9-8.5,28.1c-1.9,3.9-3.3,4.7-6.6,5
			c-4.1,0.6-20.9,0.6-25.3,0.6c-3.9,0-5.2-1.4-5.2-3.6s3.9-16.3,3.9-24.5c0-10.7-5.8-14.3-11.8-14.3c-14.3,0-25.6,19.6-25.6,30.3
			c0,28.4,65.6,27.8,65.6,70.8C1240.2,259,1211.3,283.6,1182.4,283.6z"/>
		<path class="st2" d="M1331.1,213.9c0,1.1,0.6,1.9,1.1,2.8c8.5,14.1,19.8,29.8,29.2,38.8c1.1,1.1,1.9,2.8,1.9,4.1
			c0,1.1-0.6,2.5-1.4,3.3c-8.5,8.3-19.8,15.2-26.7,18.2c0,0-1.9,0.8-3.6,0.8c-2.2,0-4.1-0.8-5.5-2.2c-8.5-8.3-19-30.6-24.2-44.9
			c-0.8-2.8-2.2-5.2-4.4-5.2c-2.5,0-3.9,2.2-4.4,5.2c-2.2,14.1-4.4,28.7-6.1,42.4c-0.3,2.8-2.5,4.4-5,4.4c-5.2,0-22.9-5.2-27.3-7.2
			c-3.6-1.7-4.4-4.7-4.4-7.4c1.4-42.4,23.1-146,35-172.7c0.8-2.2,3-3.9,5.8-3.9c4.1,0,25.1,6.3,29.2,8c2.5,0.8,3.6,3,3.6,5.2
			c0,0.8-0.8,3-0.8,3c-5.8,16-14.1,46.3-22.3,86.2c0,0-0.3,1.1-0.3,1.7c0,1.7,0.8,2.5,1.9,2.5c1.7,0,3.9-2.2,5.8-4.4
			c14.3-16.5,32.2-37.7,39.9-47.4c1.1-1.4,2.8-2.2,4.4-2.2c1.7,0,3,1.1,3,1.1c5.5,3.9,15.4,13.2,20.7,20.1c0.8,1.1,1.1,2.5,1.1,3.6
			c0,1.7-0.8,3-2.2,4.4c-7.7,6.6-25.3,23.4-41.6,37.5C1332.2,210.8,1331.1,212.2,1331.1,213.9z"/>
		<path class="st2" d="M1407.2,281.9c-4.4,0-22.6-5-27.6-7.2c-3-1.4-4.4-3.9-4.4-6.6c0-23.1,13.5-98.6,20.9-121.5
			c0.8-2.5,3.6-4.4,6.6-4.4c3.9,0,20.4,3.9,28.4,6.9c2.2,0.8,3.9,2.5,3.9,5c0,0.6-0.3,1.9-0.3,1.9c-8.5,35.8-18.5,88.7-22.3,121.2
			C1411.9,280,1409.7,281.9,1407.2,281.9z M1448.2,105.6c0,14.6-10.2,25.1-26.7,25.1c-16,0-23.1-10.7-23.1-23.4
			c0-9.6,6.1-17.1,11.8-21.8c1.9-1.4,6.1-2.8,8.8-2.8C1432.3,82.7,1448.2,89.3,1448.2,105.6z"/>
		<path class="st2" d="M1467,281.6c-4.4,0-22.3-5.2-27.3-7.4c-2.8-1.1-4.4-3.6-4.4-7.4c1.4-42.4,23.1-145.5,34.4-172.5
			c1.1-2.2,3.3-3.9,6.1-3.9c5.2,0,25.3,6.1,29.2,8c2.2,1.1,3.6,3,3.6,5.2c0,0.8-0.3,1.7-0.3,1.7c-9.4,26.4-28.1,102.8-36.4,171.9
			C1471.6,279.7,1469.4,281.6,1467,281.6z"/>
		<path class="st2" d="M1526.2,281.6c-4.4,0-22.3-5.2-27.3-7.4c-2.8-1.1-4.4-3.6-4.4-7.4c1.4-42.4,23.1-145.5,34.4-172.5
			c1.1-2.2,3.3-3.9,6.1-3.9c5.2,0,25.3,6.1,29.2,8c2.2,1.1,3.6,3,3.6,5.2c0,0.8-0.3,1.7-0.3,1.7c-9.4,26.4-28.1,102.8-36.4,171.9
			C1530.9,279.7,1528.7,281.6,1526.2,281.6z"/>
		<path class="st2" d="M1602,140.8c15.2,0,60.6,14.1,60.6,34.4c0,7.2-5.5,18.2-7.7,21.2c-2.2,3-5,3.9-7.4,4.1h-20.7
			c-2.8,0-4.1-1.9-4.1-3.6c0-2.2,2.8-9.4,2.8-14.9c0-7.4-3.3-11.3-7.4-11.3c-9.4,0-17.6,15.4-17.6,22.9c0,19,52.3,14.6,52.3,46.3
			c0,19.8-19.6,42.4-47.7,42.4c-16.5,0-40.8-8-49.6-16c-2.5-2.2-3-4.1-3-5.5c0-3.6,3.3-15.7,5.8-20.9c1.1-2.5,2.2-3.3,3.9-3.3
			c1.7,0,2.8,1.1,3.3,1.1c9.6,5.2,23.1,12.4,34.4,12.4c6.3,0,12.1-2.2,12.7-6.6c0-11.6-53.2-12.9-53.2-48.8
			C1559.3,172.8,1579.4,140.8,1602,140.8z"/>
		<path class="st2" d="M712.9,390.1h-45.4v38.6h53v11.7h-66.8V331.6h66.1v11.8h-52.3v35h45.4V390.1z"/>
		<path class="st2" d="M813.1,440.4H799l-42.2-81.3l-0.2,81.3h-14V331.6h14.1l42.2,81.2l0.2-81.2h14V440.4z"/>
		<path class="st2" d="M907.2,426.2c-4.6,5.4-9.8,9.4-15.8,12c-5.9,2.6-12.4,3.9-19.5,3.8c-4.5,0-8.6-0.7-12.4-2.1
			c-3.8-1.3-7.1-3.1-10.1-5.5c-3-2.3-5.6-5-7.8-8.2c-2.2-3.1-4.1-6.5-5.6-10.2c-1.5-3.7-2.7-7.5-3.4-11.5c-0.8-4-1.2-8.1-1.2-12.1
			v-12.6c0-4,0.4-8.1,1.1-12.1c0.7-4,1.7-7.9,3.1-11.5c1.4-3.7,3.1-7.1,5.2-10.3c2.1-3.2,4.6-5.9,7.5-8.2c2.9-2.3,6.2-4.1,9.9-5.5
			c3.7-1.3,7.8-2,12.4-2c5.1,0,9.8,0.8,14.1,2.4c4.3,1.6,8,3.8,11.2,6.7c3.2,2.9,5.8,6.4,7.7,10.5c1.9,4.1,3.1,8.7,3.6,13.8h-13.7
			c-0.5-3.1-1.4-6-2.5-8.7c-1.1-2.7-2.7-4.9-4.5-6.8c-1.9-1.9-4.1-3.4-6.7-4.4c-2.6-1.1-5.6-1.6-9-1.6c-3.3,0-6.2,0.6-8.7,1.7
			c-2.5,1.1-4.8,2.6-6.7,4.5c-1.9,1.9-3.5,4.1-4.7,6.6c-1.2,2.5-2.3,5.2-3.1,8c-0.8,2.8-1.4,5.6-1.7,8.5c-0.3,2.9-0.5,5.7-0.5,8.4
			v12.8c0,2.7,0.3,5.6,0.7,8.5c0.4,2.9,1.1,5.8,2,8.6c0.9,2.8,2,5.4,3.4,7.9c1.4,2.5,3.1,4.7,5,6.6c2,1.9,4.2,3.4,6.8,4.5
			c2.6,1.1,5.5,1.7,8.8,1.8c1.9,0,3.9,0,5.9-0.2c2.1-0.2,4.1-0.6,6-1.2c1.9-0.6,3.8-1.4,5.5-2.4c1.7-1,3.1-2.4,4.3-4l0.1-24.4h-22.1
			v-11.7h35.3L907.2,426.2z"/>
		<path class="st2" d="M928.6,331.6h65.8v12h-26.1v84.8h26.1v12h-65.8v-12h25.5v-84.8h-25.5V331.6z"/>
		<path class="st2" d="M1088.6,440.4h-14.1l-42.2-81.3l-0.2,81.3h-14V331.6h14.1l42.2,81.2l0.2-81.2h14V440.4z"/>
		<path class="st2" d="M1172.2,390.1h-45.4v38.6h53v11.7h-66.8V331.6h66.1v11.8h-52.3v35h45.4V390.1z"/>
		<path class="st2" d="M1264,390.1h-45.4v38.6h53v11.7h-66.8V331.6h66.1v11.8h-52.3v35h45.4V390.1z"/>
		<path class="st2" d="M1332,396h-21.7v44.4h-13.8V331.6h31.9c5.1,0.1,9.9,0.8,14.3,2.2c4.5,1.3,8.4,3.4,11.8,6.1
			c3.4,2.7,6,6.1,7.9,10.1c1.9,4.1,2.9,8.8,2.9,14.3c0,3.5-0.5,6.8-1.5,9.7c-1,2.9-2.4,5.6-4.2,8c-1.8,2.4-3.9,4.5-6.4,6.4
			c-2.5,1.8-5.2,3.4-8.2,4.7l23.1,46.5l-0.1,0.9h-14.6L1332,396z M1310.3,384.7h18.5c3.1,0,6-0.5,8.7-1.5c2.7-0.9,5.1-2.3,7.2-4
			c2.1-1.7,3.7-3.9,4.9-6.4c1.2-2.5,1.8-5.4,1.8-8.7c0-3.5-0.6-6.5-1.7-9.2c-1.1-2.6-2.7-4.8-4.8-6.6c-2-1.8-4.5-3.1-7.3-4
			c-2.8-0.9-5.9-1.4-9.2-1.4h-18.2V384.7z"/>
		<path class="st2" d="M1387.9,331.6h65.8v12h-26.1v84.8h26.1v12h-65.8v-12h25.5v-84.8h-25.5V331.6z"/>
		<path class="st2" d="M1547.9,440.4h-14.1l-42.2-81.3l-0.2,81.3h-14V331.6h14.1l42.2,81.2l0.2-81.2h14V440.4z"/>
		<path class="st2" d="M1642,426.2c-4.6,5.4-9.8,9.4-15.8,12c-5.9,2.6-12.4,3.9-19.5,3.8c-4.5,0-8.6-0.7-12.4-2.1
			c-3.8-1.3-7.1-3.1-10.1-5.5c-3-2.3-5.6-5-7.8-8.2c-2.2-3.1-4.1-6.5-5.6-10.2c-1.5-3.7-2.7-7.5-3.4-11.5c-0.8-4-1.2-8.1-1.2-12.1
			v-12.6c0-4,0.4-8.1,1.1-12.1c0.7-4,1.7-7.9,3.1-11.5c1.4-3.7,3.1-7.1,5.2-10.3c2.1-3.2,4.6-5.9,7.5-8.2c2.9-2.3,6.2-4.1,9.9-5.5
			c3.7-1.3,7.8-2,12.4-2c5.1,0,9.8,0.8,14.1,2.4c4.3,1.6,8,3.8,11.2,6.7c3.2,2.9,5.8,6.4,7.7,10.5c1.9,4.1,3.1,8.7,3.6,13.8h-13.7
			c-0.5-3.1-1.4-6-2.5-8.7c-1.1-2.7-2.7-4.9-4.5-6.8c-1.9-1.9-4.1-3.4-6.7-4.4c-2.6-1.1-5.6-1.6-9-1.6c-3.3,0-6.2,0.6-8.7,1.7
			c-2.5,1.1-4.8,2.6-6.7,4.5c-1.9,1.9-3.5,4.1-4.7,6.6c-1.2,2.5-2.3,5.2-3.1,8c-0.8,2.8-1.4,5.6-1.7,8.5c-0.3,2.9-0.5,5.7-0.5,8.4
			v12.8c0,2.7,0.3,5.6,0.7,8.5c0.4,2.9,1.1,5.8,2,8.6c0.9,2.8,2,5.4,3.4,7.9c1.4,2.5,3.1,4.7,5,6.6c2,1.9,4.2,3.4,6.8,4.5
			c2.6,1.1,5.5,1.7,8.8,1.8c1.9,0,3.9,0,5.9-0.2c2.1-0.2,4.1-0.6,6-1.2c1.9-0.6,3.8-1.4,5.5-2.4c1.7-1,3.1-2.4,4.3-4l0.1-24.4h-22.1
			v-11.7h35.3L1642,426.2z"/>
	</g>
</g>
</svg>
