<svg id="Layer_1" xmlns="http://www.w3.org/2000/svg" viewBox="0 0 1670 560"><style>.st0{fill:#fba28c}.st2{fill:#031268}.st3{fill:#fff}</style><path class="st0" d="M582.9 93.2v360.3c0 13.2-10.7 23.9-23.9 23.9H92.7c-9.1 0-18-3.2-25-9.1l-46.2-38.7c-1.1-1-1.3-2.7-.3-3.8 1-1.1 2.7-1.3 3.8-.3l.4.4L533.9 29.1c-.9-1.1-.7-2.8.4-3.7 1.1-1 2.8-.8 3.8.3l36.1 42.9c5.6 7 8.7 15.7 8.7 24.6z"/><path d="M544.2 41.7v373.1c0 13.2-10.7 23.9-23.9 23.9H234.7c-11.2 19.5-25.8 36.9-43.5 51.6-14.3 11.9-30.6 22-48.5 30.2-30.4 13.9-54.5 17.2-55.5 17.3h-.4c-1 0-1.9-.5-2.4-1.4-.5-1-.4-2.2.3-3 14.4-16.5 23.3-34.6 26.5-53.8 2.3-13.4 1.7-27.2-1.6-40.8H40.9c-13.2-.1-23.9-10.8-23.9-24V41.7c0-13.2 10.7-23.9 23.9-23.9h479.4c13.2 0 23.9 10.7 23.9 23.9z" fill="#fceacf"/><g><path class="st2" d="M582 64.5c-.1 0-.1 0 0 0l-35.5-42.3c-5.2-6.7-13.3-11-22.4-11H35.8c-15.6 0-28.4 12.7-28.4 28.3v380c0 9.5 4.7 17.9 11.8 23L60.5 477c7.8 6.6 17.8 10.2 28 10.2h14.6C99.7 505.1 91 522 77.5 537.6c-1.8 2.1-2.2 5.1-.8 7.6 1.2 2.2 3.5 3.6 5.9 3.6.3 0 .6 0 .9-.1 1.1-.1 26.2-3.6 57.7-18 18.5-8.5 35.4-19 50.2-31.3 4.7-3.9 9.2-8 13.4-12.2h358.5c15.6 0 28.3-12.7 28.3-28.3V92c.1-10-3.3-19.7-9.6-27.5zm-29.6-14.2l19.2 22.8c4.3 5.3 6.7 12.1 6.7 18.9v30.2l-25.1-28.4c-.2-.3-.5-.5-.8-.7V50.3zm0 63l25.9 29.3v47.2l-25.6-29.1c-.1-.1-.1-.2-.2-.2v-47.2zM88.5 473.8c-7.1 0-13.9-2.5-19.3-7L46.7 448h56.1c1.8 8.6 2.5 17.3 2.1 25.9H88.5zm94.5 15.1c-13.9 11.5-29.7 21.4-47 29.4-14.3 6.6-27.3 10.7-37 13.3 9.3-14 15.3-28.9 17.9-44.5 2.6-15.6 1.9-31.6-2.2-47.5-.4-1.4-1.1-2.6-2.2-3.5l-.2-.2c-1.2-1-2.7-1.6-4.3-1.6H35.8c-3.1 0-5.9-.9-8.3-2.5-.2-.1-.3-.2-.5-.3-3.7-2.7-6.1-7.1-6.1-12v-380c0-8.2 6.7-14.8 14.9-14.8H524c4.2 0 8.1 1.8 10.8 4.7.4.4.8.9 1.1 1.4 1.8 2.5 2.9 5.5 2.9 8.8v380c0 4.9-2.4 9.3-6.2 12-.5.4-1 .7-1.5 1-2.1 1.2-4.6 1.8-7.1 1.8H231.8c-2 0-3.8.9-5.1 2.3l-.6.7c-.3.3-.5.7-.8 1.1-10.8 19.1-25.1 36.1-42.3 50.4zm34.2-15.1c6.8-8.1 12.9-16.8 18.2-25.9h9.4l29.3 25.9h-56.9zm77.4 0l-.4-.4-28.9-25.5h50.8l29.3 25.9h-50.8zm71.2 0l-29.3-25.9h53.3l29.3 25.9h-53.3zm73.7 0l-.4-.4-28.9-25.5h52.4l29.3 25.9h-52.4zm123.9 0h-51.3c-.2-.3-.5-.6-.9-.9l-28.3-25h41c3.7 0 7.3-.7 10.5-2l31.4 27.7c-.7.1-1.5.2-2.4.2zm14.8-14.9c0 2.2-.5 4.4-1.4 6.3l-31.1-27.4c4.1-4.9 6.6-11.3 6.6-18.2v-29.3l25.9 29.3v39.3zm0-59.8L552.6 370c-.1-.1-.1-.2-.2-.2v-50.5l25.9 29.3v50.5zm0-70.8l-25.1-28.4c-.2-.3-.5-.5-.8-.7v-49.3l25.9 29.3v49.1zm0-69.7l-25.6-29.1c-.1-.1-.1-.2-.2-.2v-48.5l25.9 29.3v48.5z"/><path class="st2" d="M535.9 30.7l-1.1-1.3v-.1c.4.5.8 1 1.1 1.4z"/><g><path class="st0" d="M188 269.8c0 14.6-11.9 26.4-26.4 26.4-14.6 0-26.4-11.9-26.4-26.4 0-14.6 11.9-26.4 26.4-26.4 14.5-.1 26.4 11.8 26.4 26.4zM424.2 269.8c0 14.6-11.9 26.4-26.4 26.4-14.6 0-26.4-11.9-26.4-26.4 0-14.6 11.9-26.4 26.4-26.4 14.5-.1 26.4 11.8 26.4 26.4z"/><path class="st2" d="M279.7 281.4c-21.7 0-39.4-17.7-39.4-39.4a6.7 6.7 0 0 1 13.4 0c0 14.3 11.6 25.9 25.9 25.9 14.3 0 25.9-11.6 25.9-25.9a6.7 6.7 0 0 1 13.4 0c.2 21.7-17.5 39.4-39.2 39.4zM220 191c0 15.9-13 28.9-28.9 28.9-15.9 0-28.9-13-28.9-28.9 0-15.9 13-28.9 28.9-28.9 15.9 0 28.9 13 28.9 28.9z"/><ellipse class="st3" cx="197.2" cy="186.1" rx="6.2" ry="7.4"/><path class="st2" d="M397.1 191c0 15.9-13 28.9-28.9 28.9-15.9 0-28.9-13-28.9-28.9 0-15.9 13-28.9 28.9-28.9 16 0 28.9 13 28.9 28.9z"/><ellipse class="st3" cx="374.4" cy="186.1" rx="6.2" ry="7.4"/></g></g><g><path class="st2" d="M703.3 283.6c-13.2 0-34.7-5.2-47.7-16.3-8.8-7.4-12.7-17.1-14.9-32 0 0-.3-2.5-.3-3.6 0-3.3 1.9-5.2 5-6.6 11-4.1 22.3-5.8 24.8-6.1 3.6 0 4.7 2.5 5.2 4.4 3.9 13.8 5 26.7 23.1 26.7 12.9 0 21.5-7.4 21.5-14.6 0-22.3-66.4-26.4-66.4-72.7 0-29.2 26.2-65 54.8-65 19 0 66.4 15.7 66.4 41.1 0 8.5-5.5 22.9-8.5 28.1-1.9 3.9-3.3 4.7-6.6 5-4.1.6-20.9.6-25.3.6-3.9 0-5.2-1.4-5.2-3.6s3.9-16.3 3.9-24.5c0-10.7-5.8-14.3-11.8-14.3-14.3 0-25.6 19.6-25.6 30.3 0 28.4 65.6 27.8 65.6 70.8-.2 27.7-29.1 52.3-58 52.3zM892.5 196.5c0 24.5-14.9 85.7-59.2 85.7-12.4 0-35.8-6.9-48.5-20.4-7.7-8.3-11.6-20.9-11.6-36.4 0-31.4 18.5-84.9 56.5-84.9 14.3 0 40.2 10.7 52.1 22.6 7.2 7.4 10.5 20.7 10.7 32v1.4zm-40.2-3.3c0-12.4-3.9-20.7-11.3-20.7-15.2 0-28.1 36.1-28.1 58.1 0 11 3.6 19 11.6 19 16.8.1 27.8-35.5 27.8-56.4zM983.2 122.1c-8 0-16.3 7.7-16.3 16.3 0 2.2 1.4 3.3 4.1 3.3 5 0 10.5 0 13.8.3 3.6.3 4.7 3.3 4.7 6.3-.3 6.3-1.1 17.4-2.2 24-.6 2.8-3.3 5-6.3 5-3.9 0-11-.3-17.6-.3-2.8 0-5.2 1.9-5.8 4.4-5.8 30-12.7 68.6-17.4 95.9-.6 2.5-3 4.7-5.8 4.7-5.5 0-23.7-5-28.1-7.2-1.9-1.1-3.9-2.5-3.9-6.1 0-5 14.3-86.5 14.3-87.9 0-3-.6-4.7-2.8-4.7H910c-3.3 0-5.2-1.9-5.2-4.7 0-2.8 0-16 .6-22 0-3 2.2-6.1 6.3-6.1h6.1c3.3 0 5.5-2.5 6.1-5.5 5.5-27.8 17.1-52.9 51.5-52.9 8.3 0 18.5 2.2 26.4 6.1 2.2 1.4 3.3 3 3.3 5.2 0 2.8-6.1 23.4-6.6 25.1-.6 1.9-2.5 2.8-4.4 2.8-1.6-.1-6.8-2-10.9-2zM1073 177.2h-20.1c-3.3 0-5 2.2-5.8 5-4.4 20.7-7.7 37.7-7.7 44.9 0 11.6 4.4 17.9 14.6 22.9 1.7.8 3 2.2 3 4.7 0 .8-.3 1.7-.6 2.2-3 6.3-8.3 15.7-13.8 22-1.7 1.7-3.9 2.8-6.3 2.8-1.4 0-3-.6-3-.6-22.6-7.2-35-26.4-35-47.4 0-17.9 7.7-52.3 7.7-53.7 0-1.9-1.1-3.3-3-3.3h-2.8c-2.8 0-5-2.2-5.2-5.2v-11.3c0-4.1 0-8 .3-11 .3-2.8 2.2-5.5 5.8-5.8l9.6-.8c3.3-.3 4.4-2.5 5.2-5.2 4.7-17.4 9.6-32.8 12.4-39.7.8-2.5 3-3.9 5.5-3.9 7.7 0 22 5 28.9 8 2.2.8 3.6 2.5 3.6 4.7 0 4.7-8.5 27.5-8.5 31.4 0 1.9 1.1 3.6 3.3 3.9 5.5 0 11.6 0 15.2.3 3.6.3 5 3.3 5 6.3v2.2c0 6.9-.8 16.3-1.7 21.8-.5 2.9-3.3 4.8-6.6 4.8zM1182.4 283.6c-13.2 0-34.7-5.2-47.7-16.3-8.8-7.4-12.7-17.1-14.9-32 0 0-.3-2.5-.3-3.6 0-3.3 1.9-5.2 5-6.6 11-4.1 22.3-5.8 24.8-6.1 3.6 0 4.7 2.5 5.2 4.4 3.9 13.8 5 26.7 23.1 26.7 12.9 0 21.5-7.4 21.5-14.6 0-22.3-66.4-26.4-66.4-72.7 0-29.2 26.2-65 54.8-65 19 0 66.4 15.7 66.4 41.1 0 8.5-5.5 22.9-8.5 28.1-1.9 3.9-3.3 4.7-6.6 5-4.1.6-20.9.6-25.3.6-3.9 0-5.2-1.4-5.2-3.6s3.9-16.3 3.9-24.5c0-10.7-5.8-14.3-11.8-14.3-14.3 0-25.6 19.6-25.6 30.3 0 28.4 65.6 27.8 65.6 70.8-.2 27.7-29.1 52.3-58 52.3zM1331.1 213.9c0 1.1.6 1.9 1.1 2.8 8.5 14.1 19.8 29.8 29.2 38.8 1.1 1.1 1.9 2.8 1.9 4.1 0 1.1-.6 2.5-1.4 3.3-8.5 8.3-19.8 15.2-26.7 18.2 0 0-1.9.8-3.6.8-2.2 0-4.1-.8-5.5-2.2-8.5-8.3-19-30.6-24.2-44.9-.8-2.8-2.2-5.2-4.4-5.2-2.5 0-3.9 2.2-4.4 5.2-2.2 14.1-4.4 28.7-6.1 42.4-.3 2.8-2.5 4.4-5 4.4-5.2 0-22.9-5.2-27.3-7.2-3.6-1.7-4.4-4.7-4.4-7.4 1.4-42.4 23.1-146 35-172.7.8-2.2 3-3.9 5.8-3.9 4.1 0 25.1 6.3 29.2 8 2.5.8 3.6 3 3.6 5.2 0 .8-.8 3-.8 3-5.8 16-14.1 46.3-22.3 86.2 0 0-.3 1.1-.3 1.7 0 1.7.8 2.5 1.9 2.5 1.7 0 3.9-2.2 5.8-4.4 14.3-16.5 32.2-37.7 39.9-47.4 1.1-1.4 2.8-2.2 4.4-2.2 1.7 0 3 1.1 3 1.1 5.5 3.9 15.4 13.2 20.7 20.1.8 1.1 1.1 2.5 1.1 3.6 0 1.7-.8 3-2.2 4.4-7.7 6.6-25.3 23.4-41.6 37.5-1.3 1.1-2.4 2.5-2.4 4.2zM1407.2 281.9c-4.4 0-22.6-5-27.6-7.2-3-1.4-4.4-3.9-4.4-6.6 0-23.1 13.5-98.6 20.9-121.5.8-2.5 3.6-4.4 6.6-4.4 3.9 0 20.4 3.9 28.4 6.9 2.2.8 3.9 2.5 3.9 5 0 .6-.3 1.9-.3 1.9-8.5 35.8-18.5 88.7-22.3 121.2-.5 2.8-2.7 4.7-5.2 4.7zm41-176.3c0 14.6-10.2 25.1-26.7 25.1-16 0-23.1-10.7-23.1-23.4 0-9.6 6.1-17.1 11.8-21.8 1.9-1.4 6.1-2.8 8.8-2.8 13.3 0 29.2 6.6 29.2 22.9zM1467 281.6c-4.4 0-22.3-5.2-27.3-7.4-2.8-1.1-4.4-3.6-4.4-7.4 1.4-42.4 23.1-145.5 34.4-172.5 1.1-2.2 3.3-3.9 6.1-3.9 5.2 0 25.3 6.1 29.2 8 2.2 1.1 3.6 3 3.6 5.2 0 .8-.3 1.7-.3 1.7-9.4 26.4-28.1 102.8-36.4 171.9-.3 2.5-2.5 4.4-4.9 4.4zM1526.2 281.6c-4.4 0-22.3-5.2-27.3-7.4-2.8-1.1-4.4-3.6-4.4-7.4 1.4-42.4 23.1-145.5 34.4-172.5 1.1-2.2 3.3-3.9 6.1-3.9 5.2 0 25.3 6.1 29.2 8 2.2 1.1 3.6 3 3.6 5.2 0 .8-.3 1.7-.3 1.7-9.4 26.4-28.1 102.8-36.4 171.9-.2 2.5-2.4 4.4-4.9 4.4zM1602 140.8c15.2 0 60.6 14.1 60.6 34.4 0 7.2-5.5 18.2-7.7 21.2s-5 3.9-7.4 4.1h-20.7c-2.8 0-4.1-1.9-4.1-3.6 0-2.2 2.8-9.4 2.8-14.9 0-7.4-3.3-11.3-7.4-11.3-9.4 0-17.6 15.4-17.6 22.9 0 19 52.3 14.6 52.3 46.3 0 19.8-19.6 42.4-47.7 42.4-16.5 0-40.8-8-49.6-16-2.5-2.2-3-4.1-3-5.5 0-3.6 3.3-15.7 5.8-20.9 1.1-2.5 2.2-3.3 3.9-3.3 1.7 0 2.8 1.1 3.3 1.1 9.6 5.2 23.1 12.4 34.4 12.4 6.3 0 12.1-2.2 12.7-6.6 0-11.6-53.2-12.9-53.2-48.8-.1-21.9 20-53.9 42.6-53.9zM712.9 390.1h-45.4v38.6h53v11.7h-66.8V331.6h66.1v11.8h-52.3v35h45.4v11.7zM813.1 440.4H799l-42.2-81.3-.2 81.3h-14V331.6h14.1l42.2 81.2.2-81.2h14v108.8zM907.2 426.2c-4.6 5.4-9.8 9.4-15.8 12-5.9 2.6-12.4 3.9-19.5 3.8-4.5 0-8.6-.7-12.4-2.1-3.8-1.3-7.1-3.1-10.1-5.5-3-2.3-5.6-5-7.8-8.2-2.2-3.1-4.1-6.5-5.6-10.2-1.5-3.7-2.7-7.5-3.4-11.5-.8-4-1.2-8.1-1.2-12.1v-12.6c0-4 .4-8.1 1.1-12.1.7-4 1.7-7.9 3.1-11.5 1.4-3.7 3.1-7.1 5.2-10.3 2.1-3.2 4.6-5.9 7.5-8.2 2.9-2.3 6.2-4.1 9.9-5.5 3.7-1.3 7.8-2 12.4-2 5.1 0 9.8.8 14.1 2.4 4.3 1.6 8 3.8 11.2 6.7 3.2 2.9 5.8 6.4 7.7 10.5 1.9 4.1 3.1 8.7 3.6 13.8h-13.7c-.5-3.1-1.4-6-2.5-8.7-1.1-2.7-2.7-4.9-4.5-6.8-1.9-1.9-4.1-3.4-6.7-4.4-2.6-1.1-5.6-1.6-9-1.6-3.3 0-6.2.6-8.7 1.7-2.5 1.1-4.8 2.6-6.7 4.5-1.9 1.9-3.5 4.1-4.7 6.6-1.2 2.5-2.3 5.2-3.1 8-.8 2.8-1.4 5.6-1.7 8.5-.3 2.9-.5 5.7-.5 8.4v12.8c0 2.7.3 5.6.7 8.5.4 2.9 1.1 5.8 2 8.6.9 2.8 2 5.4 3.4 7.9s3.1 4.7 5 6.6c2 1.9 4.2 3.4 6.8 4.5 2.6 1.1 5.5 1.7 8.8 1.8 1.9 0 3.9 0 5.9-.2a29 29 0 0 0 6-1.2c1.9-.6 3.8-1.4 5.5-2.4 1.7-1 3.1-2.4 4.3-4l.1-24.4h-22.1v-11.7h35.3l.1 39.6zM928.6 331.6h65.8v12h-26.1v84.8h26.1v12h-65.8v-12h25.5v-84.8h-25.5v-12zM1088.6 440.4h-14.1l-42.2-81.3-.2 81.3h-14V331.6h14.1l42.2 81.2.2-81.2h14v108.8zM1172.2 390.1h-45.4v38.6h53v11.7H1113V331.6h66.1v11.8h-52.3v35h45.4v11.7zM1264 390.1h-45.4v38.6h53v11.7h-66.8V331.6h66.1v11.8h-52.3v35h45.4v11.7zM1332 396h-21.7v44.4h-13.8V331.6h31.9c5.1.1 9.9.8 14.3 2.2 4.5 1.3 8.4 3.4 11.8 6.1 3.4 2.7 6 6.1 7.9 10.1 1.9 4.1 2.9 8.8 2.9 14.3 0 3.5-.5 6.8-1.5 9.7-1 2.9-2.4 5.6-4.2 8-1.8 2.4-3.9 4.5-6.4 6.4-2.5 1.8-5.2 3.4-8.2 4.7l23.1 46.5-.1.9h-14.6L1332 396zm-21.7-11.3h18.5c3.1 0 6-.5 8.7-1.5 2.7-.9 5.1-2.3 7.2-4 2.1-1.7 3.7-3.9 4.9-6.4 1.2-2.5 1.8-5.4 1.8-8.7 0-3.5-.6-6.5-1.7-9.2-1.1-2.6-2.7-4.8-4.8-6.6-2-1.8-4.5-3.1-7.3-4-2.8-.9-5.9-1.4-9.2-1.4h-18.2v41.8zM1387.9 331.6h65.8v12h-26.1v84.8h26.1v12h-65.8v-12h25.5v-84.8h-25.5v-12zM1547.9 440.4h-14.1l-42.2-81.3-.2 81.3h-14V331.6h14.1l42.2 81.2.2-81.2h14v108.8zM1642 426.2c-4.6 5.4-9.8 9.4-15.8 12-5.9 2.6-12.4 3.9-19.5 3.8-4.5 0-8.6-.7-12.4-2.1-3.8-1.3-7.1-3.1-10.1-5.5-3-2.3-5.6-5-7.8-8.2-2.2-3.1-4.1-6.5-5.6-10.2-1.5-3.7-2.7-7.5-3.4-11.5-.8-4-1.2-8.1-1.2-12.1v-12.6c0-4 .4-8.1 1.1-12.1.7-4 1.7-7.9 3.1-11.5 1.4-3.7 3.1-7.1 5.2-10.3 2.1-3.2 4.6-5.9 7.5-8.2 2.9-2.3 6.2-4.1 9.9-5.5 3.7-1.3 7.8-2 12.4-2 5.1 0 9.8.8 14.1 2.4 4.3 1.6 8 3.8 11.2 6.7 3.2 2.9 5.8 6.4 7.7 10.5 1.9 4.1 3.1 8.7 3.6 13.8h-13.7c-.5-3.1-1.4-6-2.5-8.7-1.1-2.7-2.7-4.9-4.5-6.8-1.9-1.9-4.1-3.4-6.7-4.4-2.6-1.1-5.6-1.6-9-1.6-3.3 0-6.2.6-8.7 1.7-2.5 1.1-4.8 2.6-6.7 4.5-1.9 1.9-3.5 4.1-4.7 6.6-1.2 2.5-2.3 5.2-3.1 8-.8 2.8-1.4 5.6-1.7 8.5-.3 2.9-.5 5.7-.5 8.4v12.8c0 2.7.3 5.6.7 8.5.4 2.9 1.1 5.8 2 8.6.9 2.8 2 5.4 3.4 7.9s3.1 4.7 5 6.6c2 1.9 4.2 3.4 6.8 4.5 2.6 1.1 5.5 1.7 8.8 1.8 1.9 0 3.9 0 5.9-.2a29 29 0 0 0 6-1.2c1.9-.6 3.8-1.4 5.5-2.4 1.7-1 3.1-2.4 4.3-4l.1-24.4h-22.1v-11.7h35.3l.1 39.6z"/></g></svg>