<svg id="Layer_1" xmlns="http://www.w3.org/2000/svg" viewBox="0 0 860 860"><style>.st0{fill:#fba28c}.st2{fill:#031268}.st3{fill:#fff}</style><path class="st0" d="M711.8 113.5v358.1c0 13.1-10.7 23.8-23.8 23.8H224.5c-9.1 0-17.9-3.2-24.8-9L153.8 448c-1.1-1-1.3-2.6-.3-3.8.9-1.1 2.6-1.3 3.8-.3l.4.4L663.1 49.8c-.9-1.1-.7-2.8.4-3.7 1.1-1 2.8-.8 3.8.3L703.1 89c5.6 7 8.7 15.6 8.7 24.5z"/><path d="M673.3 62.3v370.9c0 13.1-10.7 23.8-23.8 23.8H365.7c-11.1 19.4-25.6 36.7-43.2 51.2-14.2 11.8-30.4 21.9-48.2 30-30.2 13.8-54.2 17.1-55.2 17.2h-.3c-1 0-1.9-.5-2.4-1.4-.5-1-.4-2.2.3-3 14.3-16.4 23.1-34.4 26.4-53.4 2.3-13.4 1.7-27-1.6-40.6H173c-13.1 0-23.8-10.7-23.8-23.8V62.3c0-13.1 10.7-23.8 23.8-23.8h476.6c13.1 0 23.7 10.7 23.7 23.8z" fill="#fceacf"/><path class="st2" d="M710.8 85c0-.1 0-.1 0 0l-35.3-42c-5.2-6.7-13.2-10.9-22.3-10.9H167.9c-15.5 0-28.2 12.6-28.2 28.2V438c0 9.4 4.6 17.8 11.8 22.9l41 34.3c7.8 6.5 17.7 10.1 27.8 10.1h14.5c-3.5 17.7-12 34.6-25.5 50-1.8 2.1-2.2 5.1-.8 7.6 1.2 2.2 3.5 3.5 5.9 3.5.3 0 .6 0 .9-.1 1-.1 26-3.5 57.3-17.8 18.4-8.4 35.2-18.9 49.9-31.1 4.7-3.9 9.1-7.9 13.4-12.1h356.4c15.5 0 28.2-12.6 28.2-28.2V112.3c0-9.9-3.4-19.6-9.7-27.3zm-29.4-14.2l19.1 22.7c4.3 5.3 6.7 12 6.7 18.8v30l-25-28.3c-.2-.3-.5-.5-.8-.7V70.8zm0 62.6l25.7 29.1v46.9l-25.5-28.9c-.1-.1-.1-.2-.2-.2v-46.9zm-461 358.4c-7 0-13.8-2.5-19.2-7l-22.4-18.7h55.8c1.8 8.6 2.5 17.2 2.1 25.7h-16.3zm93.9 15c-13.8 11.5-29.5 21.3-46.8 29.2-14.2 6.5-27.1 10.7-36.7 13.2 9.2-13.9 15.2-28.8 17.8-44.3 2.6-15.5 1.9-31.4-2.2-47.2-.4-1.3-1.1-2.6-2.2-3.5l-.2-.2c-1.2-1-2.7-1.6-4.3-1.6H168c-3 0-5.9-.9-8.2-2.5-.2-.1-.3-.2-.5-.3-3.7-2.7-6.1-7-6.1-11.9V60.2c0-8.1 6.6-14.8 14.8-14.8h485.3c4.2 0 8 1.8 10.7 4.6.4.4.8.9 1.1 1.4 1.8 2.5 2.9 5.5 2.9 8.8v377.7c0 4.9-2.4 9.3-6.1 12-.5.4-1 .7-1.5 1-2.1 1.2-4.5 1.8-7.1 1.8H362.7c-1.9 0-3.8.8-5.1 2.3l-.6.7c-.3.3-.5.7-.8 1.1-10.7 18.9-24.8 35.8-41.9 50zm34-15c6.7-8.1 12.8-16.7 18.1-25.7h9.4l29.1 25.7h-56.6zm76.9 0l-.4-.4-28.7-25.4h50.5l29.1 25.7h-50.5zm70.8 0l-29.1-25.7h53l29.1 25.7h-53zm73.2 0l-.4-.4-28.7-25.4h52.1l29.1 25.7h-52.1zm123.2 0h-50.9c-.2-.3-.5-.6-.8-.9l-28.1-24.8h40.8c3.7 0 7.2-.7 10.5-2l31.2 27.5c-1 .1-1.9.2-2.7.2zm14.7-14.8c0 2.2-.5 4.3-1.4 6.2L674.8 456c4.1-4.9 6.6-11.2 6.6-18.1v-29.2l25.7 29.1V477zm0-59.4l-25.5-28.9c-.1-.1-.1-.2-.2-.2v-50.2l25.7 29.1v50.2zm0-70.5l-24.9-28.3c-.2-.3-.5-.5-.8-.7V269l25.7 29.1v49zm0-69.2L681.6 249c-.1-.1-.1-.2-.2-.2v-48.2l25.7 29.1v48.2z"/><path class="st2" d="M665.1 51.4l-1.1-1.3V50c.4.5.7.9 1.1 1.4z"/><path class="st0" d="M319.2 289c0 14.5-11.8 26.3-26.3 26.3s-26.3-11.8-26.3-26.3 11.8-26.3 26.3-26.3 26.3 11.8 26.3 26.3zm234.8 0c0 14.5-11.8 26.3-26.3 26.3s-26.3-11.8-26.3-26.3 11.8-26.3 26.3-26.3S554 274.5 554 289z"/><path class="st2" d="M410.3 300.6c-21.6 0-39.2-17.6-39.2-39.2a6.7 6.7 0 0113.4 0c0 14.2 11.6 25.8 25.8 25.8 14.2 0 25.8-11.6 25.8-25.8a6.7 6.7 0 0113.4 0c0 21.6-17.5 39.2-39.2 39.2zM351 210.7c0 15.8-12.9 28.7-28.7 28.7-15.8 0-28.7-12.9-28.7-28.7 0-15.8 12.9-28.7 28.7-28.7 15.8 0 28.7 12.9 28.7 28.7z"/><ellipse class="st3" cx="328.4" cy="205.8" rx="6.1" ry="7.3"/><path class="st2" d="M527.1 210.7c0 15.8-12.9 28.7-28.7 28.7-15.8 0-28.7-12.9-28.7-28.7 0-15.8 12.9-28.7 28.7-28.7 15.8 0 28.7 12.9 28.7 28.7z"/><ellipse class="st3" cx="504.5" cy="205.8" rx="6.1" ry="7.3"/><g><path class="st2" d="M116.3 716.8c-9.3 0-24.3-3.7-33.4-11.4-6.2-5.2-8.9-12-10.4-22.4 0 0-.2-1.7-.2-2.5 0-2.3 1.4-3.7 3.5-4.6 7.7-2.9 15.6-4.1 17.4-4.2 2.5 0 3.3 1.7 3.7 3.1 2.7 9.6 3.5 18.7 16.2 18.7 9.1 0 15-5.2 15-10.2 0-15.6-46.5-18.5-46.5-50.9 0-20.4 18.3-45.5 38.4-45.5 13.3 0 46.5 11 46.5 28.7 0 6-3.9 16-6 19.7-1.4 2.7-2.3 3.3-4.6 3.5-2.9.4-14.7.4-17.7.4-2.7 0-3.7-1-3.7-2.5s2.7-11.4 2.7-17.2c0-7.5-4.1-10-8.3-10-10 0-17.9 13.7-17.9 21.2 0 19.9 45.9 19.5 45.9 49.6-.1 19.3-20.4 36.5-40.6 36.5zm132.5-61c0 17.2-10.4 60-41.5 60-8.7 0-25.1-4.8-34-14.3-5.4-5.8-8.1-14.7-8.1-25.5 0-22 12.9-59.4 39.5-59.4 10 0 28.2 7.5 36.5 15.8 5 5.2 7.3 14.5 7.5 22.4v1zm-28.2-2.3c0-8.7-2.7-14.5-7.9-14.5-10.6 0-19.7 25.3-19.7 40.7 0 7.7 2.5 13.3 8.1 13.3 11.8 0 19.5-24.8 19.5-39.5zm91.7-49.8c-5.6 0-11.4 5.4-11.4 11.4 0 1.5 1 2.3 2.9 2.3 3.5 0 7.3 0 9.6.2 2.5.2 3.3 2.3 3.3 4.4-.2 4.4-.8 12.2-1.5 16.8-.4 1.9-2.3 3.5-4.4 3.5-2.7 0-7.7-.2-12.3-.2-1.9 0-3.7 1.4-4.1 3.1-4.1 21-8.9 48-12.2 67.1-.4 1.7-2.1 3.3-4.1 3.3-3.9 0-16.6-3.5-19.7-5-1.4-.8-2.7-1.7-2.7-4.2 0-3.5 10-60.6 10-61.5 0-2.1-.4-3.3-1.9-3.3h-2.7c-2.3 0-3.7-1.4-3.7-3.3s0-11.2.4-15.4c0-2.1 1.5-4.2 4.4-4.2h4.2c2.3 0 3.9-1.7 4.2-3.9 3.9-19.5 12-37 36.1-37 5.8 0 12.9 1.5 18.5 4.2 1.5 1 2.3 2.1 2.3 3.7 0 1.9-4.2 16.4-4.6 17.6-.4 1.4-1.7 1.9-3.1 1.9-1-.1-4.6-1.5-7.5-1.5zm62.9 38.6h-14.1c-2.3 0-3.5 1.5-4.1 3.5-3.1 14.5-5.4 26.4-5.4 31.4 0 8.1 3.1 12.5 10.2 16 1.2.6 2.1 1.5 2.1 3.3 0 .6-.2 1.2-.4 1.5-2.1 4.4-5.8 11-9.6 15.4-1.2 1.2-2.7 1.9-4.4 1.9-1 0-2.1-.4-2.1-.4-15.8-5-24.5-18.5-24.5-33.2 0-12.5 5.4-36.7 5.4-37.6 0-1.4-.8-2.3-2.1-2.3h-1.9c-1.9 0-3.5-1.5-3.7-3.7v-7.9c0-2.9 0-5.6.2-7.7.2-1.9 1.5-3.9 4.1-4.1l6.8-.6c2.3-.2 3.1-1.7 3.7-3.7 3.3-12.2 6.8-23 8.7-27.8.6-1.7 2.1-2.7 3.9-2.7 5.4 0 15.4 3.5 20.3 5.6 1.5.6 2.5 1.7 2.5 3.3 0 3.3-6 19.3-6 22 0 1.4.8 2.5 2.3 2.7 3.9 0 8.1 0 10.6.2s3.5 2.3 3.5 4.4v1.5c0 4.8-.6 11.4-1.2 15.2-.6 2.5-2.5 3.8-4.8 3.8zm76.6 74.5c-9.3 0-24.3-3.7-33.4-11.4-6.2-5.2-8.9-12-10.4-22.4 0 0-.2-1.7-.2-2.5 0-2.3 1.4-3.7 3.5-4.6 7.7-2.9 15.6-4.1 17.4-4.2 2.5 0 3.3 1.7 3.7 3.1 2.7 9.6 3.5 18.7 16.2 18.7 9.1 0 15-5.2 15-10.2 0-15.6-46.5-18.5-46.5-50.9 0-20.4 18.3-45.5 38.4-45.5 13.3 0 46.5 11 46.5 28.7 0 6-3.9 16-6 19.7-1.4 2.7-2.3 3.3-4.6 3.5-2.9.4-14.7.4-17.7.4-2.7 0-3.7-1-3.7-2.5s2.7-11.4 2.7-17.2c0-7.5-4.1-10-8.3-10-10 0-17.9 13.7-17.9 21.2 0 19.9 45.9 19.5 45.9 49.6-.1 19.3-20.4 36.5-40.6 36.5zM555.9 668c0 .8.4 1.4.8 1.9 6 9.8 13.9 20.8 20.4 27.2.8.8 1.4 1.9 1.4 2.9 0 .8-.4 1.7-1 2.3-6 5.8-13.9 10.6-18.7 12.7 0 0-1.4.6-2.5.6-1.5 0-2.9-.6-3.9-1.5-6-5.8-13.3-21.4-17-31.4-.6-1.9-1.5-3.7-3.1-3.7-1.7 0-2.7 1.5-3.1 3.7-1.5 9.8-3.1 20.1-4.2 29.7-.2 1.9-1.7 3.1-3.5 3.1-3.7 0-16-3.7-19.1-5-2.5-1.2-3.1-3.3-3.1-5.2 1-29.7 16.2-102.2 24.5-121 .6-1.5 2.1-2.7 4.1-2.7 2.9 0 17.6 4.4 20.4 5.6 1.7.6 2.5 2.1 2.5 3.7 0 .6-.6 2.1-.6 2.1-4.1 11.2-9.8 32.4-15.6 60.4 0 0-.2.8-.2 1.2 0 1.2.6 1.7 1.4 1.7 1.2 0 2.7-1.5 4.1-3.1 10-11.6 22.6-26.4 28-33.2.8-1 1.9-1.5 3.1-1.5s2.1.8 2.1.8c3.9 2.7 10.8 9.3 14.5 14.1.6.8.8 1.7.8 2.5 0 1.2-.6 2.1-1.5 3.1-5.4 4.6-17.7 16.4-29.1 26.2-1.1.6-1.9 1.6-1.9 2.8zm53.3 47.6c-3.1 0-15.8-3.5-19.3-5-2.1-1-3.1-2.7-3.1-4.6 0-16.2 9.5-69.1 14.7-85.1.6-1.7 2.5-3.1 4.6-3.1 2.7 0 14.3 2.7 19.9 4.8 1.5.6 2.7 1.7 2.7 3.5 0 .4-.2 1.4-.2 1.4-6 25.1-12.9 62.1-15.6 84.9-.5 1.9-2 3.2-3.7 3.2zm28.7-123.5c0 10.2-7.1 17.6-18.7 17.6-11.2 0-16.2-7.5-16.2-16.4 0-6.8 4.2-12 8.3-15.2 1.4-1 4.2-1.9 6.2-1.9 9.2-.1 20.4 4.6 20.4 15.9zM651 715.4c-3.1 0-15.6-3.7-19.1-5.2-1.9-.8-3.1-2.5-3.1-5.2 1-29.7 16.2-101.9 24.1-120.8.8-1.5 2.3-2.7 4.2-2.7 3.7 0 17.7 4.2 20.4 5.6 1.5.8 2.5 2.1 2.5 3.7 0 .6-.2 1.2-.2 1.2-6.6 18.5-19.7 72-25.5 120.4 0 1.7-1.5 3-3.3 3zm41.5 0c-3.1 0-15.6-3.7-19.1-5.2-1.9-.8-3.1-2.5-3.1-5.2 1-29.7 16.2-101.9 24.1-120.8.8-1.5 2.3-2.7 4.2-2.7 3.7 0 17.7 4.2 20.4 5.6 1.5.8 2.5 2.1 2.5 3.7 0 .6-.2 1.2-.2 1.2-6.6 18.5-19.7 72-25.5 120.4 0 1.7-1.6 3-3.3 3zm53.1-98.6c10.6 0 42.4 9.8 42.4 24.1 0 5-3.9 12.7-5.4 14.9-1.5 2.1-3.5 2.7-5.2 2.9h-14.5c-1.9 0-2.9-1.4-2.9-2.5 0-1.5 1.9-6.6 1.9-10.4 0-5.2-2.3-7.9-5.2-7.9-6.6 0-12.3 10.8-12.3 16 0 13.3 36.7 10.2 36.7 32.4 0 13.9-13.7 29.7-33.4 29.7-11.6 0-28.6-5.6-34.7-11.2-1.7-1.5-2.1-2.9-2.1-3.9 0-2.5 2.3-11 4.1-14.7.8-1.7 1.5-2.3 2.7-2.3 1.2 0 1.9.8 2.3.8 6.8 3.7 16.2 8.7 24.1 8.7 4.4 0 8.5-1.5 8.9-4.6 0-8.1-37.2-9.1-37.2-34.1-.1-15.5 13.9-37.9 29.8-37.9z"/><path class="st0" d="M123 791.4H91.2v27h37.1v8.2H81.5v-76.2h46.3v8.3H91.2v24.5H123v8.2zm70.2 35.2h-9.8l-29.6-56.9-.2 56.9h-9.8v-76.2h9.8l29.6 56.8.2-56.8h9.8v76.2zm65.8-10c-3.2 3.8-6.9 6.6-11 8.4-4.2 1.8-8.7 2.7-13.7 2.7-3.1 0-6-.5-8.7-1.4-2.6-.9-5-2.2-7.1-3.8-2.1-1.6-3.9-3.5-5.5-5.7s-2.9-4.6-4-7.1c-1.1-2.6-1.9-5.3-2.4-8.1s-.8-5.6-.9-8.5v-8.8c0-2.8.3-5.6.8-8.5.5-2.8 1.2-5.5 2.2-8.1 1-2.6 2.2-5 3.7-7.2s3.2-4.1 5.3-5.8c2-1.6 4.4-2.9 6.9-3.8 2.6-.9 5.5-1.4 8.7-1.4 3.6 0 6.8.5 9.8 1.6 3 1.1 5.6 2.7 7.8 4.7s4 4.5 5.4 7.4c1.4 2.9 2.2 6.1 2.5 9.7h-9.6c-.4-2.2-1-4.2-1.8-6.1-.8-1.9-1.9-3.5-3.2-4.8-1.3-1.3-2.9-2.4-4.7-3.1-1.8-.8-3.9-1.1-6.3-1.1-2.3 0-4.3.4-6.1 1.2-1.8.8-3.3 1.8-4.7 3.2-1.3 1.3-2.4 2.9-3.3 4.6-.9 1.8-1.6 3.6-2.1 5.6-.6 2-1 3.9-1.2 6-.2 2-.4 4-.4 5.9v8.9c0 1.9.2 3.9.5 5.9.3 2 .8 4 1.4 6 .6 2 1.4 3.8 2.4 5.5 1 1.7 2.2 3.3 3.5 4.6 1.4 1.3 3 2.4 4.8 3.2 1.8.8 3.9 1.2 6.2 1.2 1.3 0 2.7 0 4.2-.2 1.4-.1 2.9-.4 4.2-.8s2.6-1 3.8-1.7c1.2-.7 2.2-1.6 3-2.8l.1-17.1H234v-8.2h24.7l.3 27.8zm15.1-66.2h46.1v8.4h-18.3v59.4h18.3v8.4h-46.1v-8.4h17.8v-59.4h-17.8v-8.4zm112 76.2h-9.8l-29.6-56.9-.2 56.9h-9.8v-76.2h9.8l29.6 56.8.2-56.8h9.8v76.2zm58.5-35.2h-31.8v27h37.1v8.2h-46.8v-76.2h46.3v8.3h-36.6v24.5h31.8v8.2zm64.3 0h-31.8v27h37.1v8.2h-46.8v-76.2h46.3v8.3h-36.6v24.5h31.8v8.2zm47.7 4.1h-15.2v31.1h-9.6v-76.2H554c3.6.1 6.9.6 10 1.5 3.1.9 5.9 2.4 8.2 4.2 2.4 1.9 4.2 4.2 5.5 7.1 1.3 2.8 2 6.2 2 10 0 2.5-.4 4.7-1.1 6.8-.7 2.1-1.7 3.9-3 5.6s-2.8 3.2-4.5 4.4c-1.7 1.3-3.7 2.4-5.8 3.3l16.2 32.6-.1.6h-10.2l-14.6-31zm-15.3-7.9h13c2.2 0 4.2-.4 6.1-1 1.9-.6 3.6-1.6 5-2.8 1.4-1.2 2.6-2.7 3.4-4.5.8-1.8 1.3-3.8 1.3-6.1 0-2.4-.4-4.6-1.2-6.4-.8-1.8-1.9-3.4-3.3-4.6-1.4-1.2-3.1-2.2-5.1-2.8-2-.6-4.1-1-6.5-1h-12.7v29.2zm54.3-37.2h46.1v8.4h-18.3v59.4h18.3v8.4h-46.1v-8.4h17.8v-59.4h-17.8v-8.4zm112.1 76.2h-9.8l-29.6-56.9-.2 56.9h-9.8v-76.2h9.8l29.6 56.8.2-56.8h9.8v76.2zm65.9-10c-3.2 3.8-6.9 6.6-11 8.4-4.2 1.8-8.7 2.7-13.7 2.7-3.1 0-6-.5-8.7-1.4-2.6-.9-5-2.2-7.1-3.8-2.1-1.6-3.9-3.5-5.5-5.7s-2.9-4.6-4-7.1c-1.1-2.6-1.9-5.3-2.4-8.1s-.8-5.6-.9-8.5v-8.8c0-2.8.3-5.6.8-8.5.5-2.8 1.2-5.5 2.2-8.1 1-2.6 2.2-5 3.7-7.2s3.2-4.1 5.3-5.8c2-1.6 4.4-2.9 6.9-3.8 2.6-.9 5.5-1.4 8.7-1.4 3.6 0 6.8.5 9.8 1.6 3 1.1 5.6 2.7 7.8 4.7s4 4.5 5.4 7.4c1.4 2.9 2.2 6.1 2.5 9.7h-9.6c-.4-2.2-1-4.2-1.8-6.1-.8-1.9-1.9-3.5-3.2-4.8-1.3-1.3-2.9-2.4-4.7-3.1-1.8-.8-3.9-1.1-6.3-1.1-2.3 0-4.3.4-6.1 1.2-1.8.8-3.3 1.8-4.7 3.2-1.3 1.3-2.4 2.9-3.3 4.6-.9 1.8-1.6 3.6-2.1 5.6-.6 2-1 3.9-1.2 6-.2 2-.4 4-.4 5.9v8.9c0 1.9.2 3.9.5 5.9.3 2 .8 4 1.4 6 .6 2 1.4 3.8 2.4 5.5 1 1.7 2.2 3.3 3.5 4.6 1.4 1.3 3 2.4 4.8 3.2 1.8.8 3.9 1.2 6.2 1.2 1.3 0 2.7 0 4.2-.2 1.4-.1 2.9-.4 4.2-.8s2.6-1 3.8-1.7c1.2-.7 2.2-1.6 3-2.8l.1-17.1h-15.5v-8.2h24.7l.3 27.8z"/></g></svg>