<?xml version="1.0" encoding="utf-8"?>
<!-- Generator: Adobe Illustrator 22.1.0, SVG Export Plug-In . SVG Version: 6.00 Build 0)  -->
<svg version="1.1" id="Layer_1" xmlns="http://www.w3.org/2000/svg" xmlns:xlink="http://www.w3.org/1999/xlink" x="0px" y="0px"
	 viewBox="0 0 860 860" style="enable-background:new 0 0 860 860;" xml:space="preserve">
<style type="text/css">
	.st0{fill:#FBA28C;}
	.st1{fill:#FCEACF;}
	.st2{fill:#031268;}
	.st3{fill:#FFFFFF;}
</style>
<g>
	<g>
		<g>
			<g>
				<path class="st0" d="M711.8,113.5v358.1c0,13.1-10.7,23.8-23.8,23.8H224.5c-9.1,0-17.9-3.2-24.8-9l-45.9-38.4
					c-1.1-1-1.3-2.6-0.3-3.8c0.9-1.1,2.6-1.3,3.8-0.3l0.4,0.4L663.1,49.8c-0.9-1.1-0.7-2.8,0.4-3.7c1.1-1,2.8-0.8,3.8,0.3l35.8,42.6
					c0,0,0,0,0,0C708.7,96,711.8,104.6,711.8,113.5z"/>
			</g>
			<g>
				<path class="st1" d="M673.3,62.3v370.9c0,13.1-10.7,23.8-23.8,23.8H365.7c-11.1,19.4-25.6,36.7-43.2,51.2
					c-14.2,11.8-30.4,21.9-48.2,30c-30.2,13.8-54.2,17.1-55.2,17.2c-0.1,0-0.2,0-0.3,0c-1,0-1.9-0.5-2.4-1.4c-0.5-1-0.4-2.2,0.3-3
					c14.3-16.4,23.1-34.4,26.4-53.4c2.3-13.4,1.7-27-1.6-40.6H173c-13.1,0-23.8-10.7-23.8-23.8V62.3c0-13.1,10.7-23.8,23.8-23.8
					h476.6C662.7,38.5,673.3,49.2,673.3,62.3z"/>
			</g>
		</g>
		<g>
			<g>
				<path class="st2" d="M710.8,85C710.8,84.9,710.8,84.9,710.8,85l-35.3-42c-5.2-6.7-13.2-10.9-22.3-10.9H167.9
					c-15.5,0-28.2,12.6-28.2,28.2v377.7c0,9.4,4.6,17.8,11.8,22.9l41,34.3c7.8,6.5,17.7,10.1,27.8,10.1h14.5
					c-3.5,17.7-12,34.6-25.5,50c-1.8,2.1-2.2,5.1-0.8,7.6c1.2,2.2,3.5,3.5,5.9,3.5c0.3,0,0.6,0,0.9-0.1c1-0.1,26-3.5,57.3-17.8
					c18.4-8.4,35.2-18.9,49.9-31.1c4.7-3.9,9.1-7.9,13.4-12.1h356.4c15.5,0,28.2-12.6,28.2-28.2V112.3
					C720.5,102.4,717.1,92.7,710.8,85z M681.4,70.8l19.1,22.7c4.3,5.3,6.7,12,6.7,18.8v30L682.2,114c-0.2-0.3-0.5-0.5-0.8-0.7V70.8z
					 M681.4,133.4l25.7,29.1v46.9l-25.5-28.9c-0.1-0.1-0.1-0.2-0.2-0.2V133.4z M220.4,491.8c-7,0-13.8-2.5-19.2-7l-22.4-18.7h55.8
					c1.8,8.6,2.5,17.2,2.1,25.7H220.4z M314.3,506.8c-13.8,11.5-29.5,21.3-46.8,29.2c-14.2,6.5-27.1,10.7-36.7,13.2
					c9.2-13.9,15.2-28.8,17.8-44.3c2.6-15.5,1.9-31.4-2.2-47.2c-0.4-1.3-1.1-2.6-2.2-3.5l-0.2-0.2c-1.2-1-2.7-1.6-4.3-1.6h-71.7
					c-3,0-5.9-0.9-8.2-2.5c-0.2-0.1-0.3-0.2-0.5-0.3c-3.7-2.7-6.1-7-6.1-11.9V60.2c0-8.1,6.6-14.8,14.8-14.8h485.3
					c4.2,0,8,1.8,10.7,4.6c0.4,0.4,0.8,0.9,1.1,1.4c1.8,2.5,2.9,5.5,2.9,8.8v377.7c0,4.9-2.4,9.3-6.1,12c0,0,0,0,0,0s0,0,0,0
					c0,0,0,0,0,0c-0.5,0.4-1,0.7-1.5,1c0,0,0,0,0,0c-2.1,1.2-4.5,1.8-7.1,1.8H362.7c-1.9,0-3.8,0.8-5.1,2.3l-0.6,0.7
					c-0.3,0.3-0.5,0.7-0.8,1.1C345.5,475.7,331.4,492.6,314.3,506.8z M348.3,491.8c6.7-8.1,12.8-16.7,18.1-25.7h9.4l29.1,25.7H348.3
					z M425.2,491.8c-0.1-0.1-0.2-0.2-0.4-0.4l-28.7-25.4h50.5l29.1,25.7H425.2z M496,491.8l-29.1-25.7h53l29.1,25.7H496z
					 M569.2,491.8c-0.1-0.1-0.2-0.2-0.4-0.4l-28.7-25.4h52.1l29.1,25.7H569.2z M692.4,491.8h-50.9c-0.2-0.3-0.5-0.6-0.8-0.9
					l-28.1-24.8h40.8c3.7,0,7.2-0.7,10.5-2l31.2,27.5C694.1,491.7,693.2,491.8,692.4,491.8z M707.1,477c0,2.2-0.5,4.3-1.4,6.2
					L674.8,456c4.1-4.9,6.6-11.2,6.6-18.1v-29.2l25.7,29.1V477z M707.1,417.6l-25.5-28.9c-0.1-0.1-0.1-0.2-0.2-0.2v-50.2l25.7,29.1
					V417.6z M707.1,347.1l-24.9-28.3c-0.2-0.3-0.5-0.5-0.8-0.7v-49.1l25.7,29.1V347.1z M707.1,277.9L681.6,249
					c-0.1-0.1-0.1-0.2-0.2-0.2v-48.2l25.7,29.1V277.9z"/>
				<path class="st2" d="M665.1,51.4l-1.1-1.3c0,0,0,0,0-0.1C664.4,50.5,664.7,50.9,665.1,51.4z"/>
			</g>
			<g>
				<g>
					<path class="st0" d="M319.2,289c0,14.5-11.8,26.3-26.3,26.3c-14.5,0-26.3-11.8-26.3-26.3c0-14.5,11.8-26.3,26.3-26.3
						C307.4,262.7,319.2,274.5,319.2,289z"/>
				</g>
				<g>
					<path class="st0" d="M554,289c0,14.5-11.8,26.3-26.3,26.3c-14.5,0-26.3-11.8-26.3-26.3c0-14.5,11.8-26.3,26.3-26.3
						C542.2,262.7,554,274.5,554,289z"/>
				</g>
				<path class="st2" d="M410.3,300.6c-21.6,0-39.2-17.6-39.2-39.2c0-3.7,3-6.7,6.7-6.7c3.7,0,6.7,3,6.7,6.7
					c0,14.2,11.6,25.8,25.8,25.8c14.2,0,25.8-11.6,25.8-25.8c0-3.7,3-6.7,6.7-6.7c3.7,0,6.7,3,6.7,6.7
					C449.5,283,432,300.6,410.3,300.6z"/>
				<g>
					<path class="st2" d="M351,210.7c0,15.8-12.9,28.7-28.7,28.7c-15.8,0-28.7-12.9-28.7-28.7c0-15.8,12.9-28.7,28.7-28.7
						C338.1,182,351,194.9,351,210.7z"/>
				</g>
				<ellipse class="st3" cx="328.4" cy="205.8" rx="6.1" ry="7.3"/>
				<g>
					<path class="st2" d="M527.1,210.7c0,15.8-12.9,28.7-28.7,28.7c-15.8,0-28.7-12.9-28.7-28.7c0-15.8,12.9-28.7,28.7-28.7
						C514.2,182,527.1,194.9,527.1,210.7z"/>
				</g>
				<ellipse class="st3" cx="504.5" cy="205.8" rx="6.1" ry="7.3"/>
			</g>
		</g>
	</g>
	<g>
		<path class="st2" d="M116.3,716.8c-9.3,0-24.3-3.7-33.4-11.4c-6.2-5.2-8.9-12-10.4-22.4c0,0-0.2-1.7-0.2-2.5
			c0-2.3,1.4-3.7,3.5-4.6c7.7-2.9,15.6-4.1,17.4-4.2c2.5,0,3.3,1.7,3.7,3.1c2.7,9.6,3.5,18.7,16.2,18.7c9.1,0,15-5.2,15-10.2
			c0-15.6-46.5-18.5-46.5-50.9c0-20.4,18.3-45.5,38.4-45.5c13.3,0,46.5,11,46.5,28.7c0,6-3.9,16-6,19.7c-1.4,2.7-2.3,3.3-4.6,3.5
			c-2.9,0.4-14.7,0.4-17.7,0.4c-2.7,0-3.7-1-3.7-2.5s2.7-11.4,2.7-17.2c0-7.5-4.1-10-8.3-10c-10,0-17.9,13.7-17.9,21.2
			c0,19.9,45.9,19.5,45.9,49.6C156.8,699.6,136.5,716.8,116.3,716.8z"/>
		<path class="st2" d="M248.8,655.8c0,17.2-10.4,60-41.5,60c-8.7,0-25.1-4.8-34-14.3c-5.4-5.8-8.1-14.7-8.1-25.5
			c0-22,12.9-59.4,39.5-59.4c10,0,28.2,7.5,36.5,15.8c5,5.2,7.3,14.5,7.5,22.4V655.8z M220.6,653.5c0-8.7-2.7-14.5-7.9-14.5
			c-10.6,0-19.7,25.3-19.7,40.7c0,7.7,2.5,13.3,8.1,13.3C212.9,693,220.6,668.2,220.6,653.5z"/>
		<path class="st2" d="M312.3,603.7c-5.6,0-11.4,5.4-11.4,11.4c0,1.5,1,2.3,2.9,2.3c3.5,0,7.3,0,9.6,0.2c2.5,0.2,3.3,2.3,3.3,4.4
			c-0.2,4.4-0.8,12.2-1.5,16.8c-0.4,1.9-2.3,3.5-4.4,3.5c-2.7,0-7.7-0.2-12.3-0.2c-1.9,0-3.7,1.4-4.1,3.1c-4.1,21-8.9,48-12.2,67.1
			c-0.4,1.7-2.1,3.3-4.1,3.3c-3.9,0-16.6-3.5-19.7-5c-1.4-0.8-2.7-1.7-2.7-4.2c0-3.5,10-60.6,10-61.5c0-2.1-0.4-3.3-1.9-3.3h-2.7
			c-2.3,0-3.7-1.4-3.7-3.3c0-1.9,0-11.2,0.4-15.4c0-2.1,1.5-4.2,4.4-4.2h4.2c2.3,0,3.9-1.7,4.2-3.9c3.9-19.5,12-37,36.1-37
			c5.8,0,12.9,1.5,18.5,4.2c1.5,1,2.3,2.1,2.3,3.7c0,1.9-4.2,16.4-4.6,17.6c-0.4,1.4-1.7,1.9-3.1,1.9
			C318.8,605.1,315.2,603.7,312.3,603.7z"/>
		<path class="st2" d="M375.2,642.3h-14.1c-2.3,0-3.5,1.5-4.1,3.5c-3.1,14.5-5.4,26.4-5.4,31.4c0,8.1,3.1,12.5,10.2,16
			c1.2,0.6,2.1,1.5,2.1,3.3c0,0.6-0.2,1.2-0.4,1.5c-2.1,4.4-5.8,11-9.6,15.4c-1.2,1.2-2.7,1.9-4.4,1.9c-1,0-2.1-0.4-2.1-0.4
			c-15.8-5-24.5-18.5-24.5-33.2c0-12.5,5.4-36.7,5.4-37.6c0-1.4-0.8-2.3-2.1-2.3h-1.9c-1.9,0-3.5-1.5-3.7-3.7v-7.9
			c0-2.9,0-5.6,0.2-7.7c0.2-1.9,1.5-3.9,4.1-4.1l6.8-0.6c2.3-0.2,3.1-1.7,3.7-3.7c3.3-12.2,6.8-23,8.7-27.8c0.6-1.7,2.1-2.7,3.9-2.7
			c5.4,0,15.4,3.5,20.3,5.6c1.5,0.6,2.5,1.7,2.5,3.3c0,3.3-6,19.3-6,22c0,1.4,0.8,2.5,2.3,2.7c3.9,0,8.1,0,10.6,0.2
			c2.5,0.2,3.5,2.3,3.5,4.4v1.5c0,4.8-0.6,11.4-1.2,15.2C379.4,641,377.5,642.3,375.2,642.3z"/>
		<path class="st2" d="M451.8,716.8c-9.3,0-24.3-3.7-33.4-11.4c-6.2-5.2-8.9-12-10.4-22.4c0,0-0.2-1.7-0.2-2.5
			c0-2.3,1.4-3.7,3.5-4.6c7.7-2.9,15.6-4.1,17.4-4.2c2.5,0,3.3,1.7,3.7,3.1c2.7,9.6,3.5,18.7,16.2,18.7c9.1,0,15-5.2,15-10.2
			c0-15.6-46.5-18.5-46.5-50.9c0-20.4,18.3-45.5,38.4-45.5c13.3,0,46.5,11,46.5,28.7c0,6-3.9,16-6,19.7c-1.4,2.7-2.3,3.3-4.6,3.5
			c-2.9,0.4-14.7,0.4-17.7,0.4c-2.7,0-3.7-1-3.7-2.5s2.7-11.4,2.7-17.2c0-7.5-4.1-10-8.3-10c-10,0-17.9,13.7-17.9,21.2
			c0,19.9,45.9,19.5,45.9,49.6C492.3,699.6,472,716.8,451.8,716.8z"/>
		<path class="st2" d="M555.9,668c0,0.8,0.4,1.4,0.8,1.9c6,9.8,13.9,20.8,20.4,27.2c0.8,0.8,1.4,1.9,1.4,2.9c0,0.8-0.4,1.7-1,2.3
			c-6,5.8-13.9,10.6-18.7,12.7c0,0-1.4,0.6-2.5,0.6c-1.5,0-2.9-0.6-3.9-1.5c-6-5.8-13.3-21.4-17-31.4c-0.6-1.9-1.5-3.7-3.1-3.7
			c-1.7,0-2.7,1.5-3.1,3.7c-1.5,9.8-3.1,20.1-4.2,29.7c-0.2,1.9-1.7,3.1-3.5,3.1c-3.7,0-16-3.7-19.1-5c-2.5-1.2-3.1-3.3-3.1-5.2
			c1-29.7,16.2-102.2,24.5-121c0.6-1.5,2.1-2.7,4.1-2.7c2.9,0,17.6,4.4,20.4,5.6c1.7,0.6,2.5,2.1,2.5,3.7c0,0.6-0.6,2.1-0.6,2.1
			c-4.1,11.2-9.8,32.4-15.6,60.4c0,0-0.2,0.8-0.2,1.2c0,1.2,0.6,1.7,1.4,1.7c1.2,0,2.7-1.5,4.1-3.1c10-11.6,22.6-26.4,28-33.2
			c0.8-1,1.9-1.5,3.1-1.5s2.1,0.8,2.1,0.8c3.9,2.7,10.8,9.3,14.5,14.1c0.6,0.8,0.8,1.7,0.8,2.5c0,1.2-0.6,2.1-1.5,3.1
			c-5.4,4.6-17.7,16.4-29.1,26.2C556.7,665.8,555.9,666.8,555.9,668z"/>
		<path class="st2" d="M609.2,715.6c-3.1,0-15.8-3.5-19.3-5c-2.1-1-3.1-2.7-3.1-4.6c0-16.2,9.5-69.1,14.7-85.1
			c0.6-1.7,2.5-3.1,4.6-3.1c2.7,0,14.3,2.7,19.9,4.8c1.5,0.6,2.7,1.7,2.7,3.5c0,0.4-0.2,1.4-0.2,1.4c-6,25.1-12.9,62.1-15.6,84.9
			C612.4,714.3,610.9,715.6,609.2,715.6z M637.9,592.1c0,10.2-7.1,17.6-18.7,17.6c-11.2,0-16.2-7.5-16.2-16.4c0-6.8,4.2-12,8.3-15.2
			c1.4-1,4.2-1.9,6.2-1.9C626.7,576.1,637.9,580.8,637.9,592.1z"/>
		<path class="st2" d="M651,715.4c-3.1,0-15.6-3.7-19.1-5.2c-1.9-0.8-3.1-2.5-3.1-5.2c1-29.7,16.2-101.9,24.1-120.8
			c0.8-1.5,2.3-2.7,4.2-2.7c3.7,0,17.7,4.2,20.4,5.6c1.5,0.8,2.5,2.1,2.5,3.7c0,0.6-0.2,1.2-0.2,1.2c-6.6,18.5-19.7,72-25.5,120.4
			C654.3,714.1,652.8,715.4,651,715.4z"/>
		<path class="st2" d="M692.5,715.4c-3.1,0-15.6-3.7-19.1-5.2c-1.9-0.8-3.1-2.5-3.1-5.2c1-29.7,16.2-101.9,24.1-120.8
			c0.8-1.5,2.3-2.7,4.2-2.7c3.7,0,17.7,4.2,20.4,5.6c1.5,0.8,2.5,2.1,2.5,3.7c0,0.6-0.2,1.2-0.2,1.2c-6.6,18.5-19.7,72-25.5,120.4
			C695.8,714.1,694.2,715.4,692.5,715.4z"/>
		<path class="st2" d="M745.6,616.8c10.6,0,42.4,9.8,42.4,24.1c0,5-3.9,12.7-5.4,14.9c-1.5,2.1-3.5,2.7-5.2,2.9h-14.5
			c-1.9,0-2.9-1.4-2.9-2.5c0-1.5,1.9-6.6,1.9-10.4c0-5.2-2.3-7.9-5.2-7.9c-6.6,0-12.3,10.8-12.3,16c0,13.3,36.7,10.2,36.7,32.4
			c0,13.9-13.7,29.7-33.4,29.7c-11.6,0-28.6-5.6-34.7-11.2c-1.7-1.5-2.1-2.9-2.1-3.9c0-2.5,2.3-11,4.1-14.7c0.8-1.7,1.5-2.3,2.7-2.3
			c1.2,0,1.9,0.8,2.3,0.8c6.8,3.7,16.2,8.7,24.1,8.7c4.4,0,8.5-1.5,8.9-4.6c0-8.1-37.2-9.1-37.2-34.1
			C715.7,639.2,729.7,616.8,745.6,616.8z"/>
		<path class="st0" d="M123,791.4H91.2v27h37.1v8.2H81.5v-76.2h46.3v8.3H91.2v24.5H123V791.4z"/>
		<path class="st0" d="M193.2,826.6h-9.8l-29.6-56.9l-0.2,56.9h-9.8v-76.2h9.8l29.6,56.8l0.2-56.8h9.8V826.6z"/>
		<path class="st0" d="M259,816.6c-3.2,3.8-6.9,6.6-11,8.4c-4.2,1.8-8.7,2.7-13.7,2.7c-3.1,0-6-0.5-8.7-1.4c-2.6-0.9-5-2.2-7.1-3.8
			c-2.1-1.6-3.9-3.5-5.5-5.7c-1.6-2.2-2.9-4.6-4-7.1c-1.1-2.6-1.9-5.3-2.4-8.1c-0.5-2.8-0.8-5.6-0.9-8.5v-8.8c0-2.8,0.3-5.6,0.8-8.5
			c0.5-2.8,1.2-5.5,2.2-8.1c1-2.6,2.2-5,3.7-7.2c1.5-2.2,3.2-4.1,5.3-5.8c2-1.6,4.4-2.9,6.9-3.8c2.6-0.9,5.5-1.4,8.7-1.4
			c3.6,0,6.8,0.5,9.8,1.6c3,1.1,5.6,2.7,7.8,4.7c2.2,2,4,4.5,5.4,7.4c1.4,2.9,2.2,6.1,2.5,9.7h-9.6c-0.4-2.2-1-4.2-1.8-6.1
			c-0.8-1.9-1.9-3.5-3.2-4.8c-1.3-1.3-2.9-2.4-4.7-3.1c-1.8-0.8-3.9-1.1-6.3-1.1c-2.3,0-4.3,0.4-6.1,1.2c-1.8,0.8-3.3,1.8-4.7,3.2
			c-1.3,1.3-2.4,2.9-3.3,4.6c-0.9,1.8-1.6,3.6-2.1,5.6c-0.6,2-1,3.9-1.2,6c-0.2,2-0.4,4-0.4,5.9v8.9c0,1.9,0.2,3.9,0.5,5.9
			c0.3,2,0.8,4,1.4,6c0.6,2,1.4,3.8,2.4,5.5c1,1.7,2.2,3.3,3.5,4.6c1.4,1.3,3,2.4,4.8,3.2c1.8,0.8,3.9,1.2,6.2,1.2
			c1.3,0,2.7,0,4.2-0.2c1.4-0.1,2.9-0.4,4.2-0.8s2.6-1,3.8-1.7c1.2-0.7,2.2-1.6,3-2.8l0.1-17.1h-15.5v-8.2h24.7L259,816.6z"/>
		<path class="st0" d="M274.1,750.4h46.1v8.4h-18.3v59.4h18.3v8.4h-46.1v-8.4h17.8v-59.4h-17.8V750.4z"/>
		<path class="st0" d="M386.1,826.6h-9.8l-29.6-56.9l-0.2,56.9h-9.8v-76.2h9.8l29.6,56.8l0.2-56.8h9.8V826.6z"/>
		<path class="st0" d="M444.6,791.4h-31.8v27h37.1v8.2h-46.8v-76.2h46.3v8.3h-36.6v24.5h31.8V791.4z"/>
		<path class="st0" d="M508.9,791.4h-31.8v27h37.1v8.2h-46.8v-76.2h46.3v8.3h-36.6v24.5h31.8V791.4z"/>
		<path class="st0" d="M556.6,795.5h-15.2v31.1h-9.6v-76.2H554c3.6,0.1,6.9,0.6,10,1.5c3.1,0.9,5.9,2.4,8.2,4.2
			c2.4,1.9,4.2,4.2,5.5,7.1c1.3,2.8,2,6.2,2,10c0,2.5-0.4,4.7-1.1,6.8c-0.7,2.1-1.7,3.9-3,5.6s-2.8,3.2-4.5,4.4
			c-1.7,1.3-3.7,2.4-5.8,3.3l16.2,32.6l-0.1,0.6h-10.2L556.6,795.5z M541.3,787.6h13c2.2,0,4.2-0.4,6.1-1c1.9-0.6,3.6-1.6,5-2.8
			c1.4-1.2,2.6-2.7,3.4-4.5c0.8-1.8,1.3-3.8,1.3-6.1c0-2.4-0.4-4.6-1.2-6.4c-0.8-1.8-1.9-3.4-3.3-4.6c-1.4-1.2-3.1-2.2-5.1-2.8
			c-2-0.6-4.1-1-6.5-1h-12.7V787.6z"/>
		<path class="st0" d="M595.6,750.4h46.1v8.4h-18.3v59.4h18.3v8.4h-46.1v-8.4h17.8v-59.4h-17.8V750.4z"/>
		<path class="st0" d="M707.7,826.6h-9.8l-29.6-56.9l-0.2,56.9h-9.8v-76.2h9.8l29.6,56.8l0.2-56.8h9.8V826.6z"/>
		<path class="st0" d="M773.6,816.6c-3.2,3.8-6.9,6.6-11,8.4c-4.2,1.8-8.7,2.7-13.7,2.7c-3.1,0-6-0.5-8.7-1.4
			c-2.6-0.9-5-2.2-7.1-3.8c-2.1-1.6-3.9-3.5-5.5-5.7c-1.6-2.2-2.9-4.6-4-7.1c-1.1-2.6-1.9-5.3-2.4-8.1c-0.5-2.8-0.8-5.6-0.9-8.5
			v-8.8c0-2.8,0.3-5.6,0.8-8.5c0.5-2.8,1.2-5.5,2.2-8.1c1-2.6,2.2-5,3.7-7.2c1.5-2.2,3.2-4.1,5.3-5.8c2-1.6,4.4-2.9,6.9-3.8
			c2.6-0.9,5.5-1.4,8.7-1.4c3.6,0,6.8,0.5,9.8,1.6c3,1.1,5.6,2.7,7.8,4.7c2.2,2,4,4.5,5.4,7.4c1.4,2.9,2.2,6.1,2.5,9.7h-9.6
			c-0.4-2.2-1-4.2-1.8-6.1c-0.8-1.9-1.9-3.5-3.2-4.8c-1.3-1.3-2.9-2.4-4.7-3.1c-1.8-0.8-3.9-1.1-6.3-1.1c-2.3,0-4.3,0.4-6.1,1.2
			c-1.8,0.8-3.3,1.8-4.7,3.2c-1.3,1.3-2.4,2.9-3.3,4.6c-0.9,1.8-1.6,3.6-2.1,5.6c-0.6,2-1,3.9-1.2,6c-0.2,2-0.4,4-0.4,5.9v8.9
			c0,1.9,0.2,3.9,0.5,5.9c0.3,2,0.8,4,1.4,6c0.6,2,1.4,3.8,2.4,5.5c1,1.7,2.2,3.3,3.5,4.6c1.4,1.3,3,2.4,4.8,3.2
			c1.8,0.8,3.9,1.2,6.2,1.2c1.3,0,2.7,0,4.2-0.2c1.4-0.1,2.9-0.4,4.2-0.8s2.6-1,3.8-1.7c1.2-0.7,2.2-1.6,3-2.8l0.1-17.1h-15.5v-8.2
			h24.7L773.6,816.6z"/>
	</g>
</g>
</svg>
