<svg version="1.1" id="Layer_1" xmlns="http://www.w3.org/2000/svg" x="0" y="0" viewBox="0 0 600 560" xml:space="preserve"><style></style><path fill="#8882Bf" d="M582.4 64.5s-.1 0 0 0l-35.5-42.3c-5.2-6.7-13.3-11-22.4-11H36.2c-15.6 0-28.4 12.7-28.4 28.3v380c0 9.5 4.7 17.9 11.8 23L61 477.1c7.8 6.6 17.8 10.2 28 10.2h14.6c-3.5 17.8-12.1 34.8-25.6 50.3-1.8 2.1-2.2 5.1-.8 7.6 1.2 2.2 3.5 3.6 5.9 3.6.3 0 .6 0 .9-.1 1.1-.1 26.2-3.6 57.7-18 18.5-8.5 35.4-19 50.2-31.3 4.7-3.9 9.2-8 13.4-12.2h358.5c15.6 0 28.3-12.7 28.3-28.3V92c.1-10-3.4-19.7-9.7-27.5zm-29.6-14.2L572 73.1c4.3 5.3 6.7 12.1 6.7 18.9v30.2l-25.1-28.4c-.2-.3-.5-.5-.8-.7V50.3zm0 63l25.9 29.3v47.2L553 160.7c-.1-.1-.1-.2-.2-.2v-47.2zM89 473.8c-7.1 0-13.9-2.5-19.3-7L47.2 448h56.1c1.8 8.6 2.5 17.3 2.1 25.9H89zm94.4 15.1c-13.9 11.5-29.7 21.4-47 29.4-14.3 6.6-27.3 10.7-37 13.3 9.3-14 15.3-28.9 17.9-44.5 2.6-15.6 1.9-31.6-2.2-47.5-.4-1.4-1.1-2.6-2.2-3.5l-.2-.2c-1.2-1-2.7-1.6-4.3-1.6H36.2c-3.1 0-5.9-.9-8.3-2.5-.2-.1-.3-.2-.5-.3-3.7-2.7-6.1-7.1-6.1-12v-380c0-8.2 6.7-14.8 14.9-14.8h488.2c4.2 0 8.1 1.8 10.8 4.7.4.4.8.9 1.1 1.4 1.8 2.5 2.9 5.5 2.9 8.8v380c0 4.9-2.4 9.3-6.2 12-.5.4-1 .7-1.5 1-2.1 1.2-4.6 1.8-7.1 1.8H232.2c-2 0-3.8.9-5.1 2.3l-.6.7c-.3.3-.5.7-.8 1.1-10.8 19.1-25 36.1-42.3 50.4zm34.3-15.1c6.8-8.1 12.9-16.8 18.2-25.9h9.4l29.3 25.9h-56.9zm77.3 0l-.4-.4-28.9-25.5h50.8l29.3 25.9H295zm71.3 0L337 447.9h53.3l29.3 25.9h-53.3zm73.6 0l-.4-.4-28.9-25.5H463l29.3 25.9h-52.4zm123.9 0h-51.3c-.2-.3-.5-.6-.9-.9l-28.3-25h41c3.7 0 7.3-.7 10.5-2l31.4 27.7c-.7.1-1.5.2-2.4.2zm14.9-14.9c0 2.2-.5 4.4-1.4 6.3l-31.1-27.4c4.1-4.9 6.6-11.3 6.6-18.2v-29.3l25.9 29.3v39.3zm0-59.8l-25.7-29c-.1-.1-.1-.2-.2-.2v-50.5l25.9 29.3v50.4zm0-70.8l-25.1-28.4c-.2-.3-.5-.5-.8-.7v-49.3l25.9 29.3v49.1zm0-69.7l-25.7-29c-.1-.1-.1-.2-.2-.2v-48.5l25.9 29.3v48.4z"/><path fill="#8882Bf" d="M536.4 30.7l-1.1-1.3v-.1c.3.5.7 1 1.1 1.4zM188.4 269.8c0 14.6-11.9 26.4-26.4 26.4-14.6 0-26.4-11.9-26.4-26.4 0-14.6 11.9-26.4 26.4-26.4 14.6-.1 26.4 11.8 26.4 26.4zM424.6 269.8c0 14.6-11.9 26.4-26.4 26.4-14.6 0-26.4-11.9-26.4-26.4 0-14.6 11.9-26.4 26.4-26.4 14.5-.1 26.4 11.8 26.4 26.4zM280.1 281.4c-21.7 0-39.4-17.7-39.4-39.4a6.7 6.7 0 0113.4 0c0 14.3 11.6 25.9 25.9 25.9 14.3 0 25.9-11.6 25.9-25.9a6.7 6.7 0 0113.4 0c.2 21.7-17.5 39.4-39.2 39.4zM191.5 162.1c-15.9 0-28.9 13-28.9 28.9 0 15.9 13 28.9 28.9 28.9 15.9 0 28.9-13 28.9-28.9 0-15.9-13-28.9-28.9-28.9zm6.2 31.4c-3.4 0-6.2-3.3-6.2-7.4s2.8-7.4 6.2-7.4c3.4 0 6.2 3.3 6.2 7.4s-2.8 7.4-6.2 7.4zM368.6 162.1c-15.9 0-28.9 13-28.9 28.9 0 15.9 13 28.9 28.9 28.9 15.9 0 28.9-13 28.9-28.9 0-15.9-12.9-28.9-28.9-28.9zm6.2 31.4c-3.4 0-6.2-3.3-6.2-7.4s2.8-7.4 6.2-7.4c3.4 0 6.2 3.3 6.2 7.4s-2.8 7.4-6.2 7.4z"/></svg>
