<svg xmlns="http://www.w3.org/2000/svg" viewBox="0 0 50 50" fill="#031268"><path d="M25 0c-6.078 0-11 4.785-11 10.719V11h7.5c.55 0 1 .45 1 1s-.45 1-1 1H14v2h7.5c.55 0 1 .45 1 1s-.45 1-1 1H14v2h7.5c.55 0 1 .45 1 1s-.45 1-1 1H14v2.281C14 29.215 18.922 34 25 34s11-4.785 11-10.719V21h-7.5a1 1 0 110-2H36v-2h-7.5a1 1 0 110-2H36v-2h-7.5a1 1 0 110-2H36v-.281C36 4.785 31.078 0 25 0zM9.812 17.125a.87.87 0 00-.687.875v5c0 7.715 5.563 14.184 12.875 15.594V44h6v-5.406c7.313-1.41 12.875-7.88 12.875-15.594v-5a.874.874 0 00-.875-.875.874.874 0 00-.875.875v5c0 7.8-6.324 14.125-14.125 14.125-7.8 0-14.125-6.324-14.125-14.125v-5a.872.872 0 00-.285-.656.862.862 0 00-.684-.219h-.094zM15.5 46a3.476 3.476 0 00-3.469 3.469L12 50l25.875-.063.031-.468A3.476 3.476 0 0034.438 46z"/></svg>
