<svg xmlns="http://www.w3.org/2000/svg" viewBox="0 0 30 30" fill="#031268"><path d="M15 1C7.832 1 2 6.832 2 14c0 5.007 2.842 9.359 7.002 11.527a1 1 0 00.926-1.773C6.408 21.919 4 18.25 4 14 4 7.914 8.914 3 15 3s11 4.914 11 11c0 4.25-2.407 7.92-5.926 9.754a1 1 0 10.924 1.773C25.157 23.36 28 19.007 28 14c0-7.168-5.832-13-13-13zm0 4c-4.959 0-9 4.041-9 9a8.981 8.981 0 002.748 6.467 1 1 0 001.39-1.44A6.957 6.957 0 018 14c0-3.877 3.123-7 7-7s7 3.123 7 7c0 1.98-.82 3.753-2.139 5.027a1 1 0 101.391 1.44A8.981 8.981 0 0024 14c0-4.959-4.041-9-9-9zm0 6a3 3 0 00-3 3 3 3 0 003 3 3 3 0 003-3 3 3 0 00-3-3zm0 8a3 3 0 00-3 3c0 .148.024.29.045.434h-.012l.028.158c0 .006 0 .013.002.02l.953 5.626.007-.002A1.995 1.995 0 0015 30a1.995 1.995 0 001.977-1.764l.007.002.953-5.627c.002-.006.001-.013.002-.02l.028-.157h-.012c.021-.143.045-.286.045-.434a3 3 0 00-3-3z" fill="#031268"/></svg>
