<?xml version="1.0" encoding="utf-8"?>
<!-- Generator: Adobe Illustrator 22.1.0, SVG Export Plug-In . SVG Version: 6.00 Build 0)  -->
<svg version="1.1" id="Layer_1" xmlns="http://www.w3.org/2000/svg" xmlns:xlink="http://www.w3.org/1999/xlink" x="0px" y="0px"
	 viewBox="0 0 430 420" style="enable-background:new 0 0 430 420;" xml:space="preserve">
<style type="text/css">
	.st0{fill:#F7D054;}
	.st1{fill:#FDE89A;}
	.st2{fill:#031268;}
	.st3{fill:#92D3C2;}
	.st4{fill:#C2FDE9;}
	.st5{fill:#A29CD8;}
	.st6{fill:#CDCAE8;}
	.st7{fill:#68CCEA;}
	.st8{fill:#B3EFFF;}
	.st9{fill:#FFFFFF;}
	.st10{fill:#FDC0BD;stroke:#031268;stroke-width:12.2745;stroke-linecap:round;stroke-linejoin:round;stroke-miterlimit:10;}
	.st11{fill:none;}
</style>
<g>
	<g>
		<circle class="st9" cx="124.2" cy="198.7" r="34.9"/>
		<path class="st2" d="M124.2,239.7c-22.6,0-41-18.4-41-41c0-22.6,18.4-41,41-41s41,18.4,41,41C165.2,221.3,146.8,239.7,124.2,239.7
			z M124.2,169.9c-15.8,0-28.7,12.9-28.7,28.7s12.9,28.7,28.7,28.7s28.7-12.9,28.7-28.7S140,169.9,124.2,169.9z"/>
	</g>
	<g>
		<path class="st5" d="M393.3,163.6v115.6c0,5-4.1,9.1-9.1,9.1h-50.9l-29.3,16.9l-129.5,74.7l-2.1,1.2c-1.6,0.9-3.3,1.3-5,1.2
			l-4.5-3.3l-20.7-15.3l95.5-59.2l124.4-123.9l1-40.3l21.7,17.7l2.8-2.8C391,156.6,393.3,159.8,393.3,163.6z"/>
		<path class="st6" d="M361.5,140.9v115.6c0,5-4.1,9.1-9.1,9.1h-51l-29.3,16.9l-131.5,75.9c-6,3.5-13.6-0.9-13.6-7.9V46.8
			c0-7,7.6-11.4,13.6-7.9l131.5,75.9l29.3,16.9h51C357.4,131.8,361.5,135.9,361.5,140.9z"/>
	</g>
	<g>
		<path class="st2" d="M80.2,255c-1.8,0-3.7-0.8-4.9-2.4c-0.4-0.5-9.5-12.6-14.1-31.8C57,203,55.9,175.5,75,145.2
			c1.8-2.9,5.6-3.7,8.5-1.9c2.9,1.8,3.7,5.6,1.9,8.5c-32,50.9-0.6,93-0.3,93.4c2.1,2.7,1.6,6.5-1.1,8.6
			C82.8,254.6,81.5,255,80.2,255z"/>
		<path class="st2" d="M59.4,278.8c-1.8,0-3.7-0.8-4.9-2.4c-0.6-0.7-13.7-18.1-20.3-45.9c-6.1-25.7-7.6-65.4,20-109.2
			c1.8-2.9,5.6-3.7,8.5-1.9c2.9,1.8,3.7,5.6,1.9,8.5c-20.3,32.3-26.5,65.9-18.4,99.8c6,25.3,18,41.1,18.1,41.2
			c2.1,2.7,1.6,6.5-1.1,8.6C62,278.4,60.7,278.8,59.4,278.8z"/>
	</g>
	<path class="st2" d="M395.3,153.2c-0.2-0.2-0.3-0.4-0.5-0.5c-0.2-0.2-0.4-0.3-0.6-0.5l-2.8-2l0,0l-28.2-20l0,0
		c-2.8-2.7-6.5-4.5-10.8-4.5h-49.3l-159.4-92c-4.8-2.8-10.4-2.8-15.2,0c-4.8,2.8-7.6,7.7-7.6,13.2v303.7c0,5.1,2.4,9.7,6.5,12.5
		c0.2,0.2,0.4,0.4,0.7,0.6l29.7,21.1c0,0,0,0,0.1,0c2.8,2.5,6.4,3.7,10,3.7c2.6,0,5.2-0.7,7.6-2l159.4-92h49.3
		c8.4,0,15.2-6.8,15.2-15.2V163.6C399.4,159.6,397.9,155.9,395.3,153.2z M367.6,148.3l15.7,11.2l0,0l1.7,1.2l1.5,1
		c0.4,0.5,0.6,1.1,0.6,1.8v28.9l-19.5-19.2V148.3z M306.3,137.9h46.1c1.6,0,2.9,1.3,2.9,2.9v115.6c0,1.6-1.3,2.9-2.9,2.9h-46.1
		V137.9z M134.6,353.1c-0.4-0.2-1.5-1-1.5-2.5V46.8c0-1.5,1-2.3,1.5-2.5c0.5-0.3,1.6-0.8,3,0L294,134.6v128.1l-156.5,90.3
		C136.2,353.8,135.1,353.3,134.6,353.1z M169.3,375.8c-1.3,0.8-2.7,0.3-3.4-0.4c-0.2-0.1-0.3-0.3-0.5-0.4c-0.2-0.1-0.3-0.2-0.5-0.4
		l-18-12.8l28.8-16.6l17,17L169.3,375.8z M203.7,355.9c0,0-0.1-0.1-0.1-0.1l-16.9-16.9l30.3-17.5l17,17L203.7,355.9z M245.1,332
		c-0.1-0.2-0.2-0.3-0.4-0.4L228.1,315l26.9-15.5l17,17L245.1,332z M283,310.1l-17-17l31.6-18.3c0,0,0,0,0,0l17,17L283,310.1z
		 M333.2,282.1c-1.1,0-2.1,0.3-3.1,0.8l-4.5,2.6l-13.9-13.9h40.6c3.6,0,6.9-1.2,9.5-3.3l13.7,13.7H333.2z M387.1,276.3l-19.5-19.5
		c0-0.1,0-0.2,0-0.3v-21.7l19.5,19.2V276.3z M387.1,236.7l-19.5-19.2v-27l19.5,19.2V236.7z"/>
</g>
</svg>
