<svg version="1.1" id="Layer_1" xmlns="http://www.w3.org/2000/svg" x="0" y="0" viewBox="0 0 430 420" xml:space="preserve"><style>.st2{fill:#031268}</style><circle cx="124.2" cy="198.7" r="34.9" fill="#fff"/><path class="st2" d="M124.2 239.7c-22.6 0-41-18.4-41-41s18.4-41 41-41 41 18.4 41 41-18.4 41-41 41zm0-69.8c-15.8 0-28.7 12.9-28.7 28.7s12.9 28.7 28.7 28.7 28.7-12.9 28.7-28.7-12.9-28.7-28.7-28.7z"/><path d="M393.3 163.6v115.6c0 5-4.1 9.1-9.1 9.1h-50.9L304 305.2l-129.5 74.7-2.1 1.2c-1.6.9-3.3 1.3-5 1.2l-4.5-3.3-20.7-15.3 95.5-59.2 124.4-123.9 1-40.3 21.7 17.7 2.8-2.8c3.4 1.4 5.7 4.6 5.7 8.4z" fill="#a29cd8"/><path d="M361.5 140.9v115.6c0 5-4.1 9.1-9.1 9.1h-51l-29.3 16.9-131.5 75.9c-6 3.5-13.6-.9-13.6-7.9V46.8c0-7 7.6-11.4 13.6-7.9l131.5 75.9 29.3 16.9h51c5 .1 9.1 4.2 9.1 9.2z" fill="#cdcae8"/><g><path class="st2" d="M80.2 255c-1.8 0-3.7-.8-4.9-2.4-.4-.5-9.5-12.6-14.1-31.8C57 203 55.9 175.5 75 145.2c1.8-2.9 5.6-3.7 8.5-1.9 2.9 1.8 3.7 5.6 1.9 8.5-32 50.9-.6 93-.3 93.4 2.1 2.7 1.6 6.5-1.1 8.6-1.2.8-2.5 1.2-3.8 1.2z"/><path class="st2" d="M59.4 278.8c-1.8 0-3.7-.8-4.9-2.4-.6-.7-13.7-18.1-20.3-45.9-6.1-25.7-7.6-65.4 20-109.2 1.8-2.9 5.6-3.7 8.5-1.9 2.9 1.8 3.7 5.6 1.9 8.5-20.3 32.3-26.5 65.9-18.4 99.8 6 25.3 18 41.1 18.1 41.2 2.1 2.7 1.6 6.5-1.1 8.6-1.2.9-2.5 1.3-3.8 1.3z"/></g><path class="st2" d="M395.3 153.2c-.2-.2-.3-.4-.5-.5-.2-.2-.4-.3-.6-.5l-2.8-2-28.2-20c-2.8-2.7-6.5-4.5-10.8-4.5h-49.3l-159.4-92c-4.8-2.8-10.4-2.8-15.2 0-4.8 2.8-7.6 7.7-7.6 13.2v303.7c0 5.1 2.4 9.7 6.5 12.5.2.2.4.4.7.6l29.7 21.1h.1c2.8 2.5 6.4 3.7 10 3.7 2.6 0 5.2-.7 7.6-2l159.4-92h49.3c8.4 0 15.2-6.8 15.2-15.2V163.6c0-4-1.5-7.7-4.1-10.4zm-27.7-4.9l15.7 11.2 1.7 1.2 1.5 1c.4.5.6 1.1.6 1.8v28.9l-19.5-19.2v-24.9zm-61.3-10.4h46.1c1.6 0 2.9 1.3 2.9 2.9v115.6c0 1.6-1.3 2.9-2.9 2.9h-46.1V137.9zM134.6 353.1c-.4-.2-1.5-1-1.5-2.5V46.8c0-1.5 1-2.3 1.5-2.5.5-.3 1.6-.8 3 0L294 134.6v128.1L137.5 353c-1.3.8-2.4.3-2.9.1zm34.7 22.7c-1.3.8-2.7.3-3.4-.4-.2-.1-.3-.3-.5-.4-.2-.1-.3-.2-.5-.4l-18-12.8 28.8-16.6 17 17-23.4 13.6zm34.4-19.9l-.1-.1-16.9-16.9 30.3-17.5 17 17-30.3 17.5zm41.4-23.9c-.1-.2-.2-.3-.4-.4L228.1 315l26.9-15.5 17 17-26.9 15.5zm37.9-21.9l-17-17 31.6-18.3 17 17-31.6 18.3zm50.2-28c-1.1 0-2.1.3-3.1.8l-4.5 2.6-13.9-13.9h40.6c3.6 0 6.9-1.2 9.5-3.3l13.7 13.7h-42.3zm53.9-5.8l-19.5-19.5v-22l19.5 19.2v22.3zm0-39.6l-19.5-19.2v-27l19.5 19.2v27z"/></svg>