<svg width="20" height="20" xmlns="http://www.w3.org/2000/svg"><path d="M10 0C4.486 0 0 4.486 0 10s4.486 10 10 10 10-4.486 10-10S15.514 0 10 0zm4.233 14.495a.651.651 0 01-.905.18c-1.075-.716-2.897-1.194-4.418-1.194-1.615.001-2.825.397-2.837.401a.65.65 0 11-.412-1.236c.058-.02 1.425-.467 3.249-.468 1.52-.001 3.636.41 5.142 1.413.3.2.38.604.18.904zm1.3-2.669a.746.746 0 01-1.028.239c-1.949-1.214-3.951-1.471-5.677-1.456a17.256 17.256 0 00-3.532.397.746.746 0 11-.407-1.436c.12-.034 1.675-.417 3.804-.434 1.94-.017 4.358.265 6.602 1.662a.746.746 0 01.238 1.028zm1.297-3.12a.87.87 0 01-1.19.31c-2.27-1.334-5.032-1.617-6.95-1.62h-.026c-2.318 0-4.103.408-4.121.412a.87.87 0 01-.395-1.693c.08-.018 1.987-.457 4.516-.457h.03c2.131.003 5.22.327 7.827 1.858a.87.87 0 01.31 1.19z" fill="#031268" fill-rule="nonzero"/></svg>