<svg version="1.1" id="Layer_1" xmlns="http://www.w3.org/2000/svg" x="0" y="0" viewBox="0 0 370 370" xml:space="preserve"><style>.st0{fill:#f7d054}</style><path class="st0" d="M60.2 349.4l-.3.5-.2-.3z"/><path class="st0" d="M342 195.5c0 79.9-64.8 144.7-144.7 144.7-23.2 0-45.1-5.5-64.5-15.2L99 336.3l-38.8 13.1-.6.2-1.5-1.8-24-28.5 42.3-10.6L197.3 50.8c79.9 0 144.7 64.7 144.7 144.7z"/><path class="st0" d="M59.7 349.6l-2.9.9 1.3-2.7z"/><path d="M317.4 163.6c0 79.9-64.8 144.7-144.7 144.7-23.2 0-45.1-5.5-64.5-15.2l-33.7 11.3-42.2 14.2 14.2-42.2 9.3-27.6C38.3 224.9 28 195.4 28 163.6c0-80 64.8-144.7 144.7-144.7s144.7 64.7 144.7 144.7z" fill="#fde89a"/><path d="M303.4 88.7c-26-45.2-74.9-75.8-130.7-75.8-83.1 0-150.6 67.6-150.6 150.6 0 31.1 9.4 60.8 27.1 86.2l-22.5 67c-.2.6-.3 1.3-.3 1.9-.3 1.5 0 3.2 1 4.5l23.1 31.5c1.2 1.6 3 2.4 4.8 2.4 1 0 2-.2 2.9-.8.2 0 .4-.1.6-.2l73.6-24.8c20.3 9.8 42.1 14.7 65 14.7 83.1 0 150.6-67.6 150.6-150.6-.1-41.5-17.1-79.3-44.6-106.6zm-242 162c.6-1.8.3-3.8-.8-5.4C43.2 221.4 34 193.2 34 163.6 34 87 96.2 24.8 172.7 24.8c36.5 0 69.8 14.2 94.7 37.4 10.5 9.8 19.5 21.2 26.5 33.8 11.2 20 17.6 43 17.6 67.6 0 76.5-62.3 138.8-138.8 138.8-21.8 0-42.6-4.9-61.9-14.5-1.4-.7-3.1-.8-4.6-.3l-64.6 21.7 19.8-58.6zm-4 93.4l-16.3-22.2 21.7-7.3 20.5 20.8-25.9 8.7zM96.3 331l-20.5-20.8 29.1-9.8c.2.2.4.5.6.7L126 321l-29.7 10zm51.5-5.8c-.2-.2-.3-.4-.5-.6l-16.8-16.4c10.4 3.1 21.2 5 32.2 5.7.2.3.5.6.7.8l19.2 18.8c-12-1.3-23.6-4-34.8-8.3zm53.1 9L180.2 314c12.5-.6 24.6-2.8 36.1-6.2 0 .1.1.1.2.2l21 20.4c-11.7 3.4-23.9 5.5-36.6 5.8zm49.4-10.5l-21.1-20.5c10.4-4.2 20.3-9.6 29.4-16l20.3 20.3c-8.7 6.5-18.3 12-28.6 16.2zm38.3-23.8l-20.1-20.1c8.5-7 16.2-14.9 22.9-23.5l19.2 19.2c-6.3 8.9-13.7 17.1-22 24.4zm28.8-35l-18.7-18.7c8.1-12.2 14.4-25.8 18.6-40.1l15.9 15.8.3.3c-3 15.2-8.5 29.6-16.1 42.7zm3.3-72.9c1.8-9.2 2.7-18.7 2.7-28.5 0-11.5-1.3-22.8-3.8-33.5 10.5 19.5 16.4 41.8 16.4 65.5 0 3.8-.2 7.7-.5 11.4L320.7 192z" fill="#031268"/></svg>