<?xml version="1.0" encoding="utf-8"?>
<!-- Generator: Adobe Illustrator 22.1.0, SVG Export Plug-In . SVG Version: 6.00 Build 0)  -->
<svg version="1.1" id="Layer_1" xmlns="http://www.w3.org/2000/svg" xmlns:xlink="http://www.w3.org/1999/xlink" x="0px" y="0px"
	 viewBox="0 0 370 370" style="enable-background:new 0 0 370 370;" xml:space="preserve">
<style type="text/css">
	.st0{fill:#F7D054;}
	.st1{fill:#FDE89A;}
	.st2{fill:#031268;}
	.st3{fill:#92D3C2;}
	.st4{fill:#C2FDE9;}
	.st5{fill:#A29CD8;}
	.st6{fill:#CDCAE8;}
	.st7{fill:#68CCEA;}
	.st8{fill:#B3EFFF;}
	.st9{fill:#FFFFFF;}
	.st10{fill:#FDC0BD;stroke:#031268;stroke-width:12.2745;stroke-linecap:round;stroke-linejoin:round;stroke-miterlimit:10;}
	.st11{fill:none;}
</style>
<g>
	<g>
		<polygon class="st0" points="60.2,349.4 59.9,349.9 59.7,349.6 		"/>
		<path class="st0" d="M342,195.5c0,79.9-64.8,144.7-144.7,144.7c-23.2,0-45.1-5.5-64.5-15.2L99,336.3l-38.8,13.1l-0.6,0.2l-1.5-1.8
			l-24-28.5l42.3-10.6L197.3,50.8C277.2,50.8,342,115.5,342,195.5z"/>
		<polygon class="st0" points="59.7,349.6 56.8,350.5 58.1,347.8 		"/>
		<path class="st1" d="M317.4,163.6c0,79.9-64.8,144.7-144.7,144.7c-23.2,0-45.1-5.5-64.5-15.2l-33.7,11.3l-42.2,14.2l14.2-42.2
			l9.3-27.6C38.3,224.9,28,195.4,28,163.6C28,83.6,92.8,18.9,172.7,18.9S317.4,83.6,317.4,163.6z"/>
	</g>
	<path class="st2" d="M303.4,88.7c-26-45.2-74.9-75.8-130.7-75.8c-83.1,0-150.6,67.6-150.6,150.6c0,31.1,9.4,60.8,27.1,86.2
		l-22.5,67c-0.2,0.6-0.3,1.3-0.3,1.9c-0.3,1.5,0,3.2,1,4.5l23.1,31.5c1.2,1.6,3,2.4,4.8,2.4c1,0,2-0.2,2.9-0.8
		c0.2,0,0.4-0.1,0.6-0.2l73.6-24.8c20.3,9.8,42.1,14.7,65,14.7c83.1,0,150.6-67.6,150.6-150.6C347.9,153.8,330.9,116,303.4,88.7z
		 M61.4,250.7c0.6-1.8,0.3-3.8-0.8-5.4C43.2,221.4,34,193.2,34,163.6C34,87,96.2,24.8,172.7,24.8c36.5,0,69.8,14.2,94.7,37.4
		c10.5,9.8,19.5,21.2,26.5,33.8c0,0,0,0,0,0c11.2,20,17.6,43,17.6,67.6c0,76.5-62.3,138.8-138.8,138.8c-21.8,0-42.6-4.9-61.9-14.5
		c-1.4-0.7-3.1-0.8-4.6-0.3l-64.6,21.7L61.4,250.7z M57.4,344.1l-16.3-22.2l21.7-7.3l20.5,20.8L57.4,344.1z M96.3,331l-20.5-20.8
		l29.1-9.8c0.2,0.2,0.4,0.5,0.6,0.7L126,321L96.3,331z M147.8,325.2c-0.2-0.2-0.3-0.4-0.5-0.6l-16.8-16.4c10.4,3.1,21.2,5,32.2,5.7
		c0.2,0.3,0.5,0.6,0.7,0.8l19.2,18.8C170.6,332.2,159,329.5,147.8,325.2z M200.9,334.2L180.2,314c12.5-0.6,24.6-2.8,36.1-6.2
		c0,0.1,0.1,0.1,0.2,0.2l21,20.4C225.8,331.8,213.6,333.9,200.9,334.2z M250.3,323.7l-21.1-20.5c10.4-4.2,20.3-9.6,29.4-16
		l20.3,20.3C270.2,314,260.6,319.5,250.3,323.7z M288.6,299.9l-20.1-20.1c8.5-7,16.2-14.9,22.9-23.5l19.2,19.2c0,0,0,0,0,0
		C304.3,284.4,296.9,292.6,288.6,299.9z M317.4,264.9l-18.7-18.7c8.1-12.2,14.4-25.8,18.6-40.1l15.9,15.8c0.1,0.1,0.2,0.2,0.3,0.3
		C330.5,237.4,325,251.8,317.4,264.9z M320.7,192c1.8-9.2,2.7-18.7,2.7-28.5c0-11.5-1.3-22.8-3.8-33.5
		c10.5,19.5,16.4,41.8,16.4,65.5c0,3.8-0.2,7.7-0.5,11.4L320.7,192z"/>
</g>
</svg>
