<svg xmlns="http://www.w3.org/2000/svg"><path d="M30 2.967c-1.124.51-2.316.845-3.536.993A6.302 6.302 0 0029.17.47 12.156 12.156 0 0125.261 2C23.357-.088 20.32-.602 17.86.747c-2.46 1.35-3.726 4.225-3.086 7.008-4.95-.254-9.561-2.65-12.687-6.591a6.403 6.403 0 00-.833 3.171 6.35 6.35 0 002.738 5.25 6.01 6.01 0 01-2.787-.788v.08c0 3.003 2.065 5.59 4.937 6.186a6.042 6.042 0 01-2.78.108c.806 2.57 3.117 4.331 5.75 4.382A12.157 12.157 0 010 22.166 17.116 17.116 0 009.435 25c11.321 0 17.512-9.613 17.512-17.95 0-.273-.005-.546-.018-.816 1.205-.894 2.245-2 3.071-3.267z" fill="currentColor" fill-rule="nonzero"/></svg>
