<svg xmlns="http://www.w3.org/2000/svg" width="399" height="96" viewBox="0 0 399 96">
  <g fill="none" fill-rule="evenodd">
    <g fill="#000" transform="translate(2.71 55.7)">
      <polygon points=".538 1.564 3.786 1.564 13.188 27.547 22.59 1.564 25.838 1.564 14.726 31.65 11.65 31.65"/>
      <path fill-rule="nonzero" d="M46.8632479,21.0512821 C46.8632479,21.5641026 46.8632479,21.9059829 46.6923077,22.4188034 L27.8888889,22.4188034 C28.5726496,26.8632479 31.8205128,29.4273504 36.4358974,29.4273504 C39.8547009,29.4273504 42.2478632,27.8888889 43.2735043,25.8376068 L45.8376068,27.3760684 C43.957265,30.2820513 40.7094017,32.3333333 36.4358974,32.3333333 C29.5982906,32.3333333 24.982906,27.5470085 24.982906,21.0512821 C24.982906,14.7264957 29.5982906,9.76923077 36.2649573,9.76923077 C42.7606838,9.5982906 46.8632479,15.0683761 46.8632479,21.0512821 Z M27.8888889,19.5128205 L43.957265,19.5128205 C43.2735043,14.7264957 39.8547009,12.3333333 36.2649573,12.3333333 C31.6495726,12.5042735 28.4017094,15.4102564 27.8888889,19.5128205 Z"/>
      <polygon points="51.65 .368 54.556 .368 54.556 31.65 51.65 31.65"/>
      <path fill-rule="nonzero" d="M59.3418803,20.8803419 C59.3418803,14.5555556 64.2991453,9.5982906 70.6239316,9.5982906 C76.9487179,9.5982906 81.9059829,14.5555556 81.9059829,20.8803419 C81.9059829,27.2051282 76.9487179,32.1623932 70.6239316,32.1623932 C64.2991453,32.1623932 59.3418803,27.2051282 59.3418803,20.8803419 Z M79,20.8803419 C79,16.0940171 75.2393162,12.3333333 70.6239316,12.3333333 C66.008547,12.3333333 62.2478632,16.0940171 62.2478632,20.8803419 C62.2478632,25.6666667 66.008547,29.4273504 70.6239316,29.4273504 C75.2393162,29.4273504 79,25.6666667 79,20.8803419 Z"/>
      <path d="M85.4957265,20.8803419 C85.4957265,14.5555556 90.2820513,9.5982906 96.7777778,9.5982906 C101.051282,9.5982906 104.641026,11.8205128 106.179487,15.2393162 L103.786325,16.6068376 C102.589744,14.042735 99.8547009,12.3333333 96.7777778,12.3333333 C91.991453,12.3333333 88.4017094,16.0940171 88.4017094,20.8803419 C88.4017094,25.6666667 92.1623932,29.4273504 96.7777778,29.4273504 C100.025641,29.4273504 102.589744,27.7179487 103.957265,25.1538462 L106.350427,26.5213675 C104.641026,29.9401709 100.880342,32.1623932 96.7777778,32.1623932 C90.2820513,32.1623932 85.4957265,27.2051282 85.4957265,20.8803419 Z"/>
      <path fill-rule="nonzero" d="M110.111111,3.61538462 C110.111111,2.41880342 110.965812,1.56410256 112.162393,1.56410256 C113.358974,1.56410256 114.213675,2.58974359 114.213675,3.61538462 C114.213675,4.64102564 113.358974,5.66666667 112.162393,5.66666667 C110.965812,5.66666667 110.111111,4.64102564 110.111111,3.61538462 Z M110.623932,10.1111111 L113.529915,10.1111111 L113.529915,31.6495726 L110.623932,31.6495726 L110.623932,10.1111111 Z"/>
      <path d="M124.470085 13.017094L124.470085 26.008547C124.470085 29.7692308 126.521368 29.4273504 130.623932 29.2564103L130.623932 31.8205128C124.811966 32.6752137 121.564103 31.3076923 121.564103 26.1794872L121.564103 13.1880342 117.119658 13.1880342 117.119658 10.4529915 121.564103 10.4529915 121.564103 5.32478632 124.470085 4.47008547 124.470085 10.4529915 130.623932 10.4529915 130.623932 13.1880342 124.470085 13.1880342 124.470085 13.017094zM154.555556 10.1111111L145.324786 33.5299145C143.615385 37.6324786 140.538462 40.3675214 136.606838 40.1965812L136.606838 37.4615385C139.34188 37.8034188 141.393162 35.7521368 142.418803 33.017094L142.931624 31.6495726 133.358974 10.1111111 136.435897 10.1111111 144.470085 28.0598291 151.478632 10.1111111 154.555556 10.1111111zM168.059829 16.6068376C168.059829 8.05982906 174.555556 1.05128205 183.786325 1.05128205 189.42735 1.05128205 194.384615 3.95726496 196.777778 8.4017094L194.042735 9.94017094C192.162393 6.35042735 188.230769 3.95726496 183.615385 3.95726496 176.094017 3.95726496 170.794872 9.5982906 170.794872 16.6068376 170.794872 23.6153846 175.923077 29.2564103 183.615385 29.2564103 188.059829 29.2564103 192.162393 26.8632479 194.042735 23.2735043L196.777778 24.8119658C194.384615 29.2564103 189.42735 32.1623932 183.786325 32.1623932 174.555556 32.1623932 168.059829 25.1538462 168.059829 16.6068376z"/>
      <path fill-rule="nonzero" d="M200.025641,20.8803419 C200.025641,14.5555556 204.982906,9.5982906 211.307692,9.5982906 C217.632479,9.5982906 222.589744,14.5555556 222.589744,20.8803419 C222.589744,27.2051282 217.632479,32.1623932 211.307692,32.1623932 C204.982906,32.1623932 200.025641,27.2051282 200.025641,20.8803419 Z M219.683761,20.8803419 C219.683761,16.0940171 215.923077,12.3333333 211.307692,12.3333333 C206.521368,12.3333333 202.931624,16.0940171 202.931624,20.8803419 C202.931624,25.6666667 206.692308,29.4273504 211.307692,29.4273504 C216.094017,29.4273504 219.683761,25.6666667 219.683761,20.8803419 Z"/>
      <path d="M246.008547 18.4871795L246.008547 31.6495726 243.102564 31.6495726 243.102564 18.4871795C243.102564 14.7264957 241.051282 12.5042735 237.290598 12.5042735 233.529915 12.5042735 230.282051 14.7264957 230.282051 20.5384615L230.282051 31.8205128 227.376068 31.8205128 227.376068 10.1111111 230.282051 10.1111111 230.282051 13.5299145C231.991453 10.7948718 234.384615 9.5982906 237.461538 9.5982906 242.760684 9.5982906 246.008547 13.1880342 246.008547 18.4871795zM255.581197 9.25641026L255.581197 10.1111111 261.735043 10.1111111 261.735043 12.8461538 255.581197 12.8461538 255.581197 31.6495726 252.675214 31.6495726 252.675214 12.8461538 249.08547 12.8461538 249.08547 10.1111111 252.675214 10.1111111 252.675214 9.25641026C252.675214 3.61538462 255.923077.538461538 261.735043 1.05128205L261.735043 3.78632479C257.632479 3.44444444 255.581197 5.15384615 255.581197 9.25641026z"/>
      <path fill-rule="nonzero" d="M285.153846,21.0512821 C285.153846,21.5641026 285.153846,21.9059829 284.982906,22.4188034 L266.179487,22.4188034 C266.863248,26.8632479 270.111111,29.4273504 274.726496,29.4273504 C278.145299,29.4273504 280.538462,27.8888889 281.564103,25.8376068 L284.128205,27.3760684 C282.247863,30.2820513 279,32.3333333 274.726496,32.3333333 C267.888889,32.3333333 263.273504,27.5470085 263.273504,21.0512821 C263.273504,14.7264957 267.888889,9.76923077 274.555556,9.76923077 C281.051282,9.5982906 285.153846,15.0683761 285.153846,21.0512821 Z M266.179487,19.5128205 L282.247863,19.5128205 C281.564103,14.7264957 278.145299,12.3333333 274.555556,12.3333333 C269.940171,12.5042735 266.692308,15.4102564 266.179487,19.5128205 Z"/>
      <path d="M299.512821,9.76923077 L299.512821,12.6752137 C296.094017,12.6752137 292.675214,14.5555556 292.675214,19.8547009 L292.675214,31.8205128 L289.769231,31.8205128 L289.769231,10.1111111 L292.675214,10.1111111 L292.675214,13.7008547 C294.213675,10.7948718 296.777778,9.76923077 299.512821,9.76923077 Z"/>
      <path fill-rule="nonzero" d="M322.931624,21.0512821 C322.931624,21.5641026 322.931624,21.9059829 322.760684,22.4188034 L303.957265,22.4188034 C304.641026,26.8632479 307.888889,29.4273504 312.504274,29.4273504 C315.923077,29.4273504 318.316239,27.8888889 319.34188,25.8376068 L321.905983,27.3760684 C320.025641,30.2820513 316.777778,32.3333333 312.504274,32.3333333 C305.666667,32.3333333 301.051282,27.5470085 301.051282,21.0512821 C301.051282,14.7264957 305.666667,9.76923077 312.333333,9.76923077 C318.82906,9.5982906 322.931624,15.0683761 322.931624,21.0512821 Z M303.957265,19.5128205 L320.025641,19.5128205 C319.34188,14.7264957 315.923077,12.3333333 312.333333,12.3333333 C307.888889,12.5042735 304.641026,15.4102564 303.957265,19.5128205 Z"/>
      <path d="M346.179487 18.4871795L346.179487 31.6495726 343.273504 31.6495726 343.273504 18.4871795C343.273504 14.7264957 341.222222 12.5042735 337.461538 12.5042735 333.700855 12.5042735 330.452991 14.7264957 330.452991 20.5384615L330.452991 31.8205128 327.547009 31.8205128 327.547009 10.1111111 330.452991 10.1111111 330.452991 13.5299145C332.162393 10.7948718 334.555556 9.5982906 337.632479 9.5982906 343.102564 9.5982906 346.179487 13.1880342 346.179487 18.4871795zM350.794872 20.8803419C350.794872 14.5555556 355.581197 9.5982906 362.076923 9.5982906 366.350427 9.5982906 369.940171 11.8205128 371.478632 15.2393162L369.08547 16.6068376C367.888889 14.042735 365.153846 12.3333333 362.076923 12.3333333 357.290598 12.3333333 353.700855 16.0940171 353.700855 20.8803419 353.700855 25.6666667 357.461538 29.4273504 362.076923 29.4273504 365.324786 29.4273504 367.888889 27.7179487 369.25641 25.1538462L371.649573 26.5213675C369.940171 29.9401709 366.179487 32.1623932 362.076923 32.1623932 355.581197 32.1623932 350.794872 27.2051282 350.794872 20.8803419z"/>
      <path fill-rule="nonzero" d="M396.264957,21.0512821 C396.264957,21.5641026 396.264957,21.9059829 396.094017,22.4188034 L377.290598,22.4188034 C377.974359,26.8632479 381.222222,29.4273504 385.837607,29.4273504 C389.25641,29.4273504 391.649573,27.8888889 392.675214,25.8376068 L395.239316,27.3760684 C393.358974,30.2820513 390.111111,32.3333333 385.837607,32.3333333 C379,32.3333333 374.384615,27.5470085 374.384615,21.0512821 C374.384615,14.7264957 379,9.76923077 385.666667,9.76923077 C392.162393,9.5982906 396.264957,15.0683761 396.264957,21.0512821 Z M377.290598,19.5128205 L393.358974,19.5128205 C392.675214,14.7264957 389.25641,12.3333333 385.666667,12.3333333 C381.051282,12.5042735 377.803419,15.4102564 377.290598,19.5128205 Z"/>
    </g>
    <g fill="#D3002D">
      <polygon points="101.197 1.368 101.197 44.444 131.111 44.444 131.111 37.265 108.376 37.265 108.376 26.496 129.915 26.496 129.915 19.316 108.376 19.316 108.376 8.547 131.111 8.547 131.111 1.368"/>
      <polygon points="153.162 1.368 153.162 44.444 181.026 44.444 181.026 37.265 160.342 37.265 160.342 1.368"/>
      <polygon points="186.838 1.368 186.838 44.444 214.701 44.444 214.701 37.265 194.017 37.265 194.017 1.368"/>
      <rect width="7.179" height="42.906" x="138.632" y="1.368"/>
      <path fill-rule="nonzero" d="M.170940171 23.0769231C.170940171 10.7692308 10.2564103.683760684 22.5641026.683760684 34.8717949.683760684 44.957265 10.7692308 44.957265 23.0769231 44.957265 35.3846154 34.8717949 45.4700855 22.5641026 45.4700855 10.0854701 45.4700855.170940171 35.3846154.170940171 23.0769231M11.7948718 12.3076923C9.05982906 15.042735 7.35042735 18.8034188 7.35042735 23.0769231 7.35042735 27.3504274 9.05982906 31.1111111 11.7948718 33.8461538 14.5299145 36.5811966 18.2905983 38.2905983 22.5641026 38.2905983 26.8376068 38.2905983 30.5982906 36.5811966 33.3333333 33.8461538 36.0683761 31.1111111 37.7777778 27.3504274 37.7777778 23.0769231 37.7777778 18.8034188 36.0683761 15.042735 33.3333333 12.3076923 30.5982906 9.57264957 26.8376068 7.86324786 22.5641026 7.86324786 18.2905983 7.86324786 14.5299145 9.57264957 11.7948718 12.3076923M84.957265 25.982906C90.0854701 24.4444444 93.8461538 19.6581197 93.8461538 14.017094 93.8461538 7.00854701 88.2051282 1.53846154 81.3675214 1.53846154L59.8290598 1.53846154 59.8290598 44.4444444 67.008547 44.4444444 67.008547 26.4957265 76.9230769 26.4957265 87.8632479 44.4444444 96.2393162 44.4444444 84.957265 25.982906zM67.008547 19.3162393L67.008547 8.54700855 81.3675214 8.54700855C84.2735043 8.54700855 86.6666667 10.9401709 86.6666667 13.8461538 86.6666667 16.7521368 84.2735043 19.1452991 81.3675214 19.1452991L67.008547 19.1452991 67.008547 19.3162393z"/>
      <path d="M54.7008547,5.98290598 C54.7008547,8.88888889 52.3076923,11.2820513 49.4017094,11.2820513 C46.4957265,11.2820513 44.1025641,8.88888889 44.1025641,5.98290598 C44.1025641,3.07692308 46.4957265,0.683760684 49.4017094,0.683760684 C52.4786325,0.683760684 54.7008547,3.07692308 54.7008547,5.98290598"/>
      <polygon points="237.949 1.368 226.838 17.436 215.897 1.368 207.179 1.368 223.248 24.786 223.248 44.444 230.427 44.444 230.427 24.786 246.667 1.368"/>
      <g fill-rule="nonzero" transform="translate(249.573)">
        <path d="M5.47008547,0.512820513 C2.56410256,0.512820513 0.170940171,2.90598291 0.170940171,5.81196581 C0.170940171,8.71794872 2.56410256,11.1111111 5.47008547,11.1111111 C8.37606838,11.1111111 10.7692308,8.71794872 10.7692308,5.81196581 C10.7692308,2.90598291 8.54700855,0.512820513 5.47008547,0.512820513 M5.47008547,10.2564103 C3.07692308,10.2564103 1.02564103,8.20512821 1.02564103,5.81196581 C1.02564103,3.41880342 3.07692308,1.36752137 5.47008547,1.36752137 C7.86324786,1.36752137 9.91452991,3.41880342 9.91452991,5.81196581 C9.91452991,8.20512821 8.03418803,10.2564103 5.47008547,10.2564103"/>
        <path d="M7.86324786,4.61538462 C7.86324786,3.76068376 7.17948718,3.07692308 6.32478632,3.07692308 L3.41880342,3.07692308 L3.41880342,8.54700855 L4.27350427,8.54700855 L4.27350427,6.15384615 L5.81196581,6.15384615 L6.83760684,8.37606838 L7.86324786,8.37606838 L6.83760684,6.15384615 C7.35042735,5.98290598 7.86324786,5.2991453 7.86324786,4.61538462 Z M4.27350427,3.93162393 L6.32478632,3.93162393 C6.66666667,3.93162393 7.00854701,4.27350427 7.00854701,4.61538462 C7.00854701,4.95726496 6.66666667,5.2991453 6.32478632,5.2991453 L4.27350427,5.2991453 L4.27350427,3.93162393 Z"/>
      </g>
    </g>
  </g>
</svg>
