<svg xmlns="http://www.w3.org/2000/svg" width="399" height="96"><g fill="none" fill-rule="evenodd"><g fill="#000"><path d="M3.248 57.264h3.248l9.402 25.983L25.3 57.264h3.248L17.436 87.35H14.36z"/><path fill-rule="nonzero" d="M49.573 76.751c0 .513 0 .855-.17 1.368H30.598c.684 4.444 3.932 7.008 8.547 7.008 3.419 0 5.812-1.538 6.838-3.59l2.564 1.54c-1.88 2.905-5.129 4.956-9.402 4.956-6.838 0-11.453-4.786-11.453-11.282 0-6.325 4.615-11.282 11.282-11.282 6.496-.17 10.598 5.3 10.598 11.282zM30.6 75.213h16.068c-.683-4.787-4.102-7.18-7.692-7.18-4.615.171-7.863 3.077-8.376 7.18z"/><path d="M54.36 56.068h2.906V87.35H54.36z"/><path fill-rule="nonzero" d="M62.052 76.58c0-6.324 4.957-11.282 11.282-11.282s11.282 4.958 11.282 11.282c0 6.325-4.957 11.282-11.282 11.282S62.052 82.905 62.052 76.58zm19.658 0c0-4.786-3.76-8.547-8.376-8.547-4.615 0-8.376 3.761-8.376 8.547 0 4.787 3.76 8.547 8.376 8.547 4.615 0 8.376-3.76 8.376-8.547z"/><path d="M88.206 76.58c0-6.324 4.786-11.282 11.282-11.282 4.273 0 7.863 2.223 9.401 5.641l-2.393 1.368c-1.196-2.564-3.931-4.274-7.008-4.274-4.787 0-8.376 3.761-8.376 8.547 0 4.787 3.76 8.547 8.376 8.547 3.248 0 5.812-1.71 7.18-4.273l2.392 1.367c-1.709 3.42-5.47 5.641-9.572 5.641-6.496 0-11.282-4.957-11.282-11.282z"/><path fill-rule="nonzero" d="M112.821 59.315c0-1.196.855-2.05 2.051-2.05 1.197 0 2.052 1.025 2.052 2.05 0 1.026-.855 2.052-2.052 2.052-1.196 0-2.05-1.026-2.05-2.052zm.513 6.496h2.906V87.35h-2.906V65.81z"/><path d="M127.18 68.717V81.71c0 3.76 2.051 3.418 6.154 3.247v2.565c-5.812.854-9.06-.513-9.06-5.642V68.888h-4.444v-2.735h4.444v-5.128l2.906-.855v5.983h6.154v2.735h-6.154v-.17zm30.086-2.906l-9.231 23.419c-1.71 4.102-4.787 6.838-8.718 6.667v-2.735c2.735.341 4.786-1.71 5.812-4.445l.513-1.367-9.573-21.539h3.077l8.034 17.949 7.009-17.949h3.077zm13.504 6.496c0-8.547 6.496-15.556 15.726-15.556 5.641 0 10.599 2.906 12.992 7.35l-2.735 1.54c-1.88-3.59-5.812-5.984-10.428-5.984-7.521 0-12.82 5.641-12.82 12.65 0 7.008 5.128 12.65 12.82 12.65 4.445 0 8.547-2.394 10.428-5.983l2.735 1.538c-2.393 4.444-7.35 7.35-12.992 7.35-9.23 0-15.726-7.008-15.726-15.555z"/><path fill-rule="nonzero" d="M202.736 76.58c0-6.324 4.957-11.282 11.282-11.282 6.324 0 11.282 4.958 11.282 11.282 0 6.325-4.958 11.282-11.282 11.282-6.325 0-11.282-4.957-11.282-11.282zm19.658 0c0-4.786-3.76-8.547-8.376-8.547-4.787 0-8.376 3.761-8.376 8.547 0 4.787 3.76 8.547 8.376 8.547 4.786 0 8.376-3.76 8.376-8.547z"/><path d="M248.719 74.187V87.35h-2.906V74.187c0-3.76-2.052-5.983-5.812-5.983-3.761 0-7.009 2.222-7.009 8.034v11.283h-2.906V65.81h2.906v3.419c1.71-2.735 4.103-3.932 7.18-3.932 5.299 0 8.547 3.59 8.547 8.89zm9.572-9.23v.854h6.154v2.735h-6.154V87.35h-2.906V68.546h-3.59v-2.735h3.59v-.855c0-5.64 3.248-8.718 9.06-8.205v2.735c-4.103-.342-6.154 1.368-6.154 5.47z"/><path fill-rule="nonzero" d="M287.864 76.751c0 .513 0 .855-.171 1.368h-18.804c.684 4.444 3.932 7.008 8.547 7.008 3.42 0 5.812-1.538 6.838-3.59l2.564 1.54c-1.88 2.905-5.128 4.956-9.402 4.956-6.837 0-11.452-4.786-11.452-11.282 0-6.325 4.615-11.282 11.282-11.282 6.495-.17 10.598 5.3 10.598 11.282zm-18.975-1.538h16.069c-.684-4.787-4.103-7.18-7.692-7.18-4.616.171-7.864 3.077-8.377 7.18z"/><path d="M302.223 65.47v2.905c-3.419 0-6.838 1.88-6.838 7.18V87.52h-2.906V65.81h2.906v3.59c1.539-2.906 4.103-3.932 6.838-3.932z"/><path fill-rule="nonzero" d="M325.642 76.751c0 .513 0 .855-.171 1.368h-18.804c.684 4.444 3.932 7.008 8.547 7.008 3.42 0 5.812-1.538 6.838-3.59l2.564 1.54c-1.88 2.905-5.128 4.956-9.402 4.956-6.837 0-11.453-4.786-11.453-11.282 0-6.325 4.616-11.282 11.282-11.282 6.496-.17 10.599 5.3 10.599 11.282zm-18.975-1.538h16.069c-.684-4.787-4.103-7.18-7.693-7.18-4.444.171-7.692 3.077-8.376 7.18z"/><path d="M348.89 74.187V87.35h-2.906V74.187c0-3.76-2.052-5.983-5.812-5.983-3.761 0-7.009 2.222-7.009 8.034v11.283h-2.906V65.81h2.906v3.419c1.71-2.735 4.103-3.932 7.18-3.932 5.47 0 8.546 3.59 8.546 8.89zm4.615 2.393c0-6.324 4.786-11.282 11.282-11.282 4.273 0 7.863 2.223 9.402 5.641l-2.394 1.368c-1.196-2.564-3.931-4.274-7.008-4.274-4.786 0-8.376 3.761-8.376 8.547 0 4.787 3.76 8.547 8.376 8.547 3.248 0 5.812-1.71 7.18-4.273l2.393 1.367c-1.71 3.42-5.47 5.641-9.573 5.641-6.496 0-11.282-4.957-11.282-11.282z"/><path fill-rule="nonzero" d="M398.975 76.751c0 .513 0 .855-.171 1.368h-18.803c.683 4.444 3.931 7.008 8.547 7.008 3.418 0 5.812-1.538 6.837-3.59l2.564 1.54c-1.88 2.905-5.128 4.956-9.401 4.956-6.838 0-11.453-4.786-11.453-11.282 0-6.325 4.615-11.282 11.282-11.282 6.495-.17 10.598 5.3 10.598 11.282zm-18.974-1.538h16.068c-.684-4.787-4.103-7.18-7.692-7.18-4.616.171-7.864 3.077-8.376 7.18z"/></g><g fill="#D3002D"><path d="M101.197 1.368v43.076h29.914v-7.179h-22.735V26.496h21.539v-7.18h-21.539V8.547h22.735V1.368zM153.162 1.368v43.076h27.864v-7.179h-20.684V1.368zM186.838 1.368v43.076h27.863v-7.179h-20.684V1.368zM138.632 1.368h7.179v42.906h-7.179z"/><path fill-rule="nonzero" d="M.17 23.077C.17 10.769 10.257.684 22.565.684c12.308 0 22.393 10.085 22.393 22.393S34.872 45.47 22.564 45.47C10.085 45.47.171 35.385.171 23.077m11.624-10.77C9.06 15.044 7.35 18.804 7.35 23.078c0 4.273 1.71 8.034 4.445 10.77 2.735 2.734 6.496 4.444 10.77 4.444 4.273 0 8.033-1.71 10.768-4.445 2.735-2.735 4.445-6.496 4.445-10.77 0-4.273-1.71-8.033-4.445-10.768-2.735-2.735-6.495-4.445-10.769-4.445-4.273 0-8.034 1.71-10.77 4.445m73.163 13.675c5.128-1.539 8.89-6.325 8.89-11.966 0-7.008-5.642-12.479-12.48-12.479H59.83v42.906h7.18V26.496h9.914l10.94 17.948h8.376L84.957 25.983zM67.01 19.316V8.547h14.359c2.906 0 5.299 2.393 5.299 5.3 0 2.905-2.393 5.298-5.3 5.298H67.01v.171z"/><path d="M54.7 5.983c0 2.906-2.392 5.3-5.298 5.3s-5.3-2.394-5.3-5.3c0-2.906 2.394-5.3 5.3-5.3 3.077 0 5.299 2.394 5.299 5.3M237.949 1.368l-11.111 16.068-10.941-16.068h-8.718l16.069 23.418v19.658h7.179V24.786l16.24-23.418z"/><g fill-rule="nonzero"><path d="M255.043.513c-2.906 0-5.3 2.393-5.3 5.299 0 2.906 2.394 5.3 5.3 5.3 2.906 0 5.3-2.394 5.3-5.3 0-2.906-2.223-5.3-5.3-5.3m0 9.744c-2.393 0-4.444-2.05-4.444-4.444 0-2.393 2.05-4.444 4.444-4.444 2.393 0 4.445 2.05 4.445 4.444 0 2.393-1.88 4.444-4.445 4.444"/><path d="M257.436 4.615c0-.854-.684-1.538-1.538-1.538h-2.906v5.47h.855V6.154h1.538l1.026 2.222h1.025l-1.025-2.222c.512-.171 1.025-.855 1.025-1.539zm-3.59-.683h2.052c.342 0 .684.342.684.683 0 .342-.342.684-.684.684h-2.051V3.932z"/></g></g></g></svg>